<?xml version="1.0" encoding="utf-8"?>
<!-- Generator: Adobe Illustrator 25.2.0, SVG Export Plug-In . SVG Version: 6.00 Build 0)  -->
<svg version="1.1" id="Layer_1" xmlns="http://www.w3.org/2000/svg" xmlns:xlink="http://www.w3.org/1999/xlink" x="0px" y="0px"
	 viewBox="0 0 374.6 383.16" style="enable-background:new 0 0 374.6 383.16;" xml:space="preserve">
<style type="text/css">
	.st0{stroke:#000000;stroke-width:1.4069;stroke-miterlimit:10;}
	.st1{fill:#FFFFFF;stroke:#000000;stroke-width:1.4069;stroke-miterlimit:10;}
	.st2{fill:none;stroke:#000000;stroke-width:3;stroke-miterlimit:10;}
</style>
<g id="People">
	<g id="_x31_">
		<circle class="st0" cx="51.01" cy="145.49" r="20.95"/>
		<path class="st0" d="M75.96,171.86H25.74c-6.26,0-25.04,4.73-25.04,25.04c0,20.31,0,69.63,0,69.63c0,11.75,18.01,9.71,18.01,0
			c0-6.64-0.13-60.81-0.13-60.81h4.73v166.09c0,14.82,24.79,13.54,24.79,0s0-97.1,0-97.1h5.49c0,0,0,83.56,0,97.1
			s24.79,14.82,24.79,0V205.72h4.73c0,0-0.13,54.17-0.13,60.81c0,9.71,18.01,11.75,18.01,0c0,0,0-49.32,0-69.63
			C101,176.59,82.22,171.86,75.96,171.86z"/>
	</g>
	<g id="_x32_">
		<circle class="st1" cx="187.46" cy="145.49" r="20.95"/>
		<path class="st1" d="M212.41,171.86H162.2c-6.26,0-25.04,4.73-25.04,25.04c0,20.31,0,69.63,0,69.63c0,11.75,18.01,9.71,18.01,0
			c0-6.64-0.13-60.81-0.13-60.81h4.73v166.09c0,14.82,24.79,13.54,24.79,0s0-97.1,0-97.1h5.49c0,0,0,83.56,0,97.1
			s24.79,14.82,24.79,0V205.72h4.73c0,0-0.13,54.17-0.13,60.81c0,9.71,18.01,11.75,18.01,0c0,0,0-49.32,0-69.63
			C237.45,176.59,218.67,171.86,212.41,171.86z"/>
	</g>
	<g id="_x33_">
		<circle class="st1" cx="323.91" cy="145.49" r="20.95"/>
		<path class="st1" d="M348.86,171.86h-50.21c-6.26,0-25.04,4.73-25.04,25.04c0,20.31,0,69.63,0,69.63c0,11.75,18.01,9.71,18.01,0
			c0-6.64-0.13-60.81-0.13-60.81h4.73v166.09c0,14.82,24.79,13.54,24.79,0s0-97.1,0-97.1h5.49c0,0,0,83.56,0,97.1
			s24.79,14.82,24.79,0V205.72h4.73c0,0-0.13,54.17-0.13,60.81c0,9.71,18.01,11.75,18.01,0c0,0,0-49.32,0-69.63
			C373.9,176.59,355.12,171.86,348.86,171.86z"/>
	</g>
	<g>
		<path d="M71.97,126.62l4.77-6.2c0.46-0.57,0.89-1.07,1.37-1.63v-0.04h-5.7v-1.55h8.03l-0.02,1.2l-4.7,6.12
			c-0.44,0.59-0.87,1.11-1.35,1.65v0.04h6.16v1.52h-8.55V126.62z"/>
	</g>
	<g>
		<path d="M86.61,111.75l4.77-6.2c0.46-0.57,0.89-1.07,1.37-1.63v-0.04h-5.7v-1.55h8.03l-0.02,1.2l-4.7,6.12
			c-0.44,0.59-0.87,1.11-1.35,1.65v0.04h6.16v1.52h-8.55V111.75z"/>
	</g>
	<g>
		<path d="M76.59,99.36l4.77-6.2c0.46-0.57,0.89-1.07,1.37-1.63v-0.04h-5.7v-1.55h8.03l-0.02,1.2l-4.7,6.12
			c-0.44,0.59-0.87,1.11-1.35,1.65v0.04h6.16v1.52h-8.55V99.36z"/>
	</g>
	<g>
		<path d="M90.83,88.55l4.77-6.2c0.46-0.57,0.89-1.07,1.37-1.63v-0.04h-5.7v-1.55h8.03l-0.02,1.2l-4.7,6.12
			c-0.44,0.59-0.87,1.11-1.35,1.65v0.04h6.16v1.52h-8.55V88.55z"/>
	</g>
	<g>
		<path d="M104.53,77.57l4.77-6.2c0.46-0.57,0.89-1.07,1.37-1.63v-0.04h-5.7v-1.55H113l-0.02,1.2l-4.7,6.12
			c-0.44,0.59-0.87,1.11-1.35,1.65v0.04h6.16v1.52h-8.55V77.57z"/>
	</g>
</g>
<g id="Clock">
	<circle class="st2" cx="187.3" cy="28.74" r="27.24"/>
	<polyline class="st2" points="187.3,6.89 187.3,28.74 196.81,36.18 	"/>
	<circle class="st2" cx="187.3" cy="28.74" r="1.34"/>
</g>
</svg>
