<?xml version="1.0" encoding="utf-8"?>
<!-- Generator: Adobe Illustrator 25.2.0, SVG Export Plug-In . SVG Version: 6.00 Build 0)  -->
<svg version="1.1" id="_x31__out_of_37_people" xmlns="http://www.w3.org/2000/svg" xmlns:xlink="http://www.w3.org/1999/xlink"
	 x="0px" y="0px" viewBox="0 0 501.08 425.11" style="enable-background:new 0 0 501.08 425.11;" xml:space="preserve">
<style type="text/css">
	.st0{stroke:#000000;stroke-width:0.5301;stroke-miterlimit:10;}
	.st1{fill:#FFFFFF;stroke:#000000;stroke-width:0.5301;stroke-miterlimit:10;}
	.st2{fill:none;stroke:#000000;stroke-width:2.4202;stroke-miterlimit:10;}
</style>
<g id="People">
	<g id="_x31_">
		<circle class="st0" cx="19.22" cy="9.89" r="7.9"/>
		<path class="st0" d="M28.62,19.83H9.7c-2.36,0-9.44,1.78-9.44,9.44c0,7.65,0,26.24,0,26.24c0,4.43,6.79,3.66,6.79,0
			c0-2.5-0.05-22.92-0.05-22.92h1.78v62.59c0,5.58,9.34,5.1,9.34,0c0-5.1,0-36.59,0-36.59h2.07c0,0,0,31.49,0,36.59
			c0,5.1,9.34,5.58,9.34,0V32.59h1.78c0,0-0.05,20.41-0.05,22.92c0,3.66,6.79,4.43,6.79,0c0,0,0-18.58,0-26.24
			C38.06,21.61,30.98,19.83,28.62,19.83z"/>
	</g>
	<g id="_x32_">
		<circle class="st1" cx="70.64" cy="9.89" r="7.9"/>
		<path class="st1" d="M80.04,19.83H61.12c-2.36,0-9.44,1.78-9.44,9.44c0,7.65,0,26.24,0,26.24c0,4.43,6.79,3.66,6.79,0
			c0-2.5-0.05-22.92-0.05-22.92h1.78v62.59c0,5.58,9.34,5.1,9.34,0c0-5.1,0-36.59,0-36.59h2.07c0,0,0,31.49,0,36.59
			c0,5.1,9.34,5.58,9.34,0V32.59h1.78c0,0-0.05,20.41-0.05,22.92c0,3.66,6.79,4.43,6.79,0c0,0,0-18.58,0-26.24
			C89.48,21.61,82.4,19.83,80.04,19.83z"/>
	</g>
	<g id="_x33_">
		<circle class="st1" cx="122.06" cy="9.89" r="7.9"/>
		<path class="st1" d="M131.46,19.83h-18.92c-2.36,0-9.44,1.78-9.44,9.44c0,7.65,0,26.24,0,26.24c0,4.43,6.79,3.66,6.79,0
			c0-2.5-0.05-22.92-0.05-22.92h1.78v62.59c0,5.58,9.34,5.1,9.34,0c0-5.1,0-36.59,0-36.59h2.07c0,0,0,31.49,0,36.59
			c0,5.1,9.34,5.58,9.34,0V32.59h1.78c0,0-0.05,20.41-0.05,22.92c0,3.66,6.79,4.43,6.79,0c0,0,0-18.58,0-26.24
			C140.89,21.61,133.82,19.83,131.46,19.83z"/>
	</g>
	<g id="_x34_">
		<circle class="st1" cx="173.48" cy="9.89" r="7.9"/>
		<path class="st1" d="M182.88,19.83h-18.92c-2.36,0-9.44,1.78-9.44,9.44c0,7.65,0,26.24,0,26.24c0,4.43,6.79,3.66,6.79,0
			c0-2.5-0.05-22.92-0.05-22.92h1.78v62.59c0,5.58,9.34,5.1,9.34,0c0-5.1,0-36.59,0-36.59h2.07c0,0,0,31.49,0,36.59
			c0,5.1,9.34,5.58,9.34,0V32.59h1.78c0,0-0.05,20.41-0.05,22.92c0,3.66,6.79,4.43,6.79,0c0,0,0-18.58,0-26.24
			C192.31,21.61,185.23,19.83,182.88,19.83z"/>
	</g>
	<g id="_x35_">
		<circle class="st1" cx="224.89" cy="9.89" r="7.9"/>
		<path class="st1" d="M234.29,19.83h-18.92c-2.36,0-9.44,1.78-9.44,9.44c0,7.65,0,26.24,0,26.24c0,4.43,6.79,3.66,6.79,0
			c0-2.5-0.05-22.92-0.05-22.92h1.78v62.59c0,5.58,9.34,5.1,9.34,0c0-5.1,0-36.59,0-36.59h2.07c0,0,0,31.49,0,36.59
			c0,5.1,9.34,5.58,9.34,0V32.59h1.78c0,0-0.05,20.41-0.05,22.92c0,3.66,6.79,4.43,6.79,0c0,0,0-18.58,0-26.24
			C243.73,21.61,236.65,19.83,234.29,19.83z"/>
	</g>
	<g id="_x32__1_">
		<circle class="st1" cx="276.31" cy="8.16" r="7.9"/>
		<path class="st1" d="M285.71,18.1h-18.92c-2.36,0-9.44,1.78-9.44,9.44c0,7.65,0,26.24,0,26.24c0,4.43,6.79,3.66,6.79,0
			c0-2.5-0.05-22.92-0.05-22.92h1.78v62.59c0,5.58,9.34,5.1,9.34,0c0-5.1,0-36.59,0-36.59h2.07c0,0,0,31.49,0,36.59
			c0,5.1,9.34,5.58,9.34,0V30.86h1.78c0,0-0.05,20.41-0.05,22.92c0,3.66,6.79,4.43,6.79,0c0,0,0-18.58,0-26.24
			C295.15,19.88,288.07,18.1,285.71,18.1z"/>
	</g>
	<g id="_x33__1_">
		<circle class="st1" cx="327.73" cy="8.16" r="7.9"/>
		<path class="st1" d="M337.13,18.1h-18.92c-2.36,0-9.44,1.78-9.44,9.44c0,7.65,0,26.24,0,26.24c0,4.43,6.79,3.66,6.79,0
			c0-2.5-0.05-22.92-0.05-22.92h1.78v62.59c0,5.58,9.34,5.1,9.34,0c0-5.1,0-36.59,0-36.59h2.07c0,0,0,31.49,0,36.59
			c0,5.1,9.34,5.58,9.34,0V30.86h1.78c0,0-0.05,20.41-0.05,22.92c0,3.66,6.79,4.43,6.79,0c0,0,0-18.58,0-26.24
			C346.56,19.88,339.49,18.1,337.13,18.1z"/>
	</g>
	<g id="_x34__1_">
		<circle class="st1" cx="379.15" cy="8.16" r="7.9"/>
		<path class="st1" d="M388.55,18.1h-18.92c-2.36,0-9.44,1.78-9.44,9.44c0,7.65,0,26.24,0,26.24c0,4.43,6.79,3.66,6.79,0
			c0-2.5-0.05-22.92-0.05-22.92h1.78v62.59c0,5.58,9.34,5.1,9.34,0c0-5.1,0-36.59,0-36.59h2.07c0,0,0,31.49,0,36.59
			c0,5.1,9.34,5.58,9.34,0V30.86h1.78c0,0-0.05,20.41-0.05,22.92c0,3.66,6.79,4.43,6.79,0c0,0,0-18.58,0-26.24
			C397.98,19.88,390.9,18.1,388.55,18.1z"/>
	</g>
	<g id="_x35__1_">
		<circle class="st1" cx="430.56" cy="8.16" r="7.9"/>
		<path class="st1" d="M439.96,18.1h-18.92c-2.36,0-9.44,1.78-9.44,9.44c0,7.65,0,26.24,0,26.24c0,4.43,6.79,3.66,6.79,0
			c0-2.5-0.05-22.92-0.05-22.92h1.78v62.59c0,5.58,9.34,5.1,9.34,0c0-5.1,0-36.59,0-36.59h2.07c0,0,0,31.49,0,36.59
			c0,5.1,9.34,5.58,9.34,0V30.86h1.78c0,0-0.05,20.41-0.05,22.92c0,3.66,6.79,4.43,6.79,0c0,0,0-18.58,0-26.24
			C449.4,19.88,442.32,18.1,439.96,18.1z"/>
	</g>
	<g id="_x35__2_">
		<circle class="st1" cx="481.98" cy="8.16" r="7.9"/>
		<path class="st1" d="M491.38,18.1h-18.92c-2.36,0-9.44,1.78-9.44,9.44c0,7.65,0,26.24,0,26.24c0,4.43,6.79,3.66,6.79,0
			c0-2.5-0.05-22.92-0.05-22.92h1.78v62.59c0,5.58,9.34,5.1,9.34,0c0-5.1,0-36.59,0-36.59h2.07c0,0,0,31.49,0,36.59
			c0,5.1,9.34,5.58,9.34,0V30.86h1.78c0,0-0.05,20.41-0.05,22.92c0,3.66,6.79,4.43,6.79,0c0,0,0-18.58,0-26.24
			C500.82,19.88,493.74,18.1,491.38,18.1z"/>
	</g>
	<g id="_x32__3_">
		<circle class="st1" cx="70.64" cy="118.44" r="7.9"/>
		<path class="st1" d="M80.04,128.38H61.12c-2.36,0-9.44,1.78-9.44,9.44c0,7.65,0,26.24,0,26.24c0,4.43,6.79,3.66,6.79,0
			c0-2.5-0.05-22.92-0.05-22.92h1.78v62.59c0,5.58,9.34,5.1,9.34,0c0-5.1,0-36.59,0-36.59h2.07c0,0,0,31.49,0,36.59
			c0,5.1,9.34,5.58,9.34,0v-62.59h1.78c0,0-0.05,20.41-0.05,22.92c0,3.66,6.79,4.43,6.79,0c0,0,0-18.58,0-26.24
			C89.48,130.16,82.4,128.38,80.04,128.38z"/>
	</g>
	<g id="_x33__3_">
		<circle class="st1" cx="122.06" cy="118.44" r="7.9"/>
		<path class="st1" d="M131.46,128.38h-18.92c-2.36,0-9.44,1.78-9.44,9.44c0,7.65,0,26.24,0,26.24c0,4.43,6.79,3.66,6.79,0
			c0-2.5-0.05-22.92-0.05-22.92h1.78v62.59c0,5.58,9.34,5.1,9.34,0c0-5.1,0-36.59,0-36.59h2.07c0,0,0,31.49,0,36.59
			c0,5.1,9.34,5.58,9.34,0v-62.59h1.78c0,0-0.05,20.41-0.05,22.92c0,3.66,6.79,4.43,6.79,0c0,0,0-18.58,0-26.24
			C140.89,130.16,133.82,128.38,131.46,128.38z"/>
	</g>
	<g id="_x34__3_">
		<circle class="st1" cx="173.48" cy="118.44" r="7.9"/>
		<path class="st1" d="M182.88,128.38h-18.92c-2.36,0-9.44,1.78-9.44,9.44c0,7.65,0,26.24,0,26.24c0,4.43,6.79,3.66,6.79,0
			c0-2.5-0.05-22.92-0.05-22.92h1.78v62.59c0,5.58,9.34,5.1,9.34,0c0-5.1,0-36.59,0-36.59h2.07c0,0,0,31.49,0,36.59
			c0,5.1,9.34,5.58,9.34,0v-62.59h1.78c0,0-0.05,20.41-0.05,22.92c0,3.66,6.79,4.43,6.79,0c0,0,0-18.58,0-26.24
			C192.31,130.16,185.23,128.38,182.88,128.38z"/>
	</g>
	<g id="_x35__5_">
		<circle class="st1" cx="224.89" cy="118.44" r="7.9"/>
		<path class="st1" d="M234.29,128.38h-18.92c-2.36,0-9.44,1.78-9.44,9.44c0,7.65,0,26.24,0,26.24c0,4.43,6.79,3.66,6.79,0
			c0-2.5-0.05-22.92-0.05-22.92h1.78v62.59c0,5.58,9.34,5.1,9.34,0c0-5.1,0-36.59,0-36.59h2.07c0,0,0,31.49,0,36.59
			c0,5.1,9.34,5.58,9.34,0v-62.59h1.78c0,0-0.05,20.41-0.05,22.92c0,3.66,6.79,4.43,6.79,0c0,0,0-18.58,0-26.24
			C243.73,130.16,236.65,128.38,234.29,128.38z"/>
	</g>
	<g id="_x32__2_">
		<circle class="st1" cx="276.31" cy="116.71" r="7.9"/>
		<path class="st1" d="M285.71,126.65h-18.92c-2.36,0-9.44,1.78-9.44,9.44c0,7.65,0,26.24,0,26.24c0,4.43,6.79,3.66,6.79,0
			c0-2.5-0.05-22.92-0.05-22.92h1.78V202c0,5.58,9.34,5.1,9.34,0c0-5.1,0-36.59,0-36.59h2.07c0,0,0,31.49,0,36.59
			c0,5.1,9.34,5.58,9.34,0v-62.59h1.78c0,0-0.05,20.41-0.05,22.92c0,3.66,6.79,4.43,6.79,0c0,0,0-18.58,0-26.24
			C295.15,128.43,288.07,126.65,285.71,126.65z"/>
	</g>
	<g id="_x33__2_">
		<circle class="st1" cx="327.73" cy="116.71" r="7.9"/>
		<path class="st1" d="M337.13,126.65h-18.92c-2.36,0-9.44,1.78-9.44,9.44c0,7.65,0,26.24,0,26.24c0,4.43,6.79,3.66,6.79,0
			c0-2.5-0.05-22.92-0.05-22.92h1.78V202c0,5.58,9.34,5.1,9.34,0c0-5.1,0-36.59,0-36.59h2.07c0,0,0,31.49,0,36.59
			c0,5.1,9.34,5.58,9.34,0v-62.59h1.78c0,0-0.05,20.41-0.05,22.92c0,3.66,6.79,4.43,6.79,0c0,0,0-18.58,0-26.24
			C346.56,128.43,339.49,126.65,337.13,126.65z"/>
	</g>
	<g id="_x34__2_">
		<circle class="st1" cx="379.15" cy="116.71" r="7.9"/>
		<path class="st1" d="M388.55,126.65h-18.92c-2.36,0-9.44,1.78-9.44,9.44c0,7.65,0,26.24,0,26.24c0,4.43,6.79,3.66,6.79,0
			c0-2.5-0.05-22.92-0.05-22.92h1.78V202c0,5.58,9.34,5.1,9.34,0c0-5.1,0-36.59,0-36.59h2.07c0,0,0,31.49,0,36.59
			c0,5.1,9.34,5.58,9.34,0v-62.59h1.78c0,0-0.05,20.41-0.05,22.92c0,3.66,6.79,4.43,6.79,0c0,0,0-18.58,0-26.24
			C397.98,128.43,390.9,126.65,388.55,126.65z"/>
	</g>
	<g id="_x35__4_">
		<circle class="st1" cx="430.56" cy="116.71" r="7.9"/>
		<path class="st1" d="M439.96,126.65h-18.92c-2.36,0-9.44,1.78-9.44,9.44c0,7.65,0,26.24,0,26.24c0,4.43,6.79,3.66,6.79,0
			c0-2.5-0.05-22.92-0.05-22.92h1.78V202c0,5.58,9.34,5.1,9.34,0c0-5.1,0-36.59,0-36.59h2.07c0,0,0,31.49,0,36.59
			c0,5.1,9.34,5.58,9.34,0v-62.59h1.78c0,0-0.05,20.41-0.05,22.92c0,3.66,6.79,4.43,6.79,0c0,0,0-18.58,0-26.24
			C449.4,128.43,442.32,126.65,439.96,126.65z"/>
	</g>
	<g id="_x35__3_">
		<circle class="st1" cx="481.98" cy="116.71" r="7.9"/>
		<path class="st1" d="M491.38,126.65h-18.92c-2.36,0-9.44,1.78-9.44,9.44c0,7.65,0,26.24,0,26.24c0,4.43,6.79,3.66,6.79,0
			c0-2.5-0.05-22.92-0.05-22.92h1.78V202c0,5.58,9.34,5.1,9.34,0c0-5.1,0-36.59,0-36.59h2.07c0,0,0,31.49,0,36.59
			c0,5.1,9.34,5.58,9.34,0v-62.59h1.78c0,0-0.05,20.41-0.05,22.92c0,3.66,6.79,4.43,6.79,0c0,0,0-18.58,0-26.24
			C500.82,128.43,493.74,126.65,491.38,126.65z"/>
	</g>
	<g id="_x32__5_">
		<circle class="st1" cx="70.64" cy="227" r="7.9"/>
		<path class="st1" d="M80.04,236.94H61.12c-2.36,0-9.44,1.78-9.44,9.44c0,7.65,0,26.24,0,26.24c0,4.43,6.79,3.66,6.79,0
			c0-2.5-0.05-22.92-0.05-22.92h1.78v62.59c0,5.58,9.34,5.1,9.34,0c0-5.1,0-36.59,0-36.59h2.07c0,0,0,31.49,0,36.59
			c0,5.1,9.34,5.58,9.34,0v-62.59h1.78c0,0-0.05,20.41-0.05,22.92c0,3.66,6.79,4.43,6.79,0c0,0,0-18.58,0-26.24
			C89.48,238.72,82.4,236.94,80.04,236.94z"/>
	</g>
	<g id="_x33__5_">
		<circle class="st1" cx="122.06" cy="227" r="7.9"/>
		<path class="st1" d="M131.46,236.94h-18.92c-2.36,0-9.44,1.78-9.44,9.44c0,7.65,0,26.24,0,26.24c0,4.43,6.79,3.66,6.79,0
			c0-2.5-0.05-22.92-0.05-22.92h1.78v62.59c0,5.58,9.34,5.1,9.34,0c0-5.1,0-36.59,0-36.59h2.07c0,0,0,31.49,0,36.59
			c0,5.1,9.34,5.58,9.34,0v-62.59h1.78c0,0-0.05,20.41-0.05,22.92c0,3.66,6.79,4.43,6.79,0c0,0,0-18.58,0-26.24
			C140.89,238.72,133.82,236.94,131.46,236.94z"/>
	</g>
	<g id="_x34__5_">
		<circle class="st1" cx="173.48" cy="227" r="7.9"/>
		<path class="st1" d="M182.88,236.94h-18.92c-2.36,0-9.44,1.78-9.44,9.44c0,7.65,0,26.24,0,26.24c0,4.43,6.79,3.66,6.79,0
			c0-2.5-0.05-22.92-0.05-22.92h1.78v62.59c0,5.58,9.34,5.1,9.34,0c0-5.1,0-36.59,0-36.59h2.07c0,0,0,31.49,0,36.59
			c0,5.1,9.34,5.58,9.34,0v-62.59h1.78c0,0-0.05,20.41-0.05,22.92c0,3.66,6.79,4.43,6.79,0c0,0,0-18.58,0-26.24
			C192.31,238.72,185.23,236.94,182.88,236.94z"/>
	</g>
	<g id="_x35__8_">
		<circle class="st1" cx="224.89" cy="227" r="7.9"/>
		<path class="st1" d="M234.29,236.94h-18.92c-2.36,0-9.44,1.78-9.44,9.44c0,7.65,0,26.24,0,26.24c0,4.43,6.79,3.66,6.79,0
			c0-2.5-0.05-22.92-0.05-22.92h1.78v62.59c0,5.58,9.34,5.1,9.34,0c0-5.1,0-36.59,0-36.59h2.07c0,0,0,31.49,0,36.59
			c0,5.1,9.34,5.58,9.34,0v-62.59h1.78c0,0-0.05,20.41-0.05,22.92c0,3.66,6.79,4.43,6.79,0c0,0,0-18.58,0-26.24
			C243.73,238.72,236.65,236.94,234.29,236.94z"/>
	</g>
	<g id="_x32__4_">
		<circle class="st1" cx="276.31" cy="225.27" r="7.9"/>
		<path class="st1" d="M285.71,235.21h-18.92c-2.36,0-9.44,1.78-9.44,9.44c0,7.65,0,26.24,0,26.24c0,4.43,6.79,3.66,6.79,0
			c0-2.5-0.05-22.92-0.05-22.92h1.78v62.59c0,5.58,9.34,5.1,9.34,0s0-36.59,0-36.59h2.07c0,0,0,31.49,0,36.59s9.34,5.58,9.34,0
			v-62.59h1.78c0,0-0.05,20.41-0.05,22.92c0,3.66,6.79,4.43,6.79,0c0,0,0-18.58,0-26.24C295.15,236.99,288.07,235.21,285.71,235.21z
			"/>
	</g>
	<g id="_x33__4_">
		<circle class="st1" cx="327.73" cy="225.27" r="7.9"/>
		<path class="st1" d="M337.13,235.21h-18.92c-2.36,0-9.44,1.78-9.44,9.44c0,7.65,0,26.24,0,26.24c0,4.43,6.79,3.66,6.79,0
			c0-2.5-0.05-22.92-0.05-22.92h1.78v62.59c0,5.58,9.34,5.1,9.34,0s0-36.59,0-36.59h2.07c0,0,0,31.49,0,36.59s9.34,5.58,9.34,0
			v-62.59h1.78c0,0-0.05,20.41-0.05,22.92c0,3.66,6.79,4.43,6.79,0c0,0,0-18.58,0-26.24C346.56,236.99,339.49,235.21,337.13,235.21z
			"/>
	</g>
	<g id="_x34__4_">
		<circle class="st1" cx="379.15" cy="225.27" r="7.9"/>
		<path class="st1" d="M388.55,235.21h-18.92c-2.36,0-9.44,1.78-9.44,9.44c0,7.65,0,26.24,0,26.24c0,4.43,6.79,3.66,6.79,0
			c0-2.5-0.05-22.92-0.05-22.92h1.78v62.59c0,5.58,9.34,5.1,9.34,0s0-36.59,0-36.59h2.07c0,0,0,31.49,0,36.59s9.34,5.58,9.34,0
			v-62.59h1.78c0,0-0.05,20.41-0.05,22.92c0,3.66,6.79,4.43,6.79,0c0,0,0-18.58,0-26.24C397.98,236.99,390.9,235.21,388.55,235.21z"
			/>
	</g>
	<g id="_x35__7_">
		<circle class="st1" cx="430.56" cy="225.27" r="7.9"/>
		<path class="st1" d="M439.96,235.21h-18.92c-2.36,0-9.44,1.78-9.44,9.44c0,7.65,0,26.24,0,26.24c0,4.43,6.79,3.66,6.79,0
			c0-2.5-0.05-22.92-0.05-22.92h1.78v62.59c0,5.58,9.34,5.1,9.34,0s0-36.59,0-36.59h2.07c0,0,0,31.49,0,36.59s9.34,5.58,9.34,0
			v-62.59h1.78c0,0-0.05,20.41-0.05,22.92c0,3.66,6.79,4.43,6.79,0c0,0,0-18.58,0-26.24C449.4,236.99,442.32,235.21,439.96,235.21z"
			/>
	</g>
	<g id="_x35__6_">
		<circle class="st1" cx="481.98" cy="225.27" r="7.9"/>
		<path class="st1" d="M491.38,235.21h-18.92c-2.36,0-9.44,1.78-9.44,9.44c0,7.65,0,26.24,0,26.24c0,4.43,6.79,3.66,6.79,0
			c0-2.5-0.05-22.92-0.05-22.92h1.78v62.59c0,5.58,9.34,5.1,9.34,0s0-36.59,0-36.59h2.07c0,0,0,31.49,0,36.59s9.34,5.58,9.34,0
			v-62.59h1.78c0,0-0.05,20.41-0.05,22.92c0,3.66,6.79,4.43,6.79,0c0,0,0-18.58,0-26.24C500.82,236.99,493.74,235.21,491.38,235.21z
			"/>
	</g>
	<g id="_x32__7_">
		<circle class="st1" cx="70.64" cy="335.55" r="7.9"/>
		<path class="st1" d="M80.04,345.49H61.12c-2.36,0-9.44,1.78-9.44,9.44c0,7.65,0,26.24,0,26.24c0,4.43,6.79,3.66,6.79,0
			c0-2.5-0.05-22.92-0.05-22.92h1.78v62.59c0,5.58,9.34,5.1,9.34,0s0-36.59,0-36.59h2.07c0,0,0,31.49,0,36.59s9.34,5.58,9.34,0
			v-62.59h1.78c0,0-0.05,20.41-0.05,22.92c0,3.66,6.79,4.43,6.79,0c0,0,0-18.58,0-26.24C89.48,347.27,82.4,345.49,80.04,345.49z"/>
	</g>
	<g id="_x32__10_">
		<circle class="st1" cx="19.22" cy="118.44" r="7.9"/>
		<path class="st1" d="M28.62,128.38H9.7c-2.36,0-9.44,1.78-9.44,9.44c0,7.65,0,26.24,0,26.24c0,4.43,6.79,3.66,6.79,0
			c0-2.5-0.05-22.92-0.05-22.92h1.78v62.59c0,5.58,9.34,5.1,9.34,0c0-5.1,0-36.59,0-36.59h2.07c0,0,0,31.49,0,36.59
			c0,5.1,9.34,5.58,9.34,0v-62.59h1.78c0,0-0.05,20.41-0.05,22.92c0,3.66,6.79,4.43,6.79,0c0,0,0-18.58,0-26.24
			C38.06,130.16,30.98,128.38,28.62,128.38z"/>
	</g>
	<g id="_x32__9_">
		<circle class="st1" cx="19.22" cy="227" r="7.9"/>
		<path class="st1" d="M28.62,236.94H9.7c-2.36,0-9.44,1.78-9.44,9.44c0,7.65,0,26.24,0,26.24c0,4.43,6.79,3.66,6.79,0
			c0-2.5-0.05-22.92-0.05-22.92h1.78v62.59c0,5.58,9.34,5.1,9.34,0c0-5.1,0-36.59,0-36.59h2.07c0,0,0,31.49,0,36.59
			c0,5.1,9.34,5.58,9.34,0v-62.59h1.78c0,0-0.05,20.41-0.05,22.92c0,3.66,6.79,4.43,6.79,0c0,0,0-18.58,0-26.24
			C38.06,238.72,30.98,236.94,28.62,236.94z"/>
	</g>
	<g id="_x32__8_">
		<circle class="st1" cx="19.22" cy="335.55" r="7.9"/>
		<path class="st1" d="M28.62,345.49H9.7c-2.36,0-9.44,1.78-9.44,9.44c0,7.65,0,26.24,0,26.24c0,4.43,6.79,3.66,6.79,0
			c0-2.5-0.05-22.92-0.05-22.92h1.78v62.59c0,5.58,9.34,5.1,9.34,0s0-36.59,0-36.59h2.07c0,0,0,31.49,0,36.59s9.34,5.58,9.34,0
			v-62.59h1.78c0,0-0.05,20.41-0.05,22.92c0,3.66,6.79,4.43,6.79,0c0,0,0-18.58,0-26.24C38.06,347.27,30.98,345.49,28.62,345.49z"/>
	</g>
	<g id="_x33__7_">
		<circle class="st1" cx="122.06" cy="335.55" r="7.9"/>
		<path class="st1" d="M131.46,345.49h-18.92c-2.36,0-9.44,1.78-9.44,9.44c0,7.65,0,26.24,0,26.24c0,4.43,6.79,3.66,6.79,0
			c0-2.5-0.05-22.92-0.05-22.92h1.78v62.59c0,5.58,9.34,5.1,9.34,0s0-36.59,0-36.59h2.07c0,0,0,31.49,0,36.59s9.34,5.58,9.34,0
			v-62.59h1.78c0,0-0.05,20.41-0.05,22.92c0,3.66,6.79,4.43,6.79,0c0,0,0-18.58,0-26.24C140.89,347.27,133.82,345.49,131.46,345.49z
			"/>
	</g>
	<g id="_x34__7_">
		<circle class="st1" cx="173.48" cy="335.55" r="7.9"/>
		<path class="st1" d="M182.88,345.49h-18.92c-2.36,0-9.44,1.78-9.44,9.44c0,7.65,0,26.24,0,26.24c0,4.43,6.79,3.66,6.79,0
			c0-2.5-0.05-22.92-0.05-22.92h1.78v62.59c0,5.58,9.34,5.1,9.34,0s0-36.59,0-36.59h2.07c0,0,0,31.49,0,36.59s9.34,5.58,9.34,0
			v-62.59h1.78c0,0-0.05,20.41-0.05,22.92c0,3.66,6.79,4.43,6.79,0c0,0,0-18.58,0-26.24C192.31,347.27,185.23,345.49,182.88,345.49z
			"/>
	</g>
	<g id="_x35__11_">
		<circle class="st1" cx="224.89" cy="335.55" r="7.9"/>
		<path class="st1" d="M234.29,345.49h-18.92c-2.36,0-9.44,1.78-9.44,9.44c0,7.65,0,26.24,0,26.24c0,4.43,6.79,3.66,6.79,0
			c0-2.5-0.05-22.92-0.05-22.92h1.78v62.59c0,5.58,9.34,5.1,9.34,0s0-36.59,0-36.59h2.07c0,0,0,31.49,0,36.59s9.34,5.58,9.34,0
			v-62.59h1.78c0,0-0.05,20.41-0.05,22.92c0,3.66,6.79,4.43,6.79,0c0,0,0-18.58,0-26.24C243.73,347.27,236.65,345.49,234.29,345.49z
			"/>
	</g>
	<g id="_x32__6_">
		<circle class="st1" cx="276.31" cy="333.82" r="7.9"/>
		<path class="st1" d="M285.71,343.76h-18.92c-2.36,0-9.44,1.78-9.44,9.44s0,26.24,0,26.24c0,4.43,6.79,3.66,6.79,0
			c0-2.5-0.05-22.92-0.05-22.92h1.78v62.59c0,5.58,9.34,5.1,9.34,0c0-5.1,0-36.59,0-36.59h2.07c0,0,0,31.49,0,36.59
			c0,5.1,9.34,5.58,9.34,0v-62.59h1.78c0,0-0.05,20.41-0.05,22.92c0,3.66,6.79,4.43,6.79,0c0,0,0-18.58,0-26.24
			S288.07,343.76,285.71,343.76z"/>
	</g>
	<g id="_x33__6_">
		<circle class="st1" cx="327.73" cy="333.82" r="7.9"/>
		<path class="st1" d="M337.13,343.76h-18.92c-2.36,0-9.44,1.78-9.44,9.44s0,26.24,0,26.24c0,4.43,6.79,3.66,6.79,0
			c0-2.5-0.05-22.92-0.05-22.92h1.78v62.59c0,5.58,9.34,5.1,9.34,0c0-5.1,0-36.59,0-36.59h2.07c0,0,0,31.49,0,36.59
			c0,5.1,9.34,5.58,9.34,0v-62.59h1.78c0,0-0.05,20.41-0.05,22.92c0,3.66,6.79,4.43,6.79,0c0,0,0-18.58,0-26.24
			S339.49,343.76,337.13,343.76z"/>
	</g>
</g>
<g id="Number">
	<g>
		<path d="M376.27,356.47h-0.05l-2.71,1.46l-0.41-1.61l3.41-1.82h1.8v15.6h-2.04V356.47z"/>
	</g>
	<g>
		<path d="M391.82,397.16c0.6,0.38,1.99,0.98,3.46,0.98c2.71,0,3.55-1.73,3.53-3.02c-0.02-2.18-1.99-3.12-4.03-3.12h-1.18v-1.58
			h1.18c1.54,0,3.48-0.79,3.48-2.64c0-1.25-0.79-2.35-2.74-2.35c-1.25,0-2.45,0.55-3.12,1.03l-0.55-1.54c0.82-0.6,2.4-1.2,4.08-1.2
			c3.07,0,4.46,1.82,4.46,3.72c0,1.61-0.96,2.98-2.88,3.67v0.05c1.92,0.38,3.48,1.82,3.48,4.01c0,2.5-1.94,4.68-5.69,4.68
			c-1.75,0-3.29-0.55-4.06-1.06L391.82,397.16z"/>
		<path d="M413.75,383.98v1.39l-6.79,14.21h-2.18l6.77-13.8v-0.05h-7.63v-1.75H413.75z"/>
	</g>
	<line class="st2" x1="407.58" y1="359.22" x2="369.89" y2="396.9"/>
</g>
</svg>
