<?xml version="1.0" encoding="utf-8"?>
<!-- Generator: Adobe Illustrator 25.2.0, SVG Export Plug-In . SVG Version: 6.00 Build 0)  -->
<svg version="1.1" xmlns="http://www.w3.org/2000/svg" xmlns:xlink="http://www.w3.org/1999/xlink" x="0px" y="0px"
	 viewBox="0 0 480.01 206.76" style="enable-background:new 0 0 480.01 206.76;" xml:space="preserve">
<style type="text/css">
	.st0{stroke:#000000;stroke-width:1.0429;stroke-miterlimit:10;}
	.st1{fill:#FFFFFF;stroke:#000000;stroke-width:1.0429;stroke-miterlimit:10;}
	.st2{fill:#FF0000;}
	.st3{fill:#43B50F;}
</style>
<g id="People">
	<g id="_x31_">
		<circle class="st0" cx="37.82" cy="30.57" r="15.53"/>
		<path class="st0" d="M56.31,50.12H19.09c-4.64,0-18.56,3.5-18.56,18.56s0,51.62,0,51.62c0,8.71,13.35,7.2,13.35,0
			c0-4.93-0.09-45.08-0.09-45.08h3.5v123.13c0,10.99,18.37,10.04,18.37,0c0-10.04,0-71.98,0-71.98h4.07c0,0,0,61.94,0,71.98
			c0,10.04,18.37,10.99,18.37,0V75.22h3.5c0,0-0.09,40.16-0.09,45.08c0,7.2,13.35,8.71,13.35,0c0,0,0-36.56,0-51.62
			S60.95,50.12,56.31,50.12z"/>
	</g>
	<g id="_x32_">
		<circle class="st1" cx="138.97" cy="30.57" r="15.53"/>
		<path class="st1" d="M157.46,50.12h-37.22c-4.64,0-18.56,3.5-18.56,18.56s0,51.62,0,51.62c0,8.71,13.35,7.2,13.35,0
			c0-4.93-0.09-45.08-0.09-45.08h3.5v123.13c0,10.99,18.37,10.04,18.37,0c0-10.04,0-71.98,0-71.98h4.07c0,0,0,61.94,0,71.98
			c0,10.04,18.37,10.99,18.37,0V75.22h3.5c0,0-0.09,40.16-0.09,45.08c0,7.2,13.35,8.71,13.35,0c0,0,0-36.56,0-51.62
			S162.1,50.12,157.46,50.12z"/>
	</g>
	<g id="_x33_">
		<circle class="st1" cx="240.12" cy="30.57" r="15.53"/>
		<path class="st1" d="M258.61,50.12h-37.22c-4.64,0-18.56,3.5-18.56,18.56s0,51.62,0,51.62c0,8.71,13.35,7.2,13.35,0
			c0-4.93-0.09-45.08-0.09-45.08h3.5v123.13c0,10.99,18.37,10.04,18.37,0c0-10.04,0-71.98,0-71.98h4.07c0,0,0,61.94,0,71.98
			c0,10.04,18.37,10.99,18.37,0V75.22h3.5c0,0-0.09,40.16-0.09,45.08c0,7.2,13.35,8.71,13.35,0c0,0,0-36.56,0-51.62
			S263.25,50.12,258.61,50.12z"/>
	</g>
	<g id="_x34_">
		<circle class="st1" cx="341.28" cy="30.57" r="15.53"/>
		<path class="st1" d="M359.77,50.12h-37.22c-4.64,0-18.56,3.5-18.56,18.56s0,51.62,0,51.62c0,8.71,13.35,7.2,13.35,0
			c0-4.93-0.09-45.08-0.09-45.08h3.5v123.13c0,10.99,18.37,10.04,18.37,0c0-10.04,0-71.98,0-71.98h4.07c0,0,0,61.94,0,71.98
			c0,10.04,18.37,10.99,18.37,0V75.22h3.5c0,0-0.09,40.16-0.09,45.08c0,7.2,13.35,8.71,13.35,0c0,0,0-36.56,0-51.62
			S364.41,50.12,359.77,50.12z"/>
	</g>
	<g id="_x35_">
		<circle class="st1" cx="442.43" cy="30.57" r="15.53"/>
		<path class="st1" d="M460.92,50.12H423.7c-4.64,0-18.56,3.5-18.56,18.56s0,51.62,0,51.62c0,8.71,13.35,7.2,13.35,0
			c0-4.93-0.09-45.08-0.09-45.08h3.5v123.13c0,10.99,18.37,10.04,18.37,0c0-10.04,0-71.98,0-71.98h4.07c0,0,0,61.94,0,71.98
			c0,10.04,18.37,10.99,18.37,0V75.22h3.5c0,0-0.09,40.16-0.09,45.08c0,7.2,13.35,8.71,13.35,0c0,0,0-36.56,0-51.62
			S465.56,50.12,460.92,50.12z"/>
	</g>
</g>
<g id="Battery">
	<path class="st1" d="M46.63,9.97H28.76c-0.9,0-1.64-0.73-1.64-1.64V2.16c0-0.9,0.73-1.64,1.64-1.64h17.87
		c0.9,0,1.64,0.73,1.64,1.64v6.17C48.27,9.23,47.54,9.97,46.63,9.97z"/>
	<path class="st1" d="M51.39,3.2h-1.06c-0.23,0-0.42,0.19-0.42,0.42v3.24c0,0.23,0.19,0.42,0.42,0.42h1.06
		c0.23,0,0.42-0.19,0.42-0.42V3.62C51.81,3.39,51.62,3.2,51.39,3.2z"/>
	<path class="st1" d="M146.13,9.97h-17.87c-0.9,0-1.64-0.73-1.64-1.64V2.16c0-0.9,0.73-1.64,1.64-1.64h17.87
		c0.9,0,1.64,0.73,1.64,1.64v6.17C147.77,9.23,147.04,9.97,146.13,9.97z"/>
	<path class="st1" d="M150.89,3.2h-1.06c-0.23,0-0.42,0.19-0.42,0.42v3.24c0,0.23,0.19,0.42,0.42,0.42h1.06
		c0.23,0,0.42-0.19,0.42-0.42V3.62C151.31,3.39,151.12,3.2,150.89,3.2z"/>
	<rect x="28.22" y="2" class="st2" width="4.13" height="6.49"/>
	<rect x="127.74" y="2" class="st3" width="4.13" height="6.49"/>
	<rect x="132.67" y="2" class="st3" width="4.13" height="6.49"/>
	<rect x="137.6" y="2" class="st3" width="4.13" height="6.49"/>
	<rect x="142.52" y="2" class="st3" width="4.13" height="6.49"/>
	<path class="st1" d="M247.29,9.97h-17.87c-0.9,0-1.64-0.73-1.64-1.64V2.16c0-0.9,0.73-1.64,1.64-1.64h17.87
		c0.9,0,1.64,0.73,1.64,1.64v6.17C248.92,9.23,248.19,9.97,247.29,9.97z"/>
	<path class="st1" d="M252.04,3.2h-1.06c-0.23,0-0.42,0.19-0.42,0.42v3.24c0,0.23,0.19,0.42,0.42,0.42h1.06
		c0.23,0,0.42-0.19,0.42-0.42V3.62C252.47,3.39,252.28,3.2,252.04,3.2z"/>
	<rect x="228.9" y="2" class="st3" width="4.13" height="6.49"/>
	<rect x="233.82" y="2" class="st3" width="4.13" height="6.49"/>
	<rect x="238.75" y="2" class="st3" width="4.13" height="6.49"/>
	<rect x="243.68" y="2" class="st3" width="4.13" height="6.49"/>
	<path class="st1" d="M348.32,9.97h-17.87c-0.9,0-1.64-0.73-1.64-1.64V2.16c0-0.9,0.73-1.64,1.64-1.64h17.87
		c0.9,0,1.64,0.73,1.64,1.64v6.17C349.96,9.23,349.22,9.97,348.32,9.97z"/>
	<path class="st1" d="M353.08,3.2h-1.06c-0.23,0-0.42,0.19-0.42,0.42v3.24c0,0.23,0.19,0.42,0.42,0.42h1.06
		c0.23,0,0.42-0.19,0.42-0.42V3.62C353.5,3.39,353.31,3.2,353.08,3.2z"/>
	<rect x="329.93" y="2" class="st3" width="4.13" height="6.49"/>
	<rect x="334.86" y="2" class="st3" width="4.13" height="6.49"/>
	<rect x="339.78" y="2" class="st3" width="4.13" height="6.49"/>
	<rect x="344.71" y="2" class="st3" width="4.13" height="6.49"/>
	<path class="st1" d="M449.59,9.97h-17.87c-0.9,0-1.64-0.73-1.64-1.64V2.16c0-0.9,0.73-1.64,1.64-1.64h17.87
		c0.9,0,1.64,0.73,1.64,1.64v6.17C451.23,9.23,450.5,9.97,449.59,9.97z"/>
	<path class="st1" d="M454.35,3.2h-1.06c-0.23,0-0.42,0.19-0.42,0.42v3.24c0,0.23,0.19,0.42,0.42,0.42h1.06
		c0.23,0,0.42-0.19,0.42-0.42V3.62C454.77,3.39,454.58,3.2,454.35,3.2z"/>
	<rect x="431.2" y="2" class="st3" width="4.13" height="6.49"/>
	<rect x="436.13" y="2" class="st3" width="4.13" height="6.49"/>
	<rect x="441.06" y="2" class="st3" width="4.13" height="6.49"/>
	<rect x="445.98" y="2" class="st3" width="4.13" height="6.49"/>
</g>
</svg>
