<?xml version="1.0" encoding="utf-8"?>
<!-- Generator: Adobe Illustrator 25.2.0, SVG Export Plug-In . SVG Version: 6.00 Build 0)  -->
<svg version="1.1" id="Pie_Chart" xmlns="http://www.w3.org/2000/svg" xmlns:xlink="http://www.w3.org/1999/xlink" x="0px" y="0px"
	 viewBox="0 0 317.37 356.22" style="enable-background:new 0 0 317.37 356.22;" xml:space="preserve">
<style type="text/css">
	.st0{fill:#AD9668;stroke:#231F20;stroke-width:3.0422;stroke-miterlimit:10;}
	.st1{fill:#FFDE8D;stroke:#231F20;stroke-width:2.9561;stroke-miterlimit:10;}
	.st2{fill:#ED1C24;stroke:#231F20;stroke-width:3.0422;stroke-miterlimit:10;}
	.st3{fill:none;}
	.st4{font-family:'MyriadPro-Regular';}
	.st5{font-size:27px;}
</style>
<circle class="st0" cx="158.3" cy="186.36" r="156.78"/>
<path class="st1" d="M157.34,29.43c-0.93,0-1.86,0.02-2.78,0.04l2.78,152.31L49.39,74.28C21.95,101.83,4.99,139.82,4.99,181.77
	c0,84.14,68.21,152.34,152.34,152.34s152.34-68.21,152.34-152.34S241.47,29.43,157.34,29.43z"/>
<path class="st2" d="M157.34,181.77l-2.86-156.51c-42.18,0.82-80.29,18.29-108,46.12L157.34,181.77z"/>
<rect x="25.1" y="3.43" class="st3" width="70.83" height="26.15"/>
<text transform="matrix(1 0 0 1 26.2521 22.599)" class="st4 st5">12.3%</text>
<rect x="246.54" y="330.07" class="st3" width="70.83" height="26.15"/>
<text transform="matrix(1 0 0 1 247.6946 349.2389)" class="st4 st5">87.7%</text>
</svg>
