<?xml version="1.0" encoding="utf-8"?>
<!-- Generator: Adobe Illustrator 25.2.0, SVG Export Plug-In . SVG Version: 6.00 Build 0)  -->
<svg version="1.1" id="Icon" xmlns="http://www.w3.org/2000/svg" xmlns:xlink="http://www.w3.org/1999/xlink" x="0px" y="0px"
	 viewBox="0 0 356.79 485.79" style="enable-background:new 0 0 356.79 485.79;" xml:space="preserve">
<g>
	<circle cx="177.77" cy="46.98" r="46.98"/>
	<path d="M345.53,101.11l-133.68-4c-25.06,19.62-56.67,9.44-69.02,0L7.71,100.74c-5.81,0-7.45,3.81-7.63,8.17
		c0,0-0.18,14.71,0,20.71c0.18,5.99,2.54,8.17,7.63,8.54c0,0,98.99,5.27,104.62,5.45c5.63,0.18,11.08,1.27,11.08,11.99
		c0,0,11.26,312.58,11.26,320.57s3.63,9.63,9.63,9.63c0,0,22.34,0,27.61,0c5.27,0,7.63-4.54,7.81-8.9c0,0,0-64.48,0-71.92
		c-8.35,0.36-13.99-4.72-17.44-9.26c0,0-6.54-11.44-15.07-26.34c-8.54-14.89-6.36-26.88,4.72-35.05l28.88-16.16c0,0,0-18.16,0-36.69
		c6.36-15.8,19.07-8.72,22.34-5.09c0,0,16.53,18.71,21.07,24.52c4.54,5.81,0.73,11.26-3.27,13.08c0,0-51.76,28.88-57.94,32.15
		c-6.18,3.27-6.18,7.99-3.81,12.35c0,0,9.08,15.8,13.62,24.34c4.54,8.54,8.72,7.08,14.17,4c0,0,49.58-27.79,72.29-41.05
		c22.7-13.26,19.43-49.04,11.81-61.57c0,0-24.52-34.33-29.97-41.29c-5.45-6.97-7.63-11.38-7.81-17.92c0,0,2.54-63.75,2.72-70.83
		c0.18-7.08,3.09-9.81,11.08-10.53c0,0,86.09-5.09,97.35-5.09c11.26,0,12.35-5.09,12.35-11.26c0,0,0-4.72,0-13.8
		C356.79,104.37,353.89,101.83,345.53,101.11z M208.5,161.54l-0.03,0.03c-1.41,2.47-3.45,4.52-5.91,5.95l-22.91,23.06l-22.58-22.72
		c-5.12-2.69-8.62-8.05-8.62-14.24c0-8.88,7.2-16.07,16.07-16.07c6.85,0,12.69,4.29,15,10.33c2.31-6.04,8.15-10.33,15-10.33
		c8.88,0,16.07,7.2,16.07,16.07c0,2.88-0.77,5.58-2.1,7.92H208.5z"/>
</g>
</svg>
