<?xml version="1.0" encoding="utf-8"?>
<!-- Generator: Adobe Illustrator 25.2.0, SVG Export Plug-In . SVG Version: 6.00 Build 0)  -->
<svg version="1.1" id="Icon" xmlns="http://www.w3.org/2000/svg" xmlns:xlink="http://www.w3.org/1999/xlink" x="0px" y="0px"
	 viewBox="0 0 512 508" style="enable-background:new 0 0 512 508;" xml:space="preserve">
<path d="M341.54,346.8l-58.09,113.68l-8.99-73.01l14.44-12.53h-66.2l14.44,12.26l-8.72,73.29L170.3,348.13
	C76.21,361.09,0,400.5,0,508h512C512,398.81,435.2,358.76,341.54,346.8z"/>
<path d="M198.18,315h114.7c0,14.44-8.45,22.88-19.34,22.88c-2.45,16.89-55.3,35.42-75.74,0C211.25,337.88,198.18,332.16,198.18,315z
	"/>
<rect x="198.18" y="294.84" width="114.7" height="11.99"/>
<path d="M348.36,189.95c0-51.01-41.35-92.36-92.36-92.36s-92.36,41.35-92.36,92.36c0,29.12,13.48,55.08,34.53,72.01v24.7h114.7
	v-23.95C334.47,245.82,348.36,219.5,348.36,189.95z"/>
<rect x="239.31" width="32.69" height="86.15"/>
<rect x="346.68" y="38.85" transform="matrix(0.7071 0.7071 -0.7071 0.7071 164.2605 -232.7014)" width="32.69" height="86.15"/>
<rect x="131.63" y="38.14" transform="matrix(0.7071 -0.7071 0.7071 0.7071 -14.0887 128.4269)" width="32.69" height="86.15"/>
</svg>
