<?xml version="1.0" encoding="utf-8"?>
<!-- Generator: Adobe Illustrator 25.2.0, SVG Export Plug-In . SVG Version: 6.00 Build 0)  -->
<svg version="1.1" id="Layer_1" xmlns="http://www.w3.org/2000/svg" xmlns:xlink="http://www.w3.org/1999/xlink" x="0px" y="0px"
	 viewBox="0 0 511.83 108.12" style="enable-background:new 0 0 511.83 108.12;" xml:space="preserve">
<style type="text/css">
	.st0{fill:#6EB7FF;stroke:#000000;stroke-width:0.5711;stroke-miterlimit:10;}
	.st1{fill:#F478D1;stroke:#000000;stroke-width:0.4469;stroke-miterlimit:10;}
</style>
<g id="_x33__4_">
	<circle class="st0" cx="491.26" cy="11.64" r="8.51"/>
	<path class="st0" d="M501.38,22.34H481c-2.54,0-10.17,1.92-10.17,10.17c0,8.25,0,28.27,0,28.27c0,4.77,7.31,3.94,7.31,0
		c0-2.7-0.05-24.69-0.05-24.69h1.92v67.43c0,6.02,10.06,5.5,10.06,0c0-5.5,0-39.42,0-39.42h2.23c0,0,0,33.92,0,39.42
		c0,5.5,10.06,6.02,10.06,0V36.09h1.92c0,0-0.05,21.99-0.05,24.69c0,3.94,7.31,4.77,7.31,0c0,0,0-20.02,0-28.27
		C511.55,24.26,503.92,22.34,501.38,22.34z"/>
</g>
<g>
	
		<ellipse transform="matrix(0.7071 -0.7071 0.7071 0.7071 120.3429 313.8044)" class="st1" cx="438.97" cy="11.64" rx="8.51" ry="8.51"/>
	<path class="st1" d="M459.26,60.78c0,0,0-20.02,0-28.27c0-8.25-7.62-10.17-10.17-10.17h-20.38c-2.54,0-10.17,1.92-10.17,10.17
		c0,8.25,0,28.27,0,28.27c0,4.77,7.31,3.94,7.31,0c0-2.7-0.05-24.69-0.05-24.69h1.92l1.91,20.51L419.3,79.46h8.43v24.06
		c0,6.02,10.06,5.5,10.06,0V79.46h2.23v24.06c0,5.5,10.06,6.02,10.06,0V79.46h8.56l-10.57-22.77l2.01-20.6H452
		c0,0-0.05,21.99-0.05,24.69C451.95,64.72,459.26,65.55,459.26,60.78z"/>
</g>
<g>
	
		<ellipse transform="matrix(0.7071 -0.7071 0.7071 0.7071 105.2843 276.7234)" class="st1" cx="386.68" cy="11.27" rx="8.51" ry="8.51"/>
	<path class="st1" d="M406.97,60.41c0,0,0-20.02,0-28.27c0-8.25-7.62-10.17-10.17-10.17h-20.38c-2.54,0-10.17,1.92-10.17,10.17
		c0,8.25,0,28.27,0,28.27c0,4.77,7.31,3.94,7.31,0c0-2.7-0.05-24.69-0.05-24.69h1.92l1.91,20.51l-10.33,22.86h8.43v24.06
		c0,6.02,10.06,5.5,10.06,0V79.09h2.23v24.06c0,5.5,10.06,6.02,10.06,0V79.09h8.56l-10.57-22.77l2.01-20.6h1.92
		c0,0-0.05,21.99-0.05,24.69C399.66,64.36,406.97,65.19,406.97,60.41z"/>
</g>
<g>
	
		<ellipse transform="matrix(0.7071 -0.7071 0.7071 0.7071 90.2258 239.6424)" class="st1" cx="334.39" cy="10.91" rx="8.51" ry="8.51"/>
	<path class="st1" d="M354.68,60.05c0,0,0-20.02,0-28.27c0-8.25-7.62-10.17-10.17-10.17h-20.38c-2.54,0-10.17,1.92-10.17,10.17
		c0,8.25,0,28.27,0,28.27c0,4.77,7.31,3.94,7.31,0c0-2.7-0.05-24.69-0.05-24.69h1.92l1.91,20.51l-10.33,22.86h8.43v24.06
		c0,6.02,10.06,5.5,10.06,0V78.73h2.23v24.06c0,5.5,10.06,6.02,10.06,0V78.73h8.56l-10.57-22.77l2.01-20.6h1.92
		c0,0-0.05,21.99-0.05,24.69C347.37,63.99,354.68,64.82,354.68,60.05z"/>
</g>
<g>
	
		<ellipse transform="matrix(0.7071 -0.7071 0.7071 0.7071 75.1673 202.5613)" class="st1" cx="282.1" cy="10.55" rx="8.51" ry="8.51"/>
	<path class="st1" d="M302.39,59.69c0,0,0-20.02,0-28.27c0-8.25-7.62-10.17-10.17-10.17h-20.38c-2.54,0-10.17,1.92-10.17,10.17
		c0,8.25,0,28.27,0,28.27c0,4.77,7.31,3.94,7.31,0c0-2.7-0.05-24.69-0.05-24.69h1.92l1.91,20.51l-10.33,22.86h8.43v24.06
		c0,6.02,10.06,5.5,10.06,0V78.37h2.23v24.06c0,5.5,10.06,6.02,10.06,0V78.37h8.56L291.2,55.6l2.01-20.6h1.92
		c0,0-0.05,21.99-0.05,24.69C295.08,63.63,302.39,64.46,302.39,59.69z"/>
</g>
<g>
	
		<ellipse transform="matrix(0.7071 -0.7071 0.7071 0.7071 60.1087 165.4803)" class="st1" cx="229.81" cy="10.18" rx="8.51" ry="8.51"/>
	<path class="st1" d="M250.1,59.32c0,0,0-20.02,0-28.27c0-8.25-7.62-10.17-10.17-10.17h-20.38c-2.54,0-10.17,1.92-10.17,10.17
		c0,8.25,0,28.27,0,28.27c0,4.77,7.31,3.94,7.31,0c0-2.7-0.05-24.69-0.05-24.69h1.92l1.91,20.51L210.14,78h8.43v24.06
		c0,6.02,10.06,5.5,10.06,0V78h2.23v24.06c0,5.5,10.06,6.02,10.06,0V78h8.56l-10.57-22.77l2.01-20.6h1.92c0,0-0.05,21.99-0.05,24.69
		C242.79,63.27,250.1,64.1,250.1,59.32z"/>
</g>
<g>
	
		<ellipse transform="matrix(0.7071 -0.7071 0.7071 0.7071 45.0502 128.3993)" class="st1" cx="177.52" cy="9.82" rx="8.51" ry="8.51"/>
	<path class="st1" d="M197.81,58.96c0,0,0-20.02,0-28.27c0-8.25-7.62-10.17-10.17-10.17h-20.38c-2.54,0-10.17,1.92-10.17,10.17
		c0,8.25,0,28.27,0,28.27c0,4.77,7.31,3.94,7.31,0c0-2.7-0.05-24.69-0.05-24.69h1.92l1.91,20.51l-10.33,22.86h8.43v24.06
		c0,6.02,10.06,5.5,10.06,0V77.64h2.23v24.06c0,5.5,10.06,6.02,10.06,0V77.64h8.56l-10.57-22.77l2.01-20.6h1.92
		c0,0-0.05,21.99-0.05,24.69C190.5,62.9,197.81,63.73,197.81,58.96z"/>
</g>
<g>
	
		<ellipse transform="matrix(0.7071 -0.7071 0.7071 0.7071 29.9916 91.3183)" class="st1" cx="125.23" cy="9.46" rx="8.51" ry="8.51"/>
	<path class="st1" d="M145.52,58.6c0,0,0-20.02,0-28.27c0-8.25-7.62-10.17-10.17-10.17h-20.38c-2.54,0-10.17,1.92-10.17,10.17
		c0,8.25,0,28.27,0,28.27c0,4.77,7.31,3.94,7.31,0c0-2.7-0.05-24.69-0.05-24.69h1.92l1.91,20.51l-10.33,22.86h8.43v24.06
		c0,6.02,10.06,5.5,10.06,0V77.28h2.23v24.06c0,5.5,10.06,6.02,10.06,0V77.28h8.56l-10.57-22.77l2.01-20.6h1.92
		c0,0-0.05,21.99-0.05,24.69C138.21,62.54,145.52,63.37,145.52,58.6z"/>
</g>
<g>
	
		<ellipse transform="matrix(0.7071 -0.7071 0.7071 0.7071 14.9331 54.2372)" class="st1" cx="72.94" cy="9.09" rx="8.51" ry="8.51"/>
	<path class="st1" d="M93.23,58.23c0,0,0-20.02,0-28.27c0-8.25-7.62-10.17-10.17-10.17H62.68c-2.54,0-10.17,1.92-10.17,10.17
		c0,8.25,0,28.27,0,28.27c0,4.77,7.31,3.94,7.31,0c0-2.7-0.05-24.69-0.05-24.69h1.92l1.91,20.51L53.27,76.91h8.43v24.06
		c0,6.02,10.06,5.5,10.06,0V76.91h2.23v24.06c0,5.5,10.06,6.02,10.06,0V76.91h8.56L82.04,54.15l2.01-20.6h1.92
		c0,0-0.05,21.99-0.05,24.69C85.92,62.18,93.23,63.01,93.23,58.23z"/>
</g>
<g>
	
		<ellipse transform="matrix(0.7071 -0.7071 0.7071 0.7071 -0.1254 17.1562)" class="st1" cx="20.65" cy="8.73" rx="8.51" ry="8.51"/>
	<path class="st1" d="M40.94,57.87c0,0,0-20.02,0-28.27c0-8.25-7.62-10.17-10.17-10.17H10.39c-2.54,0-10.17,1.92-10.17,10.17
		c0,8.25,0,28.27,0,28.27c0,4.77,7.31,3.94,7.31,0c0-2.7-0.05-24.69-0.05-24.69H9.4l1.91,20.51L0.98,76.55H9.4v24.06
		c0,6.02,10.06,5.5,10.06,0V76.55h2.23v24.06c0,5.5,10.06,6.02,10.06,0V76.55h8.56L29.75,53.78l2.01-20.6h1.92
		c0,0-0.05,21.99-0.05,24.69C33.63,61.81,40.94,62.64,40.94,57.87z"/>
</g>
</svg>
