<?xml version="1.0" encoding="utf-8"?>
<!-- Generator: Adobe Illustrator 25.2.0, SVG Export Plug-In . SVG Version: 6.00 Build 0)  -->
<svg version="1.1" id="Stomach_1_" xmlns="http://www.w3.org/2000/svg" xmlns:xlink="http://www.w3.org/1999/xlink" x="0px" y="0px"
	 viewBox="0 0 322.87 322.4" style="enable-background:new 0 0 322.87 322.4;" xml:space="preserve">
<style type="text/css">
	.st0{fill:#FF5A78;}
	.st1{fill:#D73267;}
	.st2{fill:none;stroke:#000000;stroke-width:10;stroke-miterlimit:10;}
	.st3{display:none;fill:none;stroke:#000000;stroke-width:10;stroke-linecap:round;stroke-miterlimit:10;}
</style>
<g id="Stomach">
	<path class="st0" d="M7.98,317.4h29.79c-2.91-46.5,7.63-94.45,70.11-46.86c87.18,71.74,207.05,45.59,212.86-114.06
		c3.24-88.94-66.11-104.62-66.11-104.62c-12.35-3.63-41.05-4.72-41.05-4.72C203.05,36.97,191.12,5,191.12,5h-41.11
		c-1.45,21.07,17.8,52.67,17.8,52.67c-27.24,25.06-40.32,58.85-8.72,121.33s-27.61,45.04-35.24,41.05S7.62,151.75,7.98,317.4z"/>
	<path class="st1" d="M14.04,259.02c16.19-10.46,30.13-6.72,28.71,4.8l-7.79,51.8l-26.98-0.04L14.04,259.02z"/>
	<path class="st1" d="M212.26,307.78c37.83-35.52,142.81-110.99,42.37-255.92l30.33,19.34l23.87,31.49l8.93,42.05v40.61l-5.45,29.3
		l-20.81,46.43l-20.7,22.07l-20.12,12.87L212.26,307.78z"/>
	<path class="st2" d="M5,317.4h29.79c-2.91-46.5,7.63-94.45,70.11-46.86c87.18,71.74,207.05,45.59,212.86-114.06
		C321,67.54,251.65,51.86,251.65,51.86c-12.35-3.63-41.05-4.72-41.05-4.72C200.07,36.97,188.14,5,188.14,5h-41.11
		c-1.45,21.07,17.8,52.67,17.8,52.67c-27.24,25.06-40.32,58.85-8.72,121.33s-27.61,45.04-35.24,41.05S4.64,151.75,5,317.4z"/>
	<path class="st3" d="M124.74,220.46c30.54,14.65,56.69,16.29,77.76,5.39"/>
</g>
</svg>
