<?xml version="1.0" encoding="utf-8"?>
<!-- Generator: Adobe Illustrator 25.2.0, SVG Export Plug-In . SVG Version: 6.00 Build 0)  -->
<svg version="1.1" id="_x32__people" xmlns="http://www.w3.org/2000/svg" xmlns:xlink="http://www.w3.org/1999/xlink" x="0px"
	 y="0px" viewBox="0 0 213.4 208.08" style="enable-background:new 0 0 213.4 208.08;" xml:space="preserve">
<style type="text/css">
	.st0{stroke:#000000;stroke-width:0.7513;stroke-miterlimit:10;}
	.st1{stroke:#000000;stroke-width:1.0429;stroke-miterlimit:10;}
</style>
<g id="_x31_">
	<g>
		<circle class="st0" cx="27.15" cy="80.15" r="11.19"/>
		<path class="st0" d="M40.56,94.24H13.75c-3.34,0-13.37,2.52-13.37,13.37c0,10.85,0,37.18,0,37.18c0,6.28,9.62,5.19,9.62,0
			c0-3.55-0.07-32.48-0.07-32.48h2.52v88.7c0,7.91,13.24,7.23,13.24,0c0-7.23,0-51.85,0-51.85h2.93c0,0,0,44.62,0,51.85
			c0,7.23,13.24,7.91,13.24,0v-88.7h2.52c0,0-0.07,28.93-0.07,32.48c0,5.19,9.62,6.28,9.62,0c0,0,0-26.34,0-37.18
			C53.93,96.76,43.9,94.24,40.56,94.24z"/>
	</g>
	<g id="_x31__1_">
		<circle class="st1" cx="175.83" cy="31.89" r="15.53"/>
		<path class="st1" d="M194.32,51.45H157.1c-4.64,0-18.56,3.5-18.56,18.56c0,15.06,0,51.62,0,51.62c0,8.71,13.35,7.2,13.35,0
			c0-4.93-0.09-45.08-0.09-45.08h3.5v123.13c0,10.99,18.37,10.04,18.37,0c0-10.04,0-71.98,0-71.98h4.07c0,0,0,61.94,0,71.98
			c0,10.04,18.37,10.99,18.37,0V76.55h3.5c0,0-0.09,40.16-0.09,45.08c0,7.2,13.35,8.71,13.35,0c0,0,0-36.56,0-51.62
			C212.88,54.95,198.96,51.45,194.32,51.45z"/>
	</g>
</g>
<g>
	<path d="M23.83,57.17h-0.02l-1.36,0.73l-0.2-0.8l1.7-0.91h0.9v7.8h-1.02V57.17z"/>
	<path d="M27.69,63.99v-0.65l0.83-0.8c1.99-1.9,2.89-2.9,2.9-4.08c0-0.79-0.38-1.52-1.55-1.52c-0.71,0-1.3,0.36-1.66,0.66
		l-0.34-0.74c0.54-0.46,1.31-0.79,2.21-0.79c1.68,0,2.39,1.15,2.39,2.27c0,1.44-1.04,2.6-2.69,4.19l-0.62,0.58v0.02h3.5v0.88H27.69z
		"/>
</g>
<g>
	<path d="M170.09,10.04V9.4l0.83-0.8c1.99-1.9,2.89-2.9,2.9-4.08c0-0.79-0.38-1.52-1.55-1.52c-0.71,0-1.29,0.36-1.66,0.66
		l-0.34-0.74c0.54-0.46,1.31-0.79,2.21-0.79c1.68,0,2.39,1.15,2.39,2.27c0,1.44-1.04,2.6-2.69,4.19l-0.62,0.58v0.02h3.5v0.88H170.09
		z"/>
	<path d="M180.9,3.14h-2.97l-0.3,2c0.18-0.02,0.35-0.05,0.64-0.05c0.6,0,1.2,0.13,1.68,0.42c0.61,0.35,1.12,1.02,1.12,2
		c0,1.52-1.21,2.66-2.9,2.66c-0.85,0-1.57-0.24-1.94-0.48l0.26-0.8c0.32,0.19,0.96,0.43,1.67,0.43c1,0,1.85-0.65,1.85-1.69
		c-0.01-1.01-0.68-1.73-2.24-1.73c-0.44,0-0.79,0.05-1.08,0.08l0.5-3.74h3.73V3.14z"/>
</g>
</svg>
