<?xml version="1.0" encoding="utf-8"?>
<!-- Generator: Adobe Illustrator 25.2.0, SVG Export Plug-In . SVG Version: 6.00 Build 0)  -->
<svg version="1.1" id="Drawing" xmlns="http://www.w3.org/2000/svg" xmlns:xlink="http://www.w3.org/1999/xlink" x="0px" y="0px"
	 viewBox="0 0 512 511.19" style="enable-background:new 0 0 512 511.19;" xml:space="preserve">
<path d="M480.51,286.44c-17.8,0-26.52,10.9-26.52,20.34v21.8h-67.93c0,0-71.92-110.07-77.37-117.33c-5.45-7.27-10.53-9.44-17.8-9.81
	h-73.38c-7.27,0.36-12.35,2.54-17.8,9.81c-5.45,7.27-77.37,117.33-77.37,117.33H54.42v-21.8c0-9.44-8.72-20.34-26.52-20.34
	c-17.8,0-27.72,10.53-27.72,19.62c0,9.08,0,65.02,0,65.02c0,14.17,13.19,20.34,23.73,20.34c10.53,0,29.79,0.73,29.79-19.62
	s0.73-22.88,0.73-22.88h141.67v23.25l-51.22-7.27c-15.26-1.45-29.79,6.18-27.61,24.7c2.18,18.53,9.44,102.8,9.44,102.8
	c2.91,23.97,43.59,23.97,44.68-4l-6.9-76.28l89.72,13.08l89.72-13.08l-6.9,76.28c1.09,27.97,41.77,27.97,44.68,4
	c0,0,7.27-84.27,9.44-102.8c2.18-18.53-12.35-26.15-27.61-24.7l-51.22,7.27v-23.25H454c0,0,0.73,2.54,0.73,22.88
	s19.25,19.62,29.79,19.62c10.53,0,23.73-6.18,23.73-20.34c0,0,0-55.94,0-65.02C508.23,296.98,498.31,286.44,480.51,286.44z
	 M195.72,328.58h-31.24l31.24-46.5V328.58z M312.69,328.58v-46.5l31.24,46.5H312.69z"/>
<circle cx="254.21" cy="142.05" r="51.22"/>
<path d="M130.61,220.6c0-11.22,16.07-29.42,27.52-30.79c11.44-1.36,14.71-22.61-5.72-17.44s-40.05,28.33-39.23,48.22
	C113.18,231.23,130.61,231.23,130.61,220.6z"/>
<path d="M136.33,82.48c-9.54-3.81-5.27-20.43,8.17-16.35c13.89,5.45,36.23,22.61,40.32,31.06c4.09,8.45-7.36,19.62-15.26,9.54
	C161.67,96.64,144.78,86.02,136.33,82.48z"/>
<path d="M379.09,220.6c0-11.22-16.07-29.42-27.52-30.79c-11.44-1.36-14.71-22.61,5.72-17.44s40.05,28.33,39.23,48.22
	C396.53,231.23,379.09,231.23,379.09,220.6z"/>
<path d="M373.37,82.48c9.54-3.81,5.27-20.43-8.17-16.35c-13.89,5.45-36.23,22.61-40.32,31.06c-4.09,8.45,7.36,19.62,15.26,9.54
	C348.03,96.64,364.92,86.02,373.37,82.48z"/>
<g>
	<path d="M167.71,9.69h-0.07l-4.07,2.2l-0.61-2.41l5.11-2.74h2.7v23.4h-3.06V9.69z"/>
	<path d="M193.27,9.4h-8.93l-0.9,6.01c0.54-0.07,1.04-0.14,1.91-0.14c1.8,0,3.6,0.4,5.04,1.26c1.84,1.04,3.35,3.06,3.35,6.01
		c0,4.57-3.64,7.99-8.71,7.99c-2.56,0-4.72-0.72-5.83-1.44l0.79-2.41c0.97,0.58,2.88,1.3,5,1.3c2.99,0,5.54-1.94,5.54-5.08
		c-0.04-3.02-2.05-5.18-6.73-5.18c-1.33,0-2.38,0.14-3.24,0.25l1.51-11.23h11.19V9.4z"/>
	<path d="M213.32,18.18c0,7.96-2.95,12.35-8.14,12.35c-4.57,0-7.67-4.28-7.74-12.02c0-7.85,3.38-12.17,8.13-12.17
		C210.51,6.34,213.32,10.73,213.32,18.18z M200.61,18.54c0,6.08,1.87,9.54,4.75,9.54c3.24,0,4.79-3.78,4.79-9.75
		c0-5.76-1.48-9.54-4.75-9.54C202.63,8.79,200.61,12.17,200.61,18.54z"/>
	<path d="M224.88,17.43c0-1.8-0.04-3.28-0.14-4.72h2.77l0.14,2.81h0.11c0.97-1.66,2.59-3.2,5.47-3.2c2.38,0,4.18,1.44,4.93,3.49
		h0.07c0.54-0.97,1.22-1.73,1.94-2.27c1.04-0.79,2.2-1.22,3.85-1.22c2.3,0,5.72,1.51,5.72,7.56v10.26h-3.1v-9.86
		c0-3.35-1.22-5.36-3.78-5.36c-1.8,0-3.2,1.33-3.74,2.88c-0.14,0.43-0.25,1.01-0.25,1.58v10.76h-3.1V19.69
		c0-2.77-1.22-4.79-3.64-4.79c-1.98,0-3.42,1.58-3.92,3.17c-0.18,0.47-0.25,1.01-0.25,1.55v10.51h-3.1V17.43z"/>
	<path d="M258.43,7.81c0.04,1.08-0.76,1.94-2.02,1.94c-1.12,0-1.91-0.86-1.91-1.94c0-1.12,0.83-1.98,1.98-1.98
		C257.67,5.84,258.43,6.7,258.43,7.81z M254.9,30.13V12.71h3.17v17.42H254.9z"/>
	<path d="M263.33,17.43c0-1.8-0.04-3.28-0.14-4.72h2.81l0.18,2.88h0.07c0.86-1.66,2.88-3.28,5.76-3.28c2.41,0,6.16,1.44,6.16,7.42
		v10.4h-3.17V20.09c0-2.81-1.04-5.15-4.03-5.15c-2.09,0-3.71,1.48-4.25,3.24c-0.14,0.4-0.22,0.94-0.22,1.48v10.47h-3.17V17.43z"/>
	<path d="M297.88,25.38c0,1.8,0.04,3.38,0.14,4.75h-2.81l-0.18-2.84h-0.07c-0.83,1.4-2.66,3.24-5.76,3.24
		c-2.74,0-6.01-1.51-6.01-7.63V12.71h3.17v9.65c0,3.31,1.01,5.54,3.89,5.54c2.12,0,3.6-1.48,4.17-2.88
		c0.18-0.47,0.29-1.04,0.29-1.62V12.71h3.17V25.38z"/>
	<path d="M306.96,7.71v5h4.54v2.41h-4.54v9.4c0,2.16,0.61,3.38,2.38,3.38c0.83,0,1.44-0.11,1.83-0.22l0.14,2.38
		c-0.61,0.25-1.58,0.43-2.81,0.43c-1.48,0-2.66-0.47-3.42-1.33c-0.9-0.94-1.22-2.48-1.22-4.54v-9.5h-2.7v-2.41h2.7V8.54L306.96,7.71
		z"/>
	<path d="M316.6,22c0.07,4.28,2.81,6.05,5.98,6.05c2.27,0,3.63-0.4,4.82-0.9l0.54,2.27c-1.12,0.5-3.02,1.08-5.8,1.08
		c-5.36,0-8.57-3.53-8.57-8.78s3.1-9.4,8.17-9.4c5.69,0,7.2,5,7.2,8.21c0,0.65-0.07,1.15-0.11,1.48H316.6z M325.89,19.73
		c0.04-2.02-0.83-5.15-4.39-5.15c-3.2,0-4.61,2.95-4.86,5.15H325.89z"/>
	<path d="M332.44,26.89c0.94,0.61,2.59,1.26,4.18,1.26c2.3,0,3.38-1.15,3.38-2.59c0-1.51-0.9-2.34-3.24-3.2
		c-3.13-1.12-4.61-2.84-4.61-4.93c0-2.81,2.27-5.11,6.01-5.11c1.76,0,3.31,0.5,4.28,1.08l-0.79,2.3c-0.68-0.43-1.94-1.01-3.56-1.01
		c-1.87,0-2.92,1.08-2.92,2.38c0,1.44,1.04,2.09,3.31,2.95c3.02,1.15,4.57,2.66,4.57,5.26c0,3.06-2.38,5.22-6.52,5.22
		c-1.91,0-3.67-0.47-4.89-1.19L332.44,26.89z"/>
	<path d="M346.52,28.3c0-1.3,0.9-2.23,2.12-2.23c1.3,0,2.12,0.94,2.12,2.23c0,1.26-0.83,2.23-2.12,2.23
		C347.38,30.53,346.52,29.56,346.52,28.3z M347.42,23.15l-0.5-17.28h3.46l-0.5,17.28H347.42z"/>
</g>
</svg>
