<?xml version="1.0" encoding="utf-8"?>
<!-- Generator: Adobe Illustrator 25.2.0, SVG Export Plug-In . SVG Version: 6.00 Build 0)  -->
<svg version="1.1" id="Person" xmlns="http://www.w3.org/2000/svg" xmlns:xlink="http://www.w3.org/1999/xlink" x="0px" y="0px"
	 viewBox="0 0 508.55 501.22" style="enable-background:new 0 0 508.55 501.22;" xml:space="preserve">
<style type="text/css">
	.st0{fill:#FFFFFF;stroke:#000000;stroke-miterlimit:10;}
	.st1{fill:none;}
	.st2{stroke:#FFFFFF;stroke-miterlimit:10;}
</style>
<circle class="st0" cx="254.03" cy="77.06" r="51.22"/>
<path d="M136.15,17.49c-9.54-3.81-5.27-20.43,8.17-16.35c13.89,5.45,36.23,22.61,40.32,31.06c4.09,8.45-7.36,19.62-15.26,9.54
	C161.49,31.65,144.6,21.03,136.15,17.49z"/>
<path class="st0" d="M378.91,155.61c0-11.22-16.07-29.42-27.52-30.79c-11.44-1.36-14.71-22.61,5.72-17.44
	c20.43,5.18,40.05,28.33,39.23,48.22C396.34,166.24,378.91,166.24,378.91,155.61z"/>
<path class="st0" d="M373.19,17.49c9.54-3.81,5.27-20.43-8.17-16.35c-13.89,5.45-36.23,22.61-40.32,31.06s7.36,19.62,15.26,9.54
	S364.74,21.03,373.19,17.49z"/>
<polygon class="st1" points="195.54,263.59 195.54,217.09 164.3,263.59 "/>
<path class="st1" d="M144.69,299.92l51.22,7.27v-23.25h-67.72v18.51C132.95,300.16,138.76,299.35,144.69,299.92z"/>
<polygon class="st1" points="312.51,263.59 343.75,263.59 312.51,217.09 "/>
<path d="M117.08,324.62c2.18,18.53,9.44,102.8,9.44,102.8c0.26,2.17,0.84,4.13,1.66,5.9V302.44
	C120.67,306.04,115.75,313.28,117.08,324.62z"/>
<path d="M122.17,263.59H54.24v-21.8c0-9.44-8.72-20.34-26.52-20.34C9.92,221.45,0,231.99,0,241.07c0,9.08,0,65.02,0,65.02
	c0,14.17,13.19,20.34,23.73,20.34c10.53,0,29.79,0.73,29.79-19.62s0.73-22.88,0.73-22.88h73.95v-29.55
	C124.43,260.12,122.17,263.59,122.17,263.59z"/>
<path class="st0" d="M480.33,221.45c-17.8,0-26.52,10.9-26.52,20.34v21.8h-67.93c0,0-71.92-110.07-77.37-117.33
	c-5.45-7.27-10.53-9.44-17.8-9.81h-73.38c-7.27,0.36-12.35,2.54-17.8,9.81c-4.48,5.98-53.95,81.52-71.35,108.13v29.55h67.72v23.25
	l-51.22-7.27c-5.92-0.56-11.73,0.25-16.5,2.53v130.88c8.28,17.84,42.03,15.54,43.02-9.9l-6.9-76.28l89.72,13.08l89.72-13.08
	l-6.9,76.28c1.09,27.97,41.77,27.97,44.68,4c0,0,7.27-84.27,9.44-102.8c2.18-18.53-12.35-26.15-27.61-24.7l-51.22,7.27v-23.25
	h141.67c0,0,0.73,2.54,0.73,22.88s19.25,19.62,29.79,19.62c10.53,0,23.73-6.18,23.73-20.34c0,0,0-55.94,0-65.02
	C508.05,231.99,498.13,221.45,480.33,221.45z M195.54,263.59H164.3l31.24-46.5V263.59z M312.51,263.59v-46.5l31.24,46.5H312.51z"/>
<path d="M112.99,155.61c0,8.24,10.48,10.08,15.19,5.54v-39.11C118.84,131.62,112.52,144.16,112.99,155.61z"/>
<path class="st0" d="M130.43,155.61c0-11.22,16.07-29.42,27.52-30.79s14.71-22.61-5.72-17.44c-8.66,2.19-17.17,7.62-24.04,14.66
	v39.11C129.55,159.84,130.43,158,130.43,155.61z"/>
<g>
	<rect x="106.23" y="472.39" class="st2" width="28.33" height="28.33"/>
	<rect x="257.11" y="472.39" class="st0" width="28.33" height="28.33"/>
	<g>
		<path d="M138.9,485.94v-0.84h7.23v0.84H138.9z M138.9,488.69v-0.84h7.23v0.84H138.9z"/>
		<path d="M152.96,482.71h-0.03l-1.58,0.85l-0.24-0.94l1.99-1.06h1.05v9.1h-1.19V482.71z"/>
		<path d="M162.66,482.43c-0.25-0.01-0.57,0-0.92,0.06c-1.93,0.32-2.96,1.74-3.17,3.24h0.04c0.43-0.57,1.19-1.05,2.2-1.05
			c1.61,0,2.75,1.16,2.75,2.94c0,1.67-1.13,3.21-3.03,3.21c-1.95,0-3.22-1.51-3.22-3.88c0-1.79,0.64-3.21,1.54-4.1
			c0.76-0.74,1.77-1.21,2.91-1.34c0.36-0.06,0.67-0.07,0.9-0.07V482.43z M162.31,487.68c0-1.3-0.74-2.09-1.88-2.09
			c-0.74,0-1.43,0.46-1.77,1.12c-0.08,0.14-0.14,0.32-0.14,0.55c0.03,1.5,0.71,2.61,2,2.61
			C161.6,489.86,162.31,488.98,162.31,487.68z"/>
		<path d="M168.75,484.12c0,1.92-1.01,2.87-2.19,2.87c-1.13,0-2.12-0.91-2.13-2.75c0-1.82,0.99-2.84,2.2-2.84
			C167.91,481.4,168.75,482.38,168.75,484.12z M165.42,484.21c-0.03,1.16,0.41,2.04,1.18,2.04c0.81,0,1.18-0.87,1.18-2.07
			c0-1.11-0.32-2.03-1.18-2.03C165.82,482.15,165.42,483.06,165.42,484.21z M166.48,490.82l5.35-9.41h0.78l-5.35,9.41H166.48z
			 M174.68,487.89c0,1.92-1.01,2.87-2.17,2.87c-1.13,0-2.12-0.91-2.13-2.73c0-1.83,0.99-2.86,2.2-2.86
			C173.85,485.17,174.68,486.15,174.68,487.89z M171.34,487.97c-0.01,1.16,0.43,2.04,1.19,2.04c0.81,0,1.18-0.87,1.18-2.07
			c0-1.11-0.32-2.03-1.18-2.03C171.76,485.91,171.34,486.82,171.34,487.97z"/>
		<path d="M185.23,487.22c0,2.51-1.74,3.6-3.38,3.6c-1.83,0-3.25-1.34-3.25-3.49c0-2.27,1.48-3.6,3.36-3.6
			C183.91,483.73,185.23,485.14,185.23,487.22z M179.85,487.29c0,1.49,0.85,2.61,2.06,2.61c1.18,0,2.06-1.11,2.06-2.63
			c0-1.15-0.57-2.6-2.03-2.6C180.48,484.65,179.85,486,179.85,487.29z"/>
		<path d="M186.91,490.66v-5.84h-0.95v-0.94h0.95v-0.32c0-0.95,0.21-1.82,0.78-2.37c0.46-0.45,1.08-0.63,1.65-0.63
			c0.43,0,0.81,0.1,1.05,0.2l-0.17,0.95c-0.18-0.08-0.43-0.15-0.78-0.15c-1.05,0-1.32,0.92-1.32,1.96v0.36h1.64v0.94h-1.64v5.84
			H186.91z"/>
		<path d="M200.48,490.35c-0.45,0.22-1.34,0.45-2.49,0.45c-2.66,0-4.66-1.68-4.66-4.78c0-2.96,2-4.96,4.93-4.96
			c1.18,0,1.92,0.25,2.24,0.42l-0.29,0.99c-0.46-0.22-1.12-0.39-1.9-0.39c-2.21,0-3.68,1.41-3.68,3.89c0,2.31,1.33,3.8,3.63,3.8
			c0.74,0,1.5-0.15,1.99-0.39L200.48,490.35z"/>
		<path d="M205.61,490.66l-0.1-0.85h-0.04c-0.38,0.53-1.11,1.01-2.07,1.01c-1.37,0-2.07-0.97-2.07-1.95c0-1.64,1.46-2.54,4.08-2.52
			v-0.14c0-0.56-0.15-1.57-1.54-1.57c-0.63,0-1.29,0.2-1.76,0.5l-0.28-0.81c0.56-0.36,1.37-0.6,2.23-0.6c2.07,0,2.58,1.42,2.58,2.77
			v2.54c0,0.59,0.03,1.16,0.11,1.62H205.61z M205.43,487.2c-1.34-0.03-2.87,0.21-2.87,1.53c0,0.8,0.53,1.18,1.16,1.18
			c0.88,0,1.44-0.56,1.64-1.13c0.04-0.13,0.07-0.27,0.07-0.39V487.2z"/>
		<path d="M208.61,485.72c0-0.7-0.01-1.28-0.06-1.83h1.09l0.07,1.12h0.03c0.34-0.64,1.12-1.27,2.24-1.27c0.94,0,2.4,0.56,2.4,2.89
			v4.05h-1.23v-3.91c0-1.09-0.41-2-1.57-2c-0.81,0-1.44,0.57-1.65,1.26c-0.06,0.15-0.08,0.36-0.08,0.57v4.08h-1.23V485.72z"/>
		<path d="M220.13,490.66l-0.1-0.85h-0.04c-0.38,0.53-1.11,1.01-2.07,1.01c-1.37,0-2.07-0.97-2.07-1.95c0-1.64,1.46-2.54,4.08-2.52
			v-0.14c0-0.56-0.15-1.57-1.54-1.57c-0.63,0-1.29,0.2-1.77,0.5l-0.28-0.81c0.56-0.36,1.37-0.6,2.23-0.6c2.07,0,2.58,1.42,2.58,2.77
			v2.54c0,0.59,0.03,1.16,0.11,1.62H220.13z M219.95,487.2c-1.34-0.03-2.87,0.21-2.87,1.53c0,0.8,0.53,1.18,1.16,1.18
			c0.88,0,1.44-0.56,1.64-1.13c0.04-0.13,0.07-0.27,0.07-0.39V487.2z"/>
		<path d="M228.98,480.72v8.19c0,0.6,0.01,1.29,0.06,1.75h-1.11l-0.06-1.18h-0.03c-0.38,0.76-1.2,1.33-2.31,1.33
			c-1.64,0-2.9-1.39-2.9-3.45c-0.01-2.25,1.39-3.64,3.04-3.64c1.04,0,1.74,0.49,2.05,1.04h0.03v-4.05H228.98z M227.75,486.64
			c0-0.15-0.01-0.36-0.06-0.52c-0.18-0.79-0.85-1.43-1.78-1.43c-1.27,0-2.03,1.12-2.03,2.62c0,1.37,0.67,2.51,2,2.51
			c0.83,0,1.58-0.55,1.81-1.47c0.04-0.17,0.06-0.34,0.06-0.53V486.64z"/>
		<path d="M232.39,481.98c0.01,0.42-0.29,0.76-0.78,0.76c-0.43,0-0.74-0.34-0.74-0.76c0-0.43,0.32-0.77,0.77-0.77
			C232.1,481.21,232.39,481.54,232.39,481.98z M231.02,490.66v-6.78h1.23v6.78H231.02z"/>
		<path d="M238.05,490.66l-0.1-0.85h-0.04c-0.38,0.53-1.11,1.01-2.07,1.01c-1.37,0-2.07-0.97-2.07-1.95c0-1.64,1.46-2.54,4.08-2.52
			v-0.14c0-0.56-0.15-1.57-1.54-1.57c-0.63,0-1.29,0.2-1.76,0.5l-0.28-0.81c0.56-0.36,1.37-0.6,2.23-0.6c2.07,0,2.58,1.42,2.58,2.77
			v2.54c0,0.59,0.03,1.16,0.11,1.62H238.05z M237.87,487.2c-1.34-0.03-2.87,0.21-2.87,1.53c0,0.8,0.53,1.18,1.16,1.18
			c0.88,0,1.44-0.56,1.64-1.13c0.04-0.13,0.07-0.27,0.07-0.39V487.2z"/>
		<path d="M241.04,485.72c0-0.7-0.01-1.28-0.06-1.83h1.09l0.07,1.12h0.03c0.34-0.64,1.12-1.27,2.24-1.27c0.94,0,2.4,0.56,2.4,2.89
			v4.05h-1.23v-3.91c0-1.09-0.41-2-1.57-2c-0.81,0-1.44,0.57-1.65,1.26c-0.06,0.15-0.08,0.36-0.08,0.57v4.08h-1.23V485.72z"/>
		<path d="M248.65,489.4c0.36,0.24,1.01,0.49,1.62,0.49c0.9,0,1.32-0.45,1.32-1.01c0-0.59-0.35-0.91-1.26-1.25
			c-1.22-0.43-1.79-1.11-1.79-1.92c0-1.09,0.88-1.99,2.34-1.99c0.69,0,1.29,0.2,1.67,0.42l-0.31,0.9c-0.27-0.17-0.76-0.39-1.39-0.39
			c-0.73,0-1.13,0.42-1.13,0.92c0,0.56,0.41,0.81,1.29,1.15c1.18,0.45,1.78,1.04,1.78,2.05c0,1.19-0.92,2.03-2.54,2.03
			c-0.74,0-1.43-0.18-1.91-0.46L248.65,489.4z"/>
	</g>
	<g>
		<path d="M289.79,485.94v-0.84h7.23v0.84H289.79z M289.79,488.69v-0.84h7.23v0.84H289.79z"/>
		<path d="M301.06,488.35c0-1.15,0.69-1.96,1.81-2.44l-0.01-0.04c-1.01-0.48-1.44-1.26-1.44-2.04c0-1.44,1.22-2.42,2.82-2.42
			c1.76,0,2.65,1.11,2.65,2.24c0,0.77-0.38,1.6-1.5,2.13v0.04c1.13,0.45,1.83,1.25,1.83,2.35c0,1.58-1.36,2.65-3.1,2.65
			C302.2,490.82,301.06,489.68,301.06,488.35z M305.96,488.3c0-1.11-0.77-1.64-2-1.99c-1.06,0.31-1.64,1.01-1.64,1.88
			c-0.04,0.92,0.66,1.74,1.82,1.74C305.24,489.92,305.96,489.23,305.96,488.3z M302.57,483.74c0,0.91,0.69,1.4,1.74,1.68
			c0.78-0.27,1.39-0.83,1.39-1.65c0-0.73-0.43-1.49-1.54-1.49C303.13,482.29,302.57,482.96,302.57,483.74z"/>
		<path d="M312.16,490.66v-2.48h-4.23v-0.81l4.06-5.81h1.33v5.66h1.27v0.97h-1.27v2.48H312.16z M312.16,487.22v-3.04
			c0-0.48,0.01-0.95,0.04-1.43h-0.04c-0.28,0.53-0.5,0.92-0.76,1.34l-2.23,3.1v0.03H312.16z"/>
		<path d="M319.64,484.12c0,1.92-1.01,2.87-2.18,2.87c-1.13,0-2.12-0.91-2.13-2.75c0-1.82,0.99-2.84,2.2-2.84
			C318.8,481.4,319.64,482.38,319.64,484.12z M316.3,484.21c-0.03,1.16,0.41,2.04,1.18,2.04c0.81,0,1.18-0.87,1.18-2.07
			c0-1.11-0.32-2.03-1.18-2.03C316.71,482.15,316.3,483.06,316.3,484.21z M317.37,490.82l5.35-9.41h0.78l-5.35,9.41H317.37z
			 M325.56,487.89c0,1.92-1.01,2.87-2.17,2.87c-1.13,0-2.12-0.91-2.13-2.73c0-1.83,1-2.86,2.2-2.86
			C324.73,485.17,325.56,486.15,325.56,487.89z M322.23,487.97c-0.01,1.16,0.43,2.04,1.19,2.04c0.81,0,1.18-0.87,1.18-2.07
			c0-1.11-0.32-2.03-1.18-2.03C322.65,485.91,322.23,486.82,322.23,487.97z"/>
		<path d="M336.11,487.22c0,2.51-1.74,3.6-3.38,3.6c-1.83,0-3.25-1.34-3.25-3.49c0-2.27,1.49-3.6,3.36-3.6
			C334.8,483.73,336.11,485.14,336.11,487.22z M330.74,487.29c0,1.49,0.85,2.61,2.06,2.61c1.18,0,2.06-1.11,2.06-2.63
			c0-1.15-0.57-2.6-2.03-2.6S330.74,486,330.74,487.29z"/>
		<path d="M337.79,490.66v-5.84h-0.95v-0.94h0.95v-0.32c0-0.95,0.21-1.82,0.78-2.37c0.46-0.45,1.08-0.63,1.65-0.63
			c0.43,0,0.81,0.1,1.05,0.2l-0.17,0.95c-0.18-0.08-0.43-0.15-0.78-0.15c-1.05,0-1.32,0.92-1.32,1.96v0.36h1.64v0.94h-1.64v5.84
			H337.79z"/>
		<path d="M351.36,490.35c-0.45,0.22-1.34,0.45-2.49,0.45c-2.66,0-4.67-1.68-4.67-4.78c0-2.96,2-4.96,4.93-4.96
			c1.18,0,1.92,0.25,2.24,0.42l-0.29,0.99c-0.46-0.22-1.12-0.39-1.91-0.39c-2.21,0-3.68,1.41-3.68,3.89c0,2.31,1.33,3.8,3.63,3.8
			c0.74,0,1.5-0.15,1.99-0.39L351.36,490.35z"/>
		<path d="M356.5,490.66l-0.1-0.85h-0.04c-0.38,0.53-1.11,1.01-2.07,1.01c-1.37,0-2.07-0.97-2.07-1.95c0-1.64,1.46-2.54,4.08-2.52
			v-0.14c0-0.56-0.15-1.57-1.54-1.57c-0.63,0-1.29,0.2-1.76,0.5l-0.28-0.81c0.56-0.36,1.37-0.6,2.23-0.6c2.07,0,2.58,1.42,2.58,2.77
			v2.54c0,0.59,0.03,1.16,0.11,1.62H356.5z M356.32,487.2c-1.34-0.03-2.87,0.21-2.87,1.53c0,0.8,0.53,1.18,1.16,1.18
			c0.88,0,1.44-0.56,1.64-1.13c0.04-0.13,0.07-0.27,0.07-0.39V487.2z"/>
		<path d="M359.49,485.72c0-0.7-0.01-1.28-0.06-1.83h1.09l0.07,1.12h0.03c0.34-0.64,1.12-1.27,2.24-1.27c0.94,0,2.4,0.56,2.4,2.89
			v4.05h-1.23v-3.91c0-1.09-0.41-2-1.57-2c-0.81,0-1.44,0.57-1.65,1.26c-0.06,0.15-0.08,0.36-0.08,0.57v4.08h-1.23V485.72z"/>
		<path d="M371.02,490.66l-0.1-0.85h-0.04c-0.38,0.53-1.11,1.01-2.07,1.01c-1.37,0-2.07-0.97-2.07-1.95c0-1.64,1.46-2.54,4.08-2.52
			v-0.14c0-0.56-0.15-1.57-1.54-1.57c-0.63,0-1.29,0.2-1.76,0.5l-0.28-0.81c0.56-0.36,1.37-0.6,2.23-0.6c2.07,0,2.58,1.42,2.58,2.77
			v2.54c0,0.59,0.03,1.16,0.11,1.62H371.02z M370.83,487.2c-1.34-0.03-2.87,0.21-2.87,1.53c0,0.8,0.53,1.18,1.16,1.18
			c0.88,0,1.44-0.56,1.64-1.13c0.04-0.13,0.07-0.27,0.07-0.39V487.2z"/>
		<path d="M379.86,480.72v8.19c0,0.6,0.01,1.29,0.06,1.75h-1.11l-0.06-1.18h-0.03c-0.38,0.76-1.21,1.33-2.31,1.33
			c-1.64,0-2.9-1.39-2.9-3.45c-0.01-2.25,1.39-3.64,3.04-3.64c1.04,0,1.74,0.49,2.05,1.04h0.03v-4.05H379.86z M378.63,486.64
			c0-0.15-0.01-0.36-0.06-0.52c-0.18-0.79-0.85-1.43-1.78-1.43c-1.27,0-2.03,1.12-2.03,2.62c0,1.37,0.67,2.51,2,2.51
			c0.83,0,1.58-0.55,1.81-1.47c0.04-0.17,0.06-0.34,0.06-0.53V486.64z"/>
		<path d="M383.28,481.98c0.01,0.42-0.29,0.76-0.78,0.76c-0.43,0-0.74-0.34-0.74-0.76c0-0.43,0.32-0.77,0.77-0.77
			C382.98,481.21,383.28,481.54,383.28,481.98z M381.9,490.66v-6.78h1.23v6.78H381.9z"/>
		<path d="M388.93,490.66l-0.1-0.85h-0.04c-0.38,0.53-1.11,1.01-2.07,1.01c-1.37,0-2.07-0.97-2.07-1.95c0-1.64,1.46-2.54,4.08-2.52
			v-0.14c0-0.56-0.15-1.57-1.54-1.57c-0.63,0-1.29,0.2-1.76,0.5l-0.28-0.81c0.56-0.36,1.37-0.6,2.23-0.6c2.07,0,2.58,1.42,2.58,2.77
			v2.54c0,0.59,0.03,1.16,0.11,1.62H388.93z M388.75,487.2c-1.34-0.03-2.87,0.21-2.87,1.53c0,0.8,0.53,1.18,1.16,1.18
			c0.88,0,1.44-0.56,1.64-1.13c0.04-0.13,0.07-0.27,0.07-0.39V487.2z"/>
		<path d="M391.93,485.72c0-0.7-0.01-1.28-0.06-1.83h1.09l0.07,1.12h0.03c0.34-0.64,1.12-1.27,2.24-1.27c0.94,0,2.4,0.56,2.4,2.89
			v4.05h-1.23v-3.91c0-1.09-0.41-2-1.57-2c-0.81,0-1.44,0.57-1.65,1.26c-0.06,0.15-0.08,0.36-0.08,0.57v4.08h-1.23V485.72z"/>
		<path d="M399.53,489.4c0.36,0.24,1.01,0.49,1.62,0.49c0.9,0,1.32-0.45,1.32-1.01c0-0.59-0.35-0.91-1.26-1.25
			c-1.22-0.43-1.79-1.11-1.79-1.92c0-1.09,0.88-1.99,2.34-1.99c0.69,0,1.29,0.2,1.67,0.42l-0.31,0.9c-0.27-0.17-0.76-0.39-1.39-0.39
			c-0.73,0-1.13,0.42-1.13,0.92c0,0.56,0.41,0.81,1.29,1.15c1.18,0.45,1.78,1.04,1.78,2.05c0,1.19-0.92,2.03-2.54,2.03
			c-0.74,0-1.43-0.18-1.91-0.46L399.53,489.4z"/>
	</g>
</g>
</svg>
