<?xml version="1.0" encoding="utf-8"?>
<!-- Generator: Adobe Illustrator 25.2.0, SVG Export Plug-In . SVG Version: 6.00 Build 0)  -->
<svg version="1.1" id="Layer_1" xmlns="http://www.w3.org/2000/svg" xmlns:xlink="http://www.w3.org/1999/xlink" x="0px" y="0px"
	 viewBox="0 0 194.4 226.6" style="enable-background:new 0 0 194.4 226.6;" xml:space="preserve">
<style type="text/css">
	.st0{display:none;}
	.st1{fill:#CCBEA3;stroke:#60584B;stroke-width:0.2375;stroke-miterlimit:10;}
	.st2{fill:#C9A977;}
	.st3{fill:#CCBEA3;stroke:#60584B;stroke-width:0.3584;stroke-miterlimit:10;}
	.st4{fill:#60584B;}
	.st5{fill:#FCFCFC;}
	.st6{stroke:#000000;stroke-width:0.3584;stroke-miterlimit:10;}
	.st7{fill:#D3B844;}
	.st8{fill:#FFFFFF;}
	.st9{stroke:#000000;stroke-width:0.3381;stroke-miterlimit:10;}
	.st10{fill:#E2E2A1;}
	.st11{fill:#6D612C;}
	.st12{fill:#FFFFFF;stroke:#60584B;stroke-width:0.3584;stroke-miterlimit:10;}
	.st13{fill:#FFFFFF;stroke:#000000;stroke-width:0.3584;stroke-miterlimit:10;}
	.st14{fill:#CCBEA3;stroke:#60584B;stroke-width:0.2246;stroke-miterlimit:10;}
	.st15{fill:#D8D8D8;stroke:#494949;stroke-width:0.3246;stroke-miterlimit:10;}
	.st16{fill:#D8D8D8;stroke:#494949;stroke-width:0.3433;stroke-miterlimit:10;}
	.st17{fill:#383838;}
	.st18{fill:url(#SVGID_1_);}
	.st19{fill:#99FFA7;}
</style>
<g id="Layer_1_1_" class="st0">
	
		<image style="display:inline;overflow:visible;enable-background:new    ;" width="3024" height="4032" xlink:href="64924FC8.jpeg"  transform="matrix(0.1845 0 0 0.1845 -167.825 -234.68)">
	</image>
</g>
<g id="Layer_2_1_">
	<g id="neck">
		<path class="st1" d="M111.1,141h-28c1.5-5.4,0.6-20.1,0-33.9h28c0,0.1,0,0.1,0,0.2c-0.3,3.4-0.6,6.8-0.9,10
			C109.4,127.8,109.3,136.7,111.1,141z"/>
		<path class="st2" d="M111.1,107.3c-0.3,3.4-0.6,6.8-0.9,10c-2.6,3.3-4.7,7.2-6,12c-2.7,2.7-6.8,3.7-11.2,4.3l-4.3-3.4l-0.9,2.6
			v8.2h-4.7c1.5-5.4,0.6-20.1,0-33.9h28L111.1,107.3z"/>
	</g>
	<g id="head">
		<path class="st3" d="M127.8,90.4l-1.7,4.3l-3.2,8.3l-16.6,20.3c-3.2,1.8-7.3,3.1-12.4,3.7c-2-0.3-3.5-1.4-4.3-3.1l-3-2.4
			c-6.7-3.5-13.7-11.1-20.8-18.4l-1.9-5.6l-1.2-3.5L127.8,90.4z"/>
		<path class="st3" d="M75,100.1l-4.3,0c-5.2-2-10.2-4-12.3-6.5c-3.6-13.6-4.3-32.5-3.7-53.4c0-0.5,0-1,0-1.5
			c23.7-23.7,51.3-22.2,81.7-1.9l-3.3,47.3c-1.5,4.3-3.4,8-6.4,10.5c-2.7,1.3-4.8,2.8-5.3,4.9l-3.4,0"/>
		<path class="st2" d="M60.6,85.7c2.6,5.5,8.1,10.1,14.4,14.4l-4.3,0c-5.2-2-10.2-4-12.3-6.5c-3.6-13.6-4.3-32.5-3.7-53.4l5.7-5.4
			C59.4,55,57.1,79.7,60.6,85.7z"/>
		<path class="st2" d="M133.1,83.6l0,0.7c-1.5,4.3-3.4,8-6.4,10.5c-2.7,1.3-4.8,2.8-5.3,4.9l-3.4,0c1.5-3.5,3-7.2,5-8.4
			C123.3,92.4,129.6,87.7,133.1,83.6z"/>
		<g id="eye">
			<g>
				<path class="st4" d="M57.8,57.8c2.6-1.3,5.3-2.6,8.1-3.6c2.8-1,5.6-1.8,8.6-2c0.4-0.1,0.7-0.1,1.1-0.1l1.1,0
					c0.7,0,1.5,0,2.2,0.1c0.7,0.1,1.5,0.2,2.2,0.3l1.1,0.2c0.4,0.1,0.7,0.1,1.1,0.2c2.9,0.7,5.6,1.9,8.2,3.3l0.1,0l0,0.1L90.1,67
					l0,0l0,0c-1.1,1.9-2.5,3.5-4,5c-1.5,1.5-3.2,2.8-4.9,4.1l0,0l0,0c-1.5,0.2-2.9,0.4-4.4,0.5c-1.5,0.1-3,0.1-4.5,0
					c-1.5-0.1-3-0.3-4.4-0.8c-1.4-0.4-2.8-1-4-1.9c-1.2-0.9-2.3-2-3.1-3.2c-0.8-1.3-1.4-2.7-1.8-4.1C58,63.7,57.8,60.7,57.8,57.8z
					 M57.8,57.8c0.1,3,0.3,6,1.1,8.8c0.4,1.4,1,2.8,1.8,4c0.8,1.2,1.8,2.3,3,3.2c1.2,0.9,2.6,1.4,4,1.9c1.4,0.4,2.9,0.6,4.4,0.7
					c1.5,0.1,3,0.1,4.4,0c1.5-0.1,2.9-0.3,4.4-0.5l-0.1,0c1.7-1.2,3.4-2.6,4.9-4.1s2.9-3.1,3.9-4.9l0,0.1l1.5-10.7l0.1,0.2
					c-2.6-1.4-5.3-2.6-8.1-3.3c-0.4-0.1-0.7-0.2-1.1-0.2L81,52.6c-0.7-0.1-1.5-0.2-2.2-0.3c-0.7,0-1.5-0.1-2.2-0.1l-1.1,0
					c-0.4,0-0.7,0-1.1,0.1c-2.9,0.3-5.8,1-8.6,2C63.1,55.3,60.4,56.5,57.8,57.8z"/>
			</g>
			<g>
				<path class="st5" d="M85.9,58.7c-2.3-1.8-4.5-3.2-5.6-3.3l-8.6,0.1c-5.9,0.6-9.2,2.9-8.2,7.9c3.8,12,12.3,7.6,21.6,0"/>
				<path d="M85.9,58.7c-0.9-0.6-1.8-1.3-2.7-1.9c-0.5-0.3-0.9-0.6-1.4-0.8c-0.5-0.2-1-0.5-1.5-0.5h0l-8.6,0.2h0
					c-1.1,0.1-2.2,0.3-3.2,0.6c-1.1,0.3-2.1,0.7-2.9,1.4c-0.9,0.6-1.5,1.5-1.8,2.6c-0.3,1-0.2,2.2,0,3.2l0,0
					c0.4,1.1,0.8,2.2,1.3,3.2c0.5,1,1.2,1.9,2,2.7c0.4,0.4,0.9,0.7,1.4,0.9l0.4,0.2l0.2,0.1l0.2,0.1l0.4,0.1l0.4,0.1
					c1.1,0.2,2.3,0,3.4-0.2c2.2-0.6,4.2-1.7,6.2-2.9c1.9-1.2,3.8-2.6,5.6-4c-1.8,1.5-3.6,2.9-5.5,4.2c-1.9,1.3-3.9,2.4-6.2,3.1
					c-1.1,0.3-2.3,0.5-3.5,0.3l-0.4-0.1l-0.4-0.1l-0.2-0.1l-0.2-0.1l-0.4-0.2c-0.5-0.3-1-0.6-1.5-1c-0.9-0.8-1.6-1.7-2.1-2.8
					c-0.6-1-1-2.1-1.3-3.2l0,0l0,0c-0.2-1.1-0.3-2.3,0-3.4c0.3-1.1,1-2.1,2-2.7c0.9-0.7,2-1.1,3.1-1.4c1.1-0.3,2.2-0.5,3.3-0.6h0h0
					l8.6-0.1h0h0c0.6,0.1,1.1,0.3,1.6,0.6c0.5,0.3,0.9,0.6,1.4,0.9C84.1,57.4,85,58.1,85.9,58.7z"/>
			</g>
			<circle class="st6" cx="74" cy="63.1" r="4.2"/>
			<path class="st7" d="M57.8,57.8l-4.6,1.7c4.9-5.4,9.7-10.8,22.1-10.1c10.3,1.1,14.4,4.8,18.6,8.4C86.4,53.3,79.1,48.7,57.8,57.8z
				"/>
		</g>
		<g id="eye_1_">
			<g>
				<path class="st4" d="M132.4,63c-2.1-1.6-4.3-3.1-6.6-4.5c-2.3-1.3-4.7-2.4-7.3-3.1c-0.3-0.1-0.6-0.2-1-0.2l-1-0.2
					c-0.7-0.1-1.3-0.1-2-0.2c-0.7,0-1.3,0-2,0l-1,0.1c-0.3,0-0.7,0-1,0.1c-2.6,0.4-5.2,1.2-7.6,2.2l0.1-0.1l-0.1,10.8l0-0.1
					c0.7,1.9,1.6,3.7,2.8,5.4c1.1,1.7,2.4,3.2,3.8,4.7l-0.1,0c1.3,0.4,2.6,0.8,4,1.1c1.4,0.3,2.7,0.5,4.1,0.6c1.4,0.1,2.8,0,4.1-0.3
					c1.3-0.3,2.6-0.8,3.8-1.6c1.1-0.8,2.1-1.8,2.9-2.9c0.8-1.1,1.4-2.4,1.9-3.7C131.5,68.4,132,65.7,132.4,63z M132.4,63
					c-0.4,2.7-0.9,5.5-1.8,8.1c-0.5,1.3-1.1,2.6-1.9,3.7c-0.8,1.2-1.8,2.2-2.9,3c-1.2,0.8-2.5,1.3-3.8,1.6c-1.4,0.3-2.8,0.4-4.2,0.3
					c-1.4-0.1-2.8-0.3-4.2-0.6c-1.4-0.3-2.7-0.7-4-1.1l0,0l0,0c-1.4-1.5-2.7-3.1-3.9-4.7c-1.2-1.7-2.1-3.5-2.8-5.4l0,0v0l0.1-10.8
					V57l0.1,0c2.5-1,5-1.9,7.7-2.2c0.3-0.1,0.7-0.1,1-0.1l1-0.1c0.7,0,1.3,0,2,0c0.7,0.1,1.3,0.1,2,0.2l1,0.2c0.3,0.1,0.7,0.1,1,0.2
					c2.6,0.7,5,1.8,7.3,3.2C128.2,59.8,130.3,61.3,132.4,63z"/>
			</g>
			<g>
				<path class="st8" d="M107.5,60.2c2.3-1.4,4.4-2.6,5.4-2.5l7.6,1.3c5.1,1.4,7.8,4.1,6.2,8.9c-4.9,11.4-11.8,5.9-19-2.8"/>
				<path d="M107.5,60.2c0.8-0.5,1.7-1.1,2.6-1.6c0.4-0.2,0.9-0.5,1.4-0.7c0.5-0.2,0.9-0.4,1.5-0.4h0h0l7.6,1.2h0l0,0
					c1,0.3,2,0.6,3,1.1c0.9,0.5,1.8,1.1,2.5,1.9c0.4,0.4,0.6,0.9,0.8,1.4c0.1,0.3,0.2,0.5,0.2,0.8c0,0.3,0.1,0.5,0.1,0.8
					c0.1,1.1-0.1,2.1-0.4,3.2l0,0l0,0c-0.4,1-0.9,1.9-1.5,2.9c-0.6,0.9-1.3,1.8-2.1,2.4c-0.9,0.7-1.9,1.2-3,1.2
					c-0.6,0-1.1,0-1.6-0.1c-0.5-0.1-1-0.3-1.5-0.6c-1-0.5-1.9-1.1-2.7-1.7c-0.8-0.7-1.6-1.4-2.4-2.2c-1.5-1.5-2.9-3.2-4.3-4.8
					c1.4,1.6,2.8,3.2,4.4,4.7c1.5,1.5,3.2,2.9,5.1,3.8c1,0.4,2,0.7,3,0.6c1,0,2-0.5,2.8-1.1c0.8-0.6,1.5-1.5,2.1-2.4
					c0.6-0.9,1-1.8,1.5-2.8l0,0c0.3-1,0.5-2,0.4-3c0-0.3-0.1-0.5-0.1-0.8c-0.1-0.2-0.1-0.5-0.2-0.7c-0.2-0.5-0.5-0.9-0.8-1.3
					c-0.7-0.8-1.5-1.4-2.4-1.8c-0.9-0.5-1.9-0.8-2.9-1.1l0,0l-7.6-1.3h0c-0.5,0-1,0.1-1.4,0.3c-0.5,0.2-0.9,0.4-1.4,0.6
					C109.3,59.2,108.4,59.7,107.5,60.2z"/>
			</g>
			
				<ellipse transform="matrix(6.929971e-02 -0.9976 0.9976 6.929971e-02 43.3643 178.7469)" class="st9" cx="117.5" cy="66.1" rx="4.2" ry="3.7"/>
			<path class="st7" d="M132.4,63l3.8,2.2c-3.6-6-7.1-12-18.2-12.9c-9.2-0.2-13.3,2.8-17.5,5.9C107.8,54.8,114.9,51.1,132.4,63z"/>
		</g>
		<g id="hair">
			<g>
				<path class="st10" d="M147.4,56.4c-0.5,2.2-1.8,4.8-3,7.4c-0.2-3.9-0.9-7.5-3.6-10.1c-0.2-3-1.9-6.2-4.3-9.4l4.1,17.9
					c-3.1-9.4-9.9-16.9-19.4-22.9c-3.6-14.9-1.5-23.1,7.9-22.6c2,0.4,3.9,1.1,5.5,2c6.9,3.9,9.9,11.7,10.4,22
					c-1.5-3.3-3.9-6.7-6.6-10.2c3.8,5.3,6,10.6,6.8,15.8c2,2.3,3.2,4.7,2.2,7.1C147.7,54.2,147.7,55.2,147.4,56.4z"/>
				<path class="st11" d="M147.4,56.4c-0.3,1.3-0.8,2.5-1.3,3.8c-0.5,1.2-1.1,2.4-1.7,3.6l0,0l0,0c-0.1-1.8-0.3-3.7-0.9-5.4
					c-0.3-0.9-0.6-1.7-1.1-2.5c-0.5-0.8-1-1.5-1.7-2.2l0,0v0c-0.1-1.7-0.7-3.4-1.5-4.9c-0.8-1.6-1.7-3-2.8-4.4l0.1,0l4.2,17.9
					l-0.1,0c-0.8-2.4-1.9-4.8-3.2-7c-1.3-2.2-2.8-4.3-4.5-6.2c-3.4-3.8-7.4-7-11.8-9.7l0,0l0,0c-0.6-2.3-1.1-4.7-1.4-7.1
					c-0.3-2.4-0.5-4.8-0.2-7.2c0.1-1.2,0.4-2.4,0.8-3.5c0.4-1.1,1.1-2.2,2-3c0.5-0.4,1-0.8,1.5-1c0.5-0.3,1.1-0.5,1.7-0.6
					c1.2-0.3,2.4-0.4,3.6-0.3h0l0,0c2.6,0.6,5.1,1.5,7.2,3.1c0.3,0.2,0.5,0.4,0.8,0.6l0.7,0.7c0.1,0.1,0.3,0.2,0.4,0.3l0.3,0.4
					c0.2,0.2,0.5,0.5,0.7,0.7c0.4,0.5,0.8,1,1.2,1.6c0.2,0.3,0.4,0.5,0.5,0.8l0.5,0.9c0.2,0.3,0.3,0.6,0.5,0.9
					c0.1,0.3,0.3,0.6,0.4,0.9l0.4,0.9l0.2,0.5l0.2,0.5l0.3,0.9c0.1,0.3,0.2,0.6,0.3,0.9c0.1,0.3,0.2,0.6,0.3,0.9l0.2,1
					c0.6,2.6,0.8,5.2,1,7.8l0,0.3l-0.1-0.3c-0.8-1.8-1.9-3.6-3-5.3c-1.1-1.7-2.3-3.3-3.6-4.9l0.1-0.1c1.7,2.4,3.2,4.9,4.3,7.5
					c1.2,2.7,2,5.5,2.5,8.3l0,0c0.8,1,1.6,2.1,2.1,3.3c0.2,0.6,0.4,1.2,0.4,1.9c0,0.7-0.1,1.3-0.4,1.9v0c0.2,0.5,0.2,1,0.2,1.5
					C147.6,55.4,147.5,55.9,147.4,56.4z M147.4,56.4c0.1-0.5,0.2-1,0.2-1.5c0-0.5,0-1-0.2-1.5l0,0l0,0c0.3-0.6,0.4-1.3,0.4-1.9
					c0-0.7-0.2-1.3-0.4-1.9c-0.5-1.2-1.3-2.3-2.1-3.3l0,0v0c-0.4-2.9-1.3-5.7-2.5-8.3c-1.2-2.6-2.7-5.2-4.3-7.5l0.1-0.1
					c1.2,1.6,2.5,3.2,3.6,4.9c1.1,1.7,2.2,3.4,3,5.3l-0.1,0c-0.1-2.6-0.4-5.2-1-7.7l-0.2-0.9c-0.1-0.3-0.2-0.6-0.3-0.9
					c-0.1-0.3-0.2-0.6-0.3-0.9l-0.3-0.9l-0.2-0.5l-0.2-0.5l-0.4-0.9c-0.1-0.3-0.3-0.6-0.4-0.9c-0.1-0.3-0.3-0.6-0.4-0.9l-0.5-0.8
					c-0.2-0.3-0.4-0.5-0.5-0.8c-0.3-0.5-0.8-1-1.2-1.5c-0.2-0.2-0.4-0.5-0.7-0.7l-0.3-0.4c-0.1-0.1-0.2-0.2-0.4-0.3l-0.7-0.6
					c-0.3-0.2-0.5-0.4-0.8-0.6c-2.1-1.5-4.6-2.5-7.1-3.1l0,0c-1.2-0.1-2.4,0-3.5,0.3c-0.6,0.1-1.1,0.4-1.6,0.6c-0.5,0.3-1,0.6-1.4,1
					c-0.9,0.8-1.5,1.8-1.9,2.9c-0.4,1.1-0.7,2.3-0.8,3.5s-0.2,2.4-0.1,3.6c0,1.2,0.1,2.4,0.3,3.6c0.3,2.4,0.8,4.7,1.3,7l-0.1-0.1
					c4.3,2.7,8.4,5.9,11.8,9.8c1.7,1.9,3.2,4,4.5,6.2c1.3,2.2,2.4,4.6,3.1,7l-0.1,0l-4.1-17.9l0-0.2l0.1,0.2c1,1.4,2,2.9,2.8,4.4
					c0.8,1.6,1.4,3.2,1.5,5l0,0c0.7,0.6,1.2,1.4,1.7,2.2c0.5,0.8,0.8,1.7,1.1,2.5c0.5,1.8,0.7,3.6,0.8,5.4l0,0
					c0.6-1.2,1.2-2.4,1.7-3.6C146.6,58.9,147.1,57.7,147.4,56.4z"/>
			</g>
			<path class="st7" d="M147.4,56.4c-0.5,2.2-1.8,4.8-3,7.4c-0.2-3.9-0.9-7.5-3.6-10.1c-0.2-3-1.9-6.2-4.3-9.4l4.1,17.9
				c-3.1-9.4-9.9-16.9-19.4-22.9c-3.6-14.9-1.5-23.1,7.9-22.6c2,0.4,3.9,1.1,5.5,2c1.8,2.9,2.9,5.6,2.1,7.5c-1.9-1.4-3.5-0.5-5,0.9
				c2.5,4.7,2.8,10,2.4,15.6c1.2-2.4,2.4-3.4,3.5-1.9c1.4,0.7,2,2,2.3,3.6C142.8,46.3,145.1,51.4,147.4,56.4z"/>
			<g>
				<path class="st10" d="M127.7,26.3c3.1,5.2,5.1,10,4.5,13.9c-3.8-1.7-8-6-12.3-10.8c1.7,4.1,2.4,8.9,2.8,13.8
					c-4.4-6.4-10-11.9-17-16.3c-13.6-1.2-25.7-1.1-33.4,2.5C64,34,57.5,39.2,53.5,45.2c-0.7-2.7-1.3-5.4-1.5-7.9
					c-1.3-11.9,3-21.8,17.7-27.8c13.2-4.2,27.3-6.1,43-4c8.7,2.9,16,6.7,19.8,13.1c0.8,1.4,1.5,2.9,2,4.6
					C130.4,23.4,128.3,24.5,127.7,26.3z"/>
				<path class="st11" d="M127.7,26.3c1.3,2.1,2.4,4.3,3.3,6.6c0.4,1.2,0.8,2.3,1.1,3.6s0.3,2.5,0.2,3.7l0,0l0,0
					c-1.2-0.6-2.4-1.3-3.5-2.2c-1.1-0.8-2.1-1.7-3.1-2.7c-2-1.9-3.9-3.9-5.7-5.9l0.1-0.1c0.9,2.2,1.5,4.5,1.9,6.8
					c0.4,2.3,0.7,4.7,0.9,7l0,0.3l-0.2-0.2c-2.2-3.3-4.8-6.3-7.7-9c-2.9-2.7-6-5.1-9.3-7.2l0,0c-2.4-0.2-4.9-0.4-7.3-0.5
					c-2.4-0.1-4.9-0.2-7.3-0.2c-2.4,0-4.9,0.1-7.3,0.4S79,27.3,76.6,28c-0.6,0.2-1.2,0.3-1.7,0.5L74,28.8c-0.3,0.1-0.6,0.2-0.8,0.4
					c-0.3,0.1-0.6,0.2-0.8,0.4L71.6,30c-0.5,0.3-1.1,0.6-1.6,0.9c-2.1,1.2-4.1,2.6-6.1,4c-3.9,2.9-7.5,6.3-10.3,10.3l-0.2,0.2
					l-0.1-0.3c-0.9-3.5-1.6-7.2-1.7-10.8l0-1.4c0-0.5,0-0.9,0.1-1.4c0-0.9,0.2-1.8,0.3-2.7c0.1-0.5,0.2-0.9,0.3-1.4l0.1-0.7
					c0-0.2,0.1-0.4,0.2-0.7l0.4-1.3c0.2-0.4,0.3-0.9,0.5-1.3l0.3-0.6l0.3-0.6l0.6-1.2l0.8-1.2l0.4-0.6l0.4-0.5l0.9-1.1
					c0.3-0.3,0.6-0.7,0.9-1c0.6-0.7,1.3-1.3,2-1.9c2.8-2.4,6.1-4.1,9.5-5.5h0h0c6.9-2.2,14.1-3.8,21.3-4.4
					c7.2-0.7,14.6-0.5,21.8,0.4h0l0,0c2.3,0.8,4.6,1.6,6.8,2.6c2.2,1,4.4,2.2,6.4,3.6c0.5,0.4,1,0.7,1.5,1.1
					c0.2,0.2,0.5,0.4,0.7,0.6l0.7,0.6l0.3,0.3l0.3,0.3l0.6,0.7l0.6,0.7l0.3,0.3l0.3,0.4l0.5,0.7l0.5,0.8c0.3,0.5,0.6,1,0.9,1.6
					c0.5,1.1,1,2.2,1.3,3.4l0,0h0c-1.3,0.1-2.6,0.3-3.8,0.7c-0.6,0.2-1.2,0.5-1.7,0.9C128.4,25.1,128,25.6,127.7,26.3z M127.7,26.3
					c0.2-0.6,0.6-1.2,1.1-1.5c0.5-0.4,1.1-0.7,1.7-0.9c1.2-0.4,2.5-0.6,3.8-0.7l0,0c-0.3-1.2-0.8-2.3-1.3-3.4
					c-0.3-0.5-0.6-1.1-0.9-1.6l-0.5-0.8l-0.5-0.7l-0.3-0.4l-0.3-0.3l-0.6-0.7l-0.6-0.7l-0.3-0.3l-0.3-0.3l-0.7-0.6
					c-0.2-0.2-0.5-0.4-0.7-0.6c-0.5-0.4-1-0.7-1.5-1.1c-2-1.4-4.2-2.5-6.4-3.6c-2.2-1-4.5-1.9-6.8-2.6l0,0
					c-7.2-0.9-14.5-1.1-21.7-0.4c-7.2,0.7-14.4,2.2-21.3,4.5l0,0C66.3,11,63,12.7,60.2,15c-0.7,0.6-1.4,1.2-2,1.9
					c-0.3,0.3-0.6,0.7-0.9,1L56.4,19L56,19.5l-0.4,0.6l-0.7,1.1l-0.6,1.2L54,23l-0.3,0.6c-0.2,0.4-0.3,0.8-0.5,1.3l-0.4,1.3
					c-0.1,0.2-0.1,0.4-0.2,0.7l-0.1,0.7c-0.1,0.4-0.2,0.9-0.3,1.3c-0.1,0.9-0.3,1.8-0.3,2.7c0,0.5-0.1,0.9-0.1,1.4l0,1.4
					c0.1,3.6,0.8,7.3,1.7,10.8l-0.2,0c2.8-4.1,6.4-7.4,10.3-10.4c2-1.5,4-2.8,6.1-4c0.5-0.3,1.1-0.6,1.6-0.9l0.8-0.4
					c0.3-0.1,0.6-0.2,0.8-0.4c0.3-0.1,0.6-0.3,0.8-0.4l0.9-0.3c0.6-0.2,1.2-0.4,1.8-0.5c2.4-0.7,4.8-1,7.2-1.3
					c2.4-0.2,4.9-0.4,7.3-0.4c2.4,0,4.9,0.1,7.3,0.2c2.4,0.1,4.9,0.3,7.3,0.5l0,0l0,0c3.4,2.1,6.5,4.5,9.4,7.3
					c2.9,2.7,5.4,5.8,7.7,9l-0.1,0.1c-0.2-2.4-0.5-4.7-0.9-7c-0.4-2.3-1-4.6-1.9-6.8l-0.1-0.4l0.3,0.3c1.8,2.1,3.7,4.1,5.7,6
					c1,0.9,2,1.9,3.1,2.7c1.1,0.8,2.2,1.6,3.5,2.2l0,0c0.2-1.2,0.1-2.5-0.1-3.7c-0.2-1.2-0.6-2.4-1-3.6
					C130.1,30.6,129,28.4,127.7,26.3z"/>
			</g>
			<path class="st7" d="M127.7,26.3c3.1,5.2,5.1,10,4.5,13.9c-3.8-1.7-8-6-12.3-10.8c1.7,4.1,2.4,8.9,2.8,13.8
				c-4.4-6.4-10-11.9-17-16.3c-13.6-1.2-25.7-1.1-33.4,2.5C64,34,57.5,39.2,53.5,45.2c-0.7-2.7-1.3-5.4-1.5-7.9
				c4.5-4.2,9.5-7.6,15.4-9.7c18.4-6.5,37-9.3,44.1-4.6l5.6,6.1l0.9-5.6c2.6,2.6,5.2,5.1,8.1,6.8c0.5-2.6,0.2-5-1.8-7
				c1.2-2.1,3.9-3.6,8.1-4.6c0.8,1.4,1.5,2.9,2,4.6C130.4,23.4,128.3,24.5,127.7,26.3z"/>
		</g>
		<path class="st2" d="M83.9,80.2c2.2,4.6,2.3,8.7-0.8,12.1"/>
		<polyline class="st2" points="103.6,82.2 103.2,87.6 106.9,93.1 		"/>
		<path class="st3" d="M97.5,52.3c-0.5,9.9-1,19.7,0,23.3c1.7,4.6,0.9,7.4-2.2,8.5"/>
		<g id="teeth">
			<path class="st12" d="M91.1,104.3c-0.9,0.1-1.8,0.1-2.7,0.2l-1.1,2.6l2.8,0L91.1,104.3z"/>
			<polygon class="st12" points="87.4,107.1 85.9,110.7 88.9,110.5 90.1,107.1 			"/>
			<path class="st12" d="M93.4,104.2c-0.8,0-1.5,0.1-2.3,0.1l-1,2.8l2.1,0L93.4,104.2z"/>
			<polygon class="st12" points="90.1,107.1 88.9,110.5 90.9,110.5 92.3,107.1 			"/>
			<path class="st12" d="M97.1,104c-1.2,0-2.4,0.1-3.6,0.2l-1.2,2.9l3.4,0L97.1,104z"/>
			<polygon class="st12" points="92.3,107.1 90.9,110.5 94.1,110.3 95.6,107 			"/>
			<path class="st12" d="M100.7,103.9c-1.2,0-2.4,0.1-3.7,0.1l-1.4,3.1l4,0L100.7,103.9z"/>
			<polygon class="st12" points="95.6,107 94.1,110.3 98.5,110.2 99.6,107 			"/>
			<polygon class="st12" points="103.3,110 105.7,109.9 108.1,107 104.3,107 			"/>
			<path class="st12" d="M105.4,103.9l-1.1,3.1l3.8,0l2.4-2.9C108.9,103.9,107.2,103.9,105.4,103.9z"/>
			<path class="st12" d="M105.4,103.9c-1.5,0-3.1,0-4.6,0l-1.1,3.1l4.7,0L105.4,103.9z"/>
			<polygon class="st12" points="99.6,107 98.5,110.2 103.3,110 104.3,107 			"/>
		</g>
		<path class="st13" d="M173.3,81.8"/>
		<path class="st2" d="M126.1,94.7l-3.2,8.3l-16.6,20.3c-3.2,1.8-7.3,3.1-12.4,3.7c-2-0.3-3.5-1.4-4.3-3.1l-3-2.4
			c-6.7-3.5-13.7-11.1-20.8-18.4l-1.9-5.6l0.4-2l11.1,5l-6.4,2.3c5.6,5.8,12,10.9,19.4,15.1c1.2,3.4,4.8,4.7,9.5,4.9
			c6.4-1.2,11.8-7.6,17.2-14.2l5.4-6.5l-2.5-2.5L126.1,94.7z"/>
	</g>
	<path class="st14" d="M48.7,178.8c-7.9,25.4-11.7,59.2-14.2,95.7h3.4c2.9-34.3,8.2-66.3,18.5-93.3L48.7,178.8z"/>
	<path class="st14" d="M143.2,179.5c9.9,24.6,16.4,57.8,21.8,93.9l-3.4,0.3c-5.6-33.9-13.5-65.2-25.9-91.1L143.2,179.5z"/>
	<path class="st15" d="M147.9,177.2l-0.2,0.3l-2.2,3.9l-1.4,2.5l-2.2,3.9l-1.4,2.5l-2.2,3.9l-0.5,0.9c-0.2-0.1-0.4-0.3-0.6-0.4
		c-0.2-0.2-0.4-0.3-0.7-0.5c-1.3-1-2.4-2.1-3.4-3.3l-0.3,3.3l-0.3,2.5l-0.4,3.9l-0.3,2.5l-0.4,3.9l-0.3,2.5l-0.4,3.9l-0.3,2.5
		l-0.4,3.9l-0.3,2.5l-0.4,3.9l-0.3,2.5l-0.4,3.9l-0.3,2.5l-0.2,2.1l-0.1,1.8l-0.1,2.5l-0.1,3.9l-0.1,2.5l-0.1,3.9l-0.1,2.5l-0.1,3.9
		l-0.1,2.5l-0.1,3.9l-0.1,2.5l-0.4,14.4H72.5l-0.9-14.4l-0.2-2.5l-0.2-3.9l-0.2-2.5l-0.2-3.9l-0.1-2.5l-0.2-3.9l-0.1-2.5l-0.2-3.9
		l-0.1-2.4l0-0.1l-0.6-3.9l-0.4-2.5l-0.6-3.9l-0.4-2.5l-0.6-3.9l-0.4-2.5l-0.6-3.9l-0.4-2.5l-0.6-3.9l-0.4-2.5l-0.6-3.9l-0.4-2.5
		l-0.6-3.9l-0.4-2.5l-0.6-3.9l-0.3-1.9c-0.4,0.7-0.8,1.3-1.2,1.9c-0.9,1.4-1.9,2.7-2.9,3.9c-0.7,0.9-1.5,1.7-2.3,2.5
		c-0.2,0.2-0.4,0.4-0.7,0.6l-0.4-0.6l-1.4-2.5l-2.2-3.9l-1.4-2.5l-2.2-3.9l-1.4-2.5l-1.4-2.5c0.1-0.5,0.3-0.9,0.5-1.4
		c0.3-0.8,0.6-1.6,0.9-2.5c0.5-1.2,1-2.6,1.5-3.9c0.3-0.8,0.7-1.7,1.1-2.5c0.6-1.3,1.2-2.6,1.8-3.9c0.4-0.8,0.8-1.7,1.3-2.5
		c0.7-1.4,1.5-2.7,2.2-3.9c0.5-0.9,1.1-1.7,1.6-2.5c1-1.5,2.1-2.8,3.1-3.9c1-1.1,2-1.9,3-2.5c0,0,3.2-1.4,7.8-3.9
		c1.3-0.7,2.8-1.6,4.3-2.5c1.9-1.2,4-2.5,6.1-4c8.4,2.3,19.9,2,33.6,0c2.3,1.1,4.6,2.5,6.9,4c1.2,0.8,2.4,1.7,3.6,2.5
		c1.8,1.3,3.5,2.7,5.1,3.9c1.1,0.9,2.1,1.7,3,2.5c2.3,2,4,3.5,4.4,3.9c0.1,0.1,0.1,0.1,0.1,0.1c0.7,0.7,1.4,1.5,2,2.4
		c0.9,1.2,1.8,2.5,2.7,3.9c0.5,0.8,1,1.7,1.4,2.5c0.7,1.3,1.3,2.6,1.9,3.9c0.4,0.8,0.7,1.7,1.1,2.5c0.5,1.3,1.1,2.6,1.6,3.9
		C147.3,175.7,147.6,176.5,147.9,177.2z"/>
	<path class="st16" d="M123.8,129"/>
	<path class="st17" d="M120.1,142.7H73.5c-1.5,0.9-3,1.8-4.3,2.5h54.4"/>
	<path class="st17" d="M131.8,151.7H58.4c1-1.1,2-1.9,3-2.5h67.4C129.9,150.1,130.9,150.9,131.8,151.7z"/>
	<path class="st17" d="M138.4,158.1H53.7c0.5-0.9,1.1-1.7,1.6-2.5h81c0.1,0.1,0.1,0.1,0.1,0.1C137.1,156.5,137.8,157.3,138.4,158.1z
		"/>
	<path class="st17" d="M142.5,164.6H50.2c0.4-0.8,0.8-1.7,1.3-2.5h89.6C141.5,162.9,142,163.7,142.5,164.6z"/>
	<path class="st17" d="M145.5,171H47.3c0.3-0.8,0.7-1.7,1.1-2.5h96C144.7,169.4,145.1,170.2,145.5,171z"/>
	<path class="st17" d="M147.9,177.2l-0.2,0.3H44.8c0.3-0.8,0.6-1.6,0.9-2.5H147C147.3,175.7,147.6,176.5,147.9,177.2z"/>
	<polygon class="st17" points="145.5,181.4 144,183.9 47.1,183.9 45.7,181.4 	"/>
	<polygon class="st17" points="141.8,187.9 140.4,190.4 50.7,190.4 49.3,187.9 	"/>
	<path class="st17" d="M52.9,194.3h4.7c-0.7,0.9-1.5,1.7-2.3,2.5h-1L52.9,194.3z"/>
	<polygon class="st17" points="62.7,194.3 132.6,194.3 132.3,196.9 63.1,196.9 	"/>
	<polyline class="st17" points="131.9,200.8 63.7,200.8 64.1,203.3 131.7,203.3 	"/>
	<polygon class="st17" points="131.2,207.2 131,209.8 65.1,209.8 64.7,207.2 	"/>
	<polygon class="st17" points="130.6,213.7 130.3,216.2 66.2,216.2 65.8,213.7 	"/>
	<polyline class="st17" points="129.9,220.1 66.8,220.1 67.2,222.7 129.6,222.7 	"/>
	<polygon class="st17" points="129.2,226.6 129,229.1 68.2,229.1 67.8,226.6 	"/>
	<polygon class="st17" points="128.5,233.1 128.3,235.6 69.3,235.6 68.9,233.1 	"/>
	<polygon class="st17" points="128,239.5 127.9,242 70.1,242 69.9,239.6 69.9,239.5 	"/>
	<polygon class="st17" points="127.8,246 127.8,248.5 70.4,248.5 70.3,246 	"/>
	<polygon class="st17" points="127.6,252.4 127.6,254.9 70.8,254.9 70.7,252.4 	"/>
	<polygon class="st17" points="127.5,258.9 127.4,261.4 71.2,261.4 71.1,258.9 	"/>
	<polygon class="st17" points="127.3,265.3 127.2,267.8 71.6,267.8 71.4,265.3 	"/>
</g>
<linearGradient id="SVGID_1_" gradientUnits="userSpaceOnUse" x1="12.2603" y1="209.3903" x2="184.6141" y2="149.1365">
	<stop  offset="0" style="stop-color:#4F4F4F"/>
	<stop  offset="1" style="stop-color:#7F0700"/>
</linearGradient>
<rect x="11.3" y="147.1" class="st18" width="173" height="64.7"/>
<rect x="17.8" y="151.9" class="st19" width="160" height="55.1"/>
<g>
	<path d="M29.3,169.8h-5.4v-2.3h0.8v-5h-0.8v-2.3h5.8c1.1,0,2,0.1,2.6,0.2c0.6,0.1,1.1,0.4,1.4,0.8c0.4,0.4,0.5,0.9,0.5,1.4
		c0,0.5-0.2,1-0.5,1.3c-0.3,0.3-0.8,0.6-1.2,0.7c0.7,0.2,1.2,0.5,1.5,0.9c0.4,0.4,0.5,0.9,0.5,1.4c0,0.6-0.2,1.2-0.6,1.6
		c-0.4,0.4-1,0.7-1.7,0.9C31.6,169.7,30.6,169.8,29.3,169.8z M28.4,162.4v1.7h0.8c0.6,0,0.9-0.1,1.1-0.2c0.2-0.2,0.2-0.4,0.2-0.6
		c0-0.2-0.1-0.4-0.2-0.6s-0.6-0.3-1.2-0.3H28.4z M28.4,165.8v1.9h0.8c0.5,0,0.9-0.1,1.1-0.2c0.2-0.1,0.3-0.4,0.3-0.7
		c0-0.3-0.1-0.6-0.3-0.7c-0.2-0.2-0.6-0.2-1.2-0.2H28.4z"/>
	<path d="M41,169.8h-5.3v-2.1h0.9v-2.5h-0.9v-2.1h4.1v1.7c0.2-0.4,0.4-0.8,0.7-1.1c0.3-0.3,0.6-0.5,0.9-0.6c0.3-0.1,0.8-0.1,1.3-0.1
		v2.9c-0.1,0-0.2,0-0.3,0c-0.7,0-1.2,0.1-1.6,0.2c-0.4,0.1-0.6,0.3-0.7,0.6c-0.1,0.2-0.2,0.6-0.2,1h1V169.8z"/>
	<path d="M46,165l-2.7-0.3c0.3-0.7,0.8-1.1,1.4-1.4c0.7-0.3,1.6-0.4,2.9-0.4c0.5,0,0.9,0,1.3,0c0.4,0,0.7,0.1,1,0.1
		c0.6,0.1,1.1,0.3,1.3,0.5c0.3,0.2,0.5,0.5,0.6,0.8c0.1,0.3,0.2,0.7,0.2,1.3v1.9h0.8v2.1h-4.3v-0.5c-0.6,0.4-1.4,0.6-2.4,0.6
		c-0.9,0-1.6-0.2-2.1-0.6c-0.5-0.4-0.7-0.9-0.7-1.5c0-0.6,0.3-1.1,0.9-1.5c0.6-0.4,1.3-0.6,2.3-0.6c0.9,0,1.5,0.1,2,0.3v-0.2
		c0-0.4,0-0.7-0.1-0.9c-0.1-0.2-0.2-0.3-0.4-0.4c-0.2-0.1-0.5-0.2-0.8-0.2C46.8,164.4,46.3,164.6,46,165z M48.6,168.1v-1.2
		c-0.3-0.2-0.6-0.2-1-0.2c-0.3,0-0.5,0.1-0.7,0.2c-0.2,0.2-0.3,0.4-0.3,0.6c0,0.3,0.1,0.5,0.3,0.7c0.2,0.2,0.4,0.3,0.6,0.3
		C48,168.4,48.4,168.3,48.6,168.1z"/>
	<path d="M64,167.7v2.1h-4.3v-0.4c-0.6,0.4-1.4,0.6-2.2,0.6c-0.9,0-1.8-0.3-2.5-0.9s-1.1-1.4-1.1-2.4c0-1.1,0.3-2,1-2.7
		c0.7-0.6,1.6-0.9,2.7-0.9c0.8,0,1.5,0.2,2.1,0.5v-1.2h-0.8v-2.1h4.3v7.4H64z M59.8,166.4c0-0.4-0.1-0.8-0.3-1
		c-0.2-0.3-0.5-0.4-0.9-0.4c-0.8,0-1.2,0.5-1.2,1.5c0,0.4,0.1,0.8,0.3,1c0.2,0.3,0.5,0.4,0.9,0.4c0.3,0,0.6-0.1,0.8-0.4
		C59.6,167.3,59.8,167,59.8,166.4z"/>
	<path d="M69.7,169.8H65v-2.1h0.7v-5.3H65v-2.1h4.1v7.4h0.6V169.8z"/>
	<path d="M76.4,167.7l2.8,0.3c-0.1,0.3-0.3,0.6-0.5,0.8c-0.2,0.2-0.5,0.4-0.8,0.6c-0.7,0.4-1.5,0.5-2.4,0.5c-1.5,0-2.7-0.3-3.5-1
		c-0.8-0.6-1.2-1.5-1.2-2.5c0-1,0.4-1.9,1.2-2.5c0.8-0.7,1.8-1,3.1-1c1.3,0,2.3,0.3,3.1,1c0.8,0.6,1.2,1.6,1.2,2.9h-5.2
		c0,1.1,0.4,1.6,1.2,1.6C75.8,168.4,76.2,168.2,76.4,167.7z M74.2,166h1.9c0-0.1,0-0.2,0-0.2c0-0.4-0.1-0.7-0.3-0.9
		c-0.2-0.2-0.4-0.3-0.7-0.3c-0.3,0-0.5,0.1-0.7,0.4c-0.2,0.3-0.2,0.6-0.2,1C74.2,165.9,74.2,165.9,74.2,166z"/>
	<path d="M84.3,172.8h-2.9v-2h1.1l0.3-0.7l-2.5-4.9h-0.5v-2.1h4.5v2.1h-0.7l1.2,2.6l1.1-2.6h-0.6v-2.1h3.4v2.1H88L84.3,172.8z"/>
	<path d="M96.7,169.8H93v-2.3h0.7v-5H93v-2.3h5.7l1.4,3.7l1.4-3.7h5.7v2.3h-0.7v5h0.8v2.3h-5v-2.3h0.8v-5.3l-2.9,7.6h-1.4l-2.8-7.5
		v5.2h0.8V169.8z"/>
	<path d="M111.1,165l-2.7-0.3c0.3-0.7,0.8-1.1,1.4-1.4c0.7-0.3,1.6-0.4,2.9-0.4c0.5,0,0.9,0,1.3,0c0.4,0,0.7,0.1,1,0.1
		c0.6,0.1,1.1,0.3,1.3,0.5c0.3,0.2,0.5,0.5,0.6,0.8c0.1,0.3,0.2,0.7,0.2,1.3v1.9h0.8v2.1h-4.3v-0.5c-0.6,0.4-1.4,0.6-2.4,0.6
		c-0.9,0-1.6-0.2-2.1-0.6c-0.5-0.4-0.7-0.9-0.7-1.5c0-0.6,0.3-1.1,0.9-1.5c0.6-0.4,1.3-0.6,2.3-0.6c0.9,0,1.5,0.1,2,0.3v-0.2
		c0-0.4,0-0.7-0.1-0.9c-0.1-0.2-0.2-0.3-0.4-0.4c-0.2-0.1-0.5-0.2-0.8-0.2C111.8,164.4,111.4,164.6,111.1,165z M113.7,168.1v-1.2
		c-0.3-0.2-0.6-0.2-1-0.2c-0.3,0-0.5,0.1-0.7,0.2c-0.2,0.2-0.3,0.4-0.3,0.6c0,0.3,0.1,0.5,0.3,0.7c0.2,0.2,0.4,0.3,0.6,0.3
		C113.1,168.4,113.4,168.3,113.7,168.1z"/>
	<path d="M124.2,167.4v2c-0.2,0.2-0.5,0.3-1,0.4c-0.4,0.1-0.9,0.2-1.3,0.2c-0.5,0-1-0.1-1.3-0.3c-0.4-0.2-0.7-0.4-0.9-0.7
		c-0.1-0.2-0.2-0.3-0.2-0.5c-0.1-0.1-0.1-0.3-0.1-0.5c0-0.3,0-0.9,0-1.7v-1.1h-0.8v-2.1h0.8v-1l3.4-1.6v2.7h1.4v2.1h-1.4v1.3
		c0,0.4,0,0.7,0.1,0.8c0.1,0.1,0.2,0.2,0.5,0.2C123.6,167.6,123.9,167.5,124.2,167.4z"/>
	<path d="M130.6,167.4v2c-0.2,0.2-0.5,0.3-1,0.4c-0.4,0.1-0.9,0.2-1.3,0.2c-0.5,0-1-0.1-1.3-0.3c-0.4-0.2-0.7-0.4-0.9-0.7
		c-0.1-0.2-0.2-0.3-0.2-0.5c-0.1-0.1-0.1-0.3-0.1-0.5c0-0.3,0-0.9,0-1.7v-1.1H125v-2.1h0.8v-1l3.4-1.6v2.7h1.4v2.1h-1.4v1.3
		c0,0.4,0,0.7,0.1,0.8c0.1,0.1,0.2,0.2,0.5,0.2C130.1,167.6,130.3,167.5,130.6,167.4z"/>
	<path d="M136.7,169.8h-5.2v-2.1h0.9v-5.3h-0.9v-2.1h4.3v3.7c0.9-0.6,1.8-0.9,2.7-0.9c0.8,0,1.4,0.2,1.9,0.7
		c0.5,0.5,0.7,1.3,0.7,2.4v1.6h0.8v2.1h-4.2v-2.7c0-0.8,0-1.3-0.1-1.6c-0.1-0.2-0.3-0.3-0.6-0.3c-0.3,0-0.7,0.1-1,0.3v2.1h0.9V169.8
		z"/>
	<path d="M148.4,167.7l2.8,0.3c-0.1,0.3-0.3,0.6-0.5,0.8c-0.2,0.2-0.5,0.4-0.8,0.6c-0.7,0.4-1.5,0.5-2.4,0.5c-1.5,0-2.7-0.3-3.5-1
		c-0.8-0.6-1.2-1.5-1.2-2.5c0-1,0.4-1.9,1.2-2.5c0.8-0.7,1.8-1,3.1-1c1.3,0,2.3,0.3,3.1,1c0.8,0.6,1.2,1.6,1.2,2.9h-5.2
		c0,1.1,0.4,1.6,1.2,1.6C147.9,168.4,148.2,168.2,148.4,167.7z M146.2,166h1.9c0-0.1,0-0.2,0-0.2c0-0.4-0.1-0.7-0.3-0.9
		c-0.2-0.2-0.4-0.3-0.7-0.3c-0.3,0-0.5,0.1-0.7,0.4c-0.2,0.3-0.2,0.6-0.2,1C146.2,165.9,146.2,165.9,146.2,166z"/>
	<path d="M157.5,169.9h-2.7l-2-4.6H152v-2.1h4.5v2.1h-0.7l0.8,2.2l1.6-4.3h2.6l1.5,4.3l0.8-2.2h-0.6v-2.1h3.2v2.1h-0.7l-1.9,4.6
		h-2.7l-1.5-3.4L157.5,169.9z"/>
	<path d="M169,169.9h-2.1v-2.1h2c0.5,0.5,1.1,0.8,1.7,0.8c0.6,0,0.9-0.1,0.9-0.4c0-0.1-0.1-0.2-0.2-0.3c-0.1-0.1-0.5-0.2-1.1-0.3
		c-0.5-0.1-1-0.3-1.6-0.4c-0.5-0.1-0.9-0.3-1.2-0.5c-0.3-0.2-0.5-0.4-0.6-0.6c-0.1-0.2-0.2-0.5-0.2-0.8c0-0.7,0.3-1.3,0.8-1.6
		c0.5-0.3,1.2-0.5,2-0.5c0.8,0,1.5,0.2,2.1,0.5v-0.3h2.1v1.9h-1.9c-0.5-0.5-1.1-0.7-1.7-0.7c-0.5,0-0.8,0.1-0.8,0.4
		c0,0.1,0.1,0.2,0.2,0.3c0.1,0,0.6,0.1,1.3,0.3c0.8,0.2,1.5,0.4,2,0.5c0.5,0.2,0.8,0.4,1.1,0.7c0.2,0.3,0.3,0.6,0.3,1.1
		c0,0.8-0.3,1.3-0.9,1.7c-0.6,0.4-1.3,0.5-2.1,0.5c-0.8,0-1.5-0.2-2.1-0.5V169.9z"/>
</g>
<g>
	<path d="M38,191.7l2.1,0.7c-0.2,0.9-0.6,1.6-1.2,2.1c-0.7,0.6-1.6,0.8-2.7,0.8c-1.6,0-2.7-0.4-3.5-1.2c-0.8-0.8-1.1-1.8-1.1-3
		c0-1.2,0.4-2.2,1.1-3s1.7-1.2,2.9-1.2c1,0,1.7,0.2,2.3,0.7v-0.5h2v3h-2c-0.1-0.4-0.3-0.7-0.5-0.9c-0.2-0.2-0.5-0.3-0.9-0.3
		c-0.9,0-1.3,0.8-1.3,2.3c0,1.5,0.5,2.3,1.4,2.3C37.3,193.5,37.8,192.9,38,191.7z"/>
	<path d="M43.4,191.2l-2.3-0.2c0.3-0.6,0.7-1,1.2-1.2c0.6-0.2,1.4-0.3,2.5-0.3c0.4,0,0.8,0,1.1,0s0.6,0.1,0.9,0.1
		c0.5,0.1,0.9,0.2,1.2,0.5c0.2,0.2,0.4,0.4,0.5,0.7c0.1,0.2,0.2,0.6,0.2,1.1v1.6h0.7v1.8h-3.7v-0.4c-0.5,0.3-1.2,0.5-2,0.5
		c-0.8,0-1.4-0.2-1.8-0.5c-0.4-0.4-0.6-0.8-0.6-1.2c0-0.5,0.3-1,0.8-1.3c0.5-0.3,1.2-0.5,2-0.5c0.7,0,1.3,0.1,1.8,0.3V192
		c0-0.4,0-0.6-0.1-0.7c-0.1-0.1-0.2-0.3-0.4-0.4c-0.2-0.1-0.4-0.2-0.7-0.2C44,190.7,43.7,190.9,43.4,191.2z M45.6,193.9v-1
		c-0.3-0.1-0.5-0.2-0.8-0.2c-0.3,0-0.5,0.1-0.6,0.2c-0.2,0.1-0.2,0.3-0.2,0.6c0,0.2,0.1,0.4,0.2,0.6c0.2,0.1,0.3,0.2,0.6,0.2
		C45.1,194.2,45.4,194.1,45.6,193.9z"/>
	<path d="M54.5,195.3H50v-1.8h0.7v-2.1H50v-1.8h3.7v0.7c0.7-0.6,1.5-0.8,2.3-0.8c0.7,0,1.3,0.2,1.6,0.6c0.4,0.4,0.5,1,0.5,1.9v1.5
		h0.7v1.8h-3.6v-2.5c0-0.6,0-0.9-0.1-1.1c-0.1-0.2-0.3-0.3-0.6-0.3c-0.3,0-0.5,0.1-0.8,0.3v1.8h0.8V195.3z"/>
	<path d="M60.2,191.7v-1.1c0.3,0,0.6,0,0.7-0.1c0.2-0.1,0.3-0.2,0.3-0.3c0-0.1,0.1-0.4,0.1-0.7h-1.1v-2.1h2.9v1.8
		c0,0.7,0,1.1-0.1,1.3c0,0.2-0.2,0.5-0.4,0.7c-0.2,0.2-0.5,0.4-0.8,0.5S60.9,191.7,60.2,191.7z"/>
	<path d="M69.2,193.3v1.7c-0.2,0.1-0.5,0.2-0.8,0.3c-0.4,0.1-0.8,0.2-1.1,0.2c-0.4,0-0.8-0.1-1.1-0.2c-0.3-0.1-0.6-0.3-0.7-0.6
		c-0.1-0.1-0.2-0.3-0.2-0.4s-0.1-0.3-0.1-0.4c0-0.3,0-0.8,0-1.5v-1h-0.7v-1.8H65v-0.9l2.9-1.4v2.3h1.2v1.8H68v1.1
		c0,0.4,0,0.6,0.1,0.7c0.1,0.1,0.2,0.2,0.4,0.2C68.7,193.4,68.9,193.4,69.2,193.3z"/>
	<path d="M77.6,195.3h-4.4v-2h0.6v-4.2h-0.6v-2h4.4v2h-0.6v4.2h0.6V195.3z M82.7,195.3h-4.2v-2h0.4l-1.8-2.3l2.1-1.9h-0.7v-2h4v2
		h-0.6l-1.7,1.5l2.1,2.7h0.4V195.3z"/>
	<path d="M88,193.5l2.4,0.3c-0.1,0.3-0.3,0.5-0.5,0.7s-0.4,0.4-0.7,0.5c-0.6,0.3-1.2,0.5-2,0.5c-1.3,0-2.3-0.3-3-0.8
		c-0.7-0.5-1-1.3-1-2.2c0-0.9,0.3-1.6,1-2.2c0.7-0.6,1.5-0.9,2.7-0.9c1.1,0,1.9,0.3,2.6,0.8c0.7,0.5,1,1.4,1.1,2.5h-4.5
		c0,0.9,0.4,1.4,1,1.4C87.6,194.2,87.9,194,88,193.5z M86.2,192h1.7c0-0.1,0-0.2,0-0.2c0-0.3-0.1-0.6-0.2-0.8
		c-0.2-0.2-0.4-0.3-0.6-0.3c-0.3,0-0.5,0.1-0.6,0.3c-0.1,0.2-0.2,0.5-0.2,0.8C86.2,192,86.2,192,86.2,192z"/>
	<path d="M96.4,193.5l2.4,0.3c-0.1,0.3-0.3,0.5-0.5,0.7s-0.4,0.4-0.7,0.5c-0.6,0.3-1.2,0.5-2,0.5c-1.3,0-2.3-0.3-3-0.8
		c-0.7-0.5-1-1.3-1-2.2c0-0.9,0.3-1.6,1-2.2c0.7-0.6,1.5-0.9,2.7-0.9c1.1,0,1.9,0.3,2.6,0.8c0.7,0.5,1,1.4,1.1,2.5h-4.5
		c0,0.9,0.4,1.4,1,1.4C95.9,194.2,96.2,194,96.4,193.5z M94.5,192h1.7c0-0.1,0-0.2,0-0.2c0-0.3-0.1-0.6-0.2-0.8
		c-0.2-0.2-0.4-0.3-0.6-0.3c-0.3,0-0.5,0.1-0.6,0.3c-0.1,0.2-0.2,0.5-0.2,0.8C94.5,192,94.5,192,94.5,192z"/>
	<path d="M99.7,191.4v-1.8h3.6v0.4c0.6-0.3,1.3-0.5,1.9-0.5c0.8,0,1.6,0.3,2.2,0.8c0.6,0.6,0.9,1.3,0.9,2.2c0,0.9-0.3,1.6-0.9,2.1
		c-0.6,0.5-1.4,0.8-2.3,0.8c-0.7,0-1.3-0.2-1.8-0.5v1.2h0.8v1.8h-4.4v-1.8h0.7v-4.7H99.7z M103.3,192.5c0,0.4,0.1,0.7,0.3,0.9
		c0.2,0.2,0.4,0.3,0.7,0.3c0.7,0,1-0.4,1-1.3c0-0.8-0.3-1.2-1-1.2c-0.3,0-0.5,0.1-0.7,0.3C103.4,191.7,103.3,192.1,103.3,192.5z"/>
	<path d="M117,195.3h-4.6v-2h0.8v-4.2h-0.8v-2h4.6v2h-0.7v4.2h0.7V195.3z"/>
	<path d="M122.4,193.3v1.7c-0.2,0.1-0.5,0.2-0.8,0.3c-0.4,0.1-0.8,0.2-1.1,0.2c-0.4,0-0.8-0.1-1.1-0.2c-0.3-0.1-0.6-0.3-0.7-0.6
		c-0.1-0.1-0.2-0.3-0.2-0.4s-0.1-0.3-0.1-0.4c0-0.3,0-0.8,0-1.5v-1h-0.7v-1.8h0.7v-0.9l2.9-1.4v2.3h1.2v1.8h-1.2v1.1
		c0,0.4,0,0.6,0.1,0.7c0.1,0.1,0.2,0.2,0.4,0.2C121.9,193.4,122.2,193.4,122.4,193.3z"/>
	<path d="M130.3,195.3h-3.8v-2h0.6v-4.2h-0.6v-2h3.9c0.9,0,1.6,0.1,2.2,0.2c0.6,0.1,1.1,0.3,1.6,0.7c0.5,0.3,0.9,0.8,1.2,1.4
		c0.1,0.3,0.2,0.6,0.3,0.9s0.1,0.7,0.1,1c0,0.7-0.2,1.4-0.5,1.9c-0.3,0.6-0.7,1-1.1,1.3c-0.4,0.3-0.9,0.5-1.5,0.6
		C132.2,195.3,131.4,195.3,130.3,195.3z M130.3,189.1v4.2h0.3c0.7,0,1.2-0.2,1.4-0.6c0.2-0.4,0.3-0.9,0.3-1.5c0-0.4,0-0.7-0.1-1.1
		c-0.1-0.4-0.3-0.6-0.5-0.8c-0.2-0.2-0.7-0.3-1.3-0.3H130.3z"/>
	<path d="M136.9,192.5c0-0.8,0.4-1.5,1.1-2.1s1.7-0.9,2.8-0.9c1.2,0,2.2,0.3,2.9,0.8s1.1,1.3,1.1,2.2c0,0.9-0.4,1.6-1.1,2.2
		s-1.7,0.9-2.8,0.9c-1.3,0-2.3-0.3-3-0.9C137.3,194.1,136.9,193.3,136.9,192.5z M139.9,192.5c0,0.9,0.3,1.4,1,1.4c0.7,0,1-0.5,1-1.4
		c0-0.4-0.1-0.7-0.3-1c-0.2-0.2-0.4-0.3-0.7-0.3c-0.3,0-0.6,0.1-0.7,0.3S139.9,192,139.9,192.5z"/>
	<path d="M150,195.4h-2.3l-1.7-4h-0.6v-1.8h3.8v1.8h-0.6l0.7,1.9l1.4-3.7h2.2l1.3,3.7l0.7-1.9h-0.5v-1.8h2.8v1.8h-0.6l-1.7,4h-2.3
		l-1.3-2.9L150,195.4z"/>
	<path d="M162.2,195.3h-4.5v-1.8h0.7v-2.1h-0.7v-1.8h3.7v0.7c0.7-0.6,1.5-0.8,2.3-0.8c0.7,0,1.3,0.2,1.6,0.6c0.4,0.4,0.5,1,0.5,1.9
		v1.5h0.7v1.8h-3.6v-2.5c0-0.6,0-0.9-0.1-1.1c-0.1-0.2-0.3-0.3-0.6-0.3c-0.3,0-0.5,0.1-0.8,0.3v1.8h0.8V195.3z"/>
</g>
</svg>
