<svg id="Layer_1" data-name="Layer 1" xmlns="http://www.w3.org/2000/svg" xmlns:xlink="http://www.w3.org/1999/xlink" viewBox="0 0 502.28 554.41"><defs><style>.cls-1{fill:#fff;}.cls-2{fill:url(#linear-gradient);}.cls-3{fill:url(#linear-gradient-2);}.cls-4{fill:#998675;stroke:#736357;stroke-width:0.11px;}.cls-16,.cls-17,.cls-18,.cls-19,.cls-20,.cls-21,.cls-22,.cls-23,.cls-4{stroke-miterlimit:10;}.cls-5{fill:#cfe4ee;}.cls-6{fill:#82715e;}.cls-7{fill:#544937;}.cls-8{fill:#6b6051;}.cls-9{fill:#a4b1b6;}.cls-10{fill:#9da8ad;}.cls-11,.cls-16,.cls-17,.cls-18,.cls-19,.cls-20,.cls-21,.cls-22,.cls-23{fill:none;}.cls-12{fill:#7f6f5c;}.cls-13{fill:#706253;}.cls-14{fill:#f0f0f0;}.cls-15{fill:#aac6cc;}.cls-16,.cls-17,.cls-18,.cls-19,.cls-20,.cls-21,.cls-22,.cls-23{stroke:#cbc5b6;}.cls-16{stroke-width:0.11px;}.cls-17{stroke-width:0.11px;}.cls-18{stroke-width:0.19px;}.cls-19{stroke-width:0.31px;}.cls-20{stroke-width:0.12px;}.cls-21{stroke-width:0.13px;}.cls-22{stroke-width:0.12px;}.cls-23{stroke-width:0.12px;}</style><linearGradient id="linear-gradient" x1="250.72" y1="607.49" x2="250.72" y2="10.87" gradientUnits="userSpaceOnUse"><stop offset="0" stop-color="#fff"/><stop offset="0.51" stop-color="#999"/><stop offset="1" stop-color="#fff"/></linearGradient><linearGradient id="linear-gradient-2" x1="501.83" y1="607.49" x2="501.83" y2="10.87" xlink:href="#linear-gradient"/></defs><rect class="cls-1" x="0.06" width="501.33" height="554.33"/><rect class="cls-1" x="501.39" width="0.89" height="554.33"/><rect class="cls-2" x="0.06" width="501.33" height="438.71"/><rect class="cls-3" x="501.39" width="0.89" height="438.71"/><polygon class="cls-4" points="152.43 437.57 0.06 515.22 0.06 522.32 157.98 437.57 152.43 437.57"/><polygon class="cls-4" points="146.88 437.57 0.06 508.8 0.06 515.22 152.43 437.57 146.88 437.57"/><polygon class="cls-4" points="141.32 437.57 0.06 502.96 0.06 508.8 146.88 437.57 141.32 437.57"/><polygon class="cls-4" points="135.77 437.57 0.06 497.64 0.06 502.96 141.32 437.57 135.77 437.57"/><polygon class="cls-4" points="130.21 437.57 0.06 492.77 0.06 497.64 135.77 437.57 130.21 437.57"/><polygon class="cls-4" points="124.66 437.57 0.06 488.28 0.06 492.77 130.21 437.57 124.66 437.57"/><polygon class="cls-4" points="119.11 437.57 0.06 484.15 0.06 488.28 124.66 437.57 119.11 437.57"/><polygon class="cls-4" points="113.55 437.57 0.06 480.32 0.06 484.15 119.11 437.57 113.55 437.57"/><polygon class="cls-4" points="108 437.57 0.06 476.77 0.06 480.32 113.55 437.57 108 437.57"/><polygon class="cls-4" points="102.44 437.57 0.06 473.46 0.06 476.77 108 437.57 102.44 437.57"/><polygon class="cls-4" points="96.89 437.57 0.06 470.38 0.06 473.46 102.44 437.57 96.89 437.57"/><polygon class="cls-4" points="91.34 437.57 0.06 467.49 0.06 470.38 96.89 437.57 91.34 437.57"/><polygon class="cls-4" points="85.78 437.57 0.06 464.79 0.06 467.49 91.34 437.57 85.78 437.57"/><polygon class="cls-4" points="80.23 437.57 0.06 462.25 0.06 464.79 85.78 437.57 80.23 437.57"/><polygon class="cls-4" points="74.67 437.57 0.06 459.86 0.06 462.25 80.23 437.57 74.67 437.57"/><polygon class="cls-4" points="69.12 437.57 0.06 457.61 0.06 459.86 74.67 437.57 69.12 437.57"/><polygon class="cls-4" points="63.57 437.57 0.06 455.48 0.06 457.61 69.12 437.57 63.57 437.57"/><polygon class="cls-4" points="158.36 437.57 0.06 522.84 0.06 530.8 163.92 437.57 158.36 437.57"/><polygon class="cls-4" points="164.31 437.57 0.06 531.39 0.06 540.37 169.86 437.57 164.31 437.57"/><polygon class="cls-4" points="170.24 437.57 0.06 541.03 0.06 551.24 175.79 437.57 170.24 437.57"/><polygon class="cls-4" points="181.74 437.57 176.18 437.57 0.06 552 0.06 554.35 13.54 554.35 181.74 437.57"/><path class="cls-4" d="M31.11,554.35H14L181.39,437.57H187Z" transform="translate(0.72)"/><path class="cls-4" d="M49.39,554.35H32.3l155-116.78h5.55Z" transform="translate(0.72)"/><path class="cls-4" d="M67.68,554.35H50.59L193.27,437.57h5.56Z" transform="translate(0.72)"/><path class="cls-4" d="M86,554.35H68.88L199.22,437.57h5.55Z" transform="translate(0.72)"/><path class="cls-4" d="M104.27,554.35H87.17l118-116.78h5.55Z" transform="translate(0.72)"/><path class="cls-4" d="M122.56,554.35H105.45L211.09,437.57h5.56Z" transform="translate(0.72)"/><path class="cls-4" d="M140.85,554.35h-17.1L217,437.57h5.55Z" transform="translate(0.72)"/><path class="cls-4" d="M159.14,554.35H142L223,437.57h5.55Z" transform="translate(0.72)"/><path class="cls-4" d="M177.44,554.35H160.33l68.58-116.78h5.55Z" transform="translate(0.72)"/><path class="cls-4" d="M195.73,554.35H178.62l56.23-116.78h5.55Z" transform="translate(0.72)"/><path class="cls-4" d="M214,554.35H196.91l43.87-116.78h5.56Z" transform="translate(0.72)"/><path class="cls-4" d="M232.31,554.35h-17.1l31.52-116.78h5.55Z" transform="translate(0.72)"/><path class="cls-4" d="M250.6,554.35H233.5l19.16-116.78h5.55Z" transform="translate(0.72)"/><path class="cls-4" d="M268.9,554.35H251.79l6.81-116.78h5.56Z" transform="translate(0.72)"/><path class="cls-4" d="M287.19,554.35H270.08l-5.54-116.78h5.55Z" transform="translate(0.72)"/><path class="cls-4" d="M305.48,554.35h-17.1l-17.9-116.78H276Z" transform="translate(0.72)"/><path class="cls-4" d="M323.77,554.35h-17.1L276.42,437.57H282Z" transform="translate(0.72)"/><path class="cls-4" d="M342.06,554.35H325l-42.6-116.78h5.55Z" transform="translate(0.72)"/><path class="cls-4" d="M360.36,554.35H343.25L288.3,437.57h5.55Z" transform="translate(0.72)"/><path class="cls-4" d="M378.65,554.35H361.54l-67.3-116.78h5.55Z" transform="translate(0.72)"/><path class="cls-4" d="M396.94,554.35h-17.1L300.18,437.57h5.55Z" transform="translate(0.72)"/><path class="cls-4" d="M415.23,554.35h-17.1l-92-116.78h5.55Z" transform="translate(0.72)"/><path class="cls-4" d="M433.53,554.35H416.42L312.06,437.57h5.55Z" transform="translate(0.72)"/><path class="cls-4" d="M451.82,554.35H434.71L318,437.57h5.56Z" transform="translate(0.72)"/><path class="cls-4" d="M470.11,554.35H453L323.94,437.57h5.55Z" transform="translate(0.72)"/><path class="cls-4" d="M488.4,554.35H471.3L329.87,437.57h5.55Z" transform="translate(0.72)"/><polygon class="cls-4" points="342.09 437.57 336.54 437.57 490.31 554.35 501.39 554.35 501.39 550.1 342.09 437.57"/><polygon class="cls-4" points="348.02 437.57 342.47 437.57 501.39 549.28 501.39 538.37 348.02 437.57"/><polygon class="cls-4" points="353.97 437.57 348.41 437.57 501.39 537.66 501.39 528.16 353.97 437.57"/><polygon class="cls-4" points="359.9 437.57 354.35 437.57 501.39 527.55 501.39 519.21 359.9 437.57"/><polygon class="cls-4" points="365.85 437.57 360.29 437.57 501.39 518.66 501.39 511.28 365.85 437.57"/><polygon class="cls-4" points="371.78 437.57 366.23 437.57 501.39 510.8 501.39 504.22 371.78 437.57"/><polygon class="cls-4" points="377.72 437.57 372.17 437.57 501.39 503.79 501.39 497.88 377.72 437.57"/><polygon class="cls-4" points="383.66 437.57 378.1 437.57 501.39 497.5 501.39 492.17 383.66 437.57"/><polygon class="cls-4" points="389.6 437.57 384.05 437.57 501.39 491.82 501.39 486.99 389.6 437.57"/><polygon class="cls-4" points="395.54 437.57 389.98 437.57 501.39 486.67 501.39 482.28 395.54 437.57"/><polygon class="cls-4" points="401.48 437.57 395.92 437.57 501.39 481.98 501.39 477.96 401.48 437.57"/><polygon class="cls-4" points="407.41 437.57 401.86 437.57 501.39 477.7 501.39 474 407.41 437.57"/><polygon class="cls-4" points="413.36 437.57 407.8 437.57 501.39 473.76 501.39 470.36 413.36 437.57"/><polygon class="cls-4" points="419.29 437.57 413.74 437.57 501.39 470.13 501.39 466.98 419.29 437.57"/><polygon class="cls-4" points="425.23 437.57 419.68 437.57 501.39 466.77 501.39 463.86 425.23 437.57"/><polygon class="cls-4" points="431.17 437.57 425.61 437.57 501.39 463.67 501.39 460.95 431.17 437.57"/><polygon class="cls-4" points="437.11 437.57 431.56 437.57 501.39 460.77 501.39 458.25 437.11 437.57"/><polygon class="cls-4" points="443.05 437.57 437.49 437.57 501.39 458.08 501.39 455.72 443.05 437.57"/><polygon class="cls-4" points="448.99 437.57 443.44 437.57 501.39 455.56 501.39 453.35 448.99 437.57"/><polygon class="cls-4" points="454.92 437.57 449.37 437.57 501.39 453.21 501.39 451.13 454.92 437.57"/><polygon class="cls-4" points="460.87 437.57 455.31 437.57 501.39 450.99 501.39 449.04 460.87 437.57"/><polygon class="cls-4" points="466.8 437.57 461.25 437.57 501.39 448.91 501.39 447.08 466.8 437.57"/><polygon class="cls-4" points="472.74 437.57 467.19 437.57 501.39 446.95 501.39 445.22 472.74 437.57"/><path class="cls-5" d="M62.4,144C61,129.69,31.86,100.63-.67,72.35V454.66L62.4,437.57S65.63,177,62.4,144Z" transform="translate(0.72)"/><path class="cls-5" d="M472.93,144c-3.23,33,0,293.55,0,293.55l27.74,7.51V105.14C484.84,121.21,473.77,135.33,472.93,144Z" transform="translate(0.72)"/><path class="cls-6" d="M469,365.13l-.15-5.89H351.09v5.89" transform="translate(0.72)"/><path class="cls-6" d="M356.39,365.13H354.3V415h2.09Z" transform="translate(0.72)"/><path class="cls-6" d="M464.4,365.13V414l-87.2,1H354.3V447.6H466.48V365.13Z" transform="translate(0.72)"/><path class="cls-7" d="M354.58,344.44l-3.75,14.8h118l5.3-14.8Z" transform="translate(0.72)"/><path class="cls-7" d="M465,365.13H356.39v50.52H465Z" transform="translate(0.72)"/><path class="cls-8" d="M387.86,393.15a4.08,4.08,0,1,0-4.21-4.07A4.15,4.15,0,0,0,387.86,393.15Z" transform="translate(0.72)"/><path class="cls-8" d="M429.91,393.15a4.08,4.08,0,1,0-4.21-4.07A4.14,4.14,0,0,0,429.91,393.15Z" transform="translate(0.72)"/><path class="cls-7" d="M466.49,447.6l3.74-13.2V363.26l-1.14,1.55h-2.6Z" transform="translate(0.72)"/><path class="cls-7" d="M474.14,344.44V351l-3.91,12.23-1.14,1.55-.25-5.57Z" transform="translate(0.72)"/><path class="cls-9" d="M66.43,434.69,167.1,339.28H310.45l97.45,99.43Z" transform="translate(0.72)"/><path class="cls-10" d="M66.43,502.37V434.74l341.47,4v63.61Z" transform="translate(0.72)"/><rect class="cls-11" x="372.58" y="404.89" width="73.39" height="132.25"/><rect class="cls-11" x="30.11" y="401.27" width="73.39" height="134.06"/><path class="cls-12" d="M306,281.1a25.82,25.82,0,0,0,4.52-7.65v65.83H167.1V273.45a49.86,49.86,0,0,0,28,15.7A104.62,104.62,0,0,0,241.49,268a121.67,121.67,0,0,0,49.59,21.74A27.3,27.3,0,0,0,306,281.1Zm-111.75,39a8.26,8.26,0,1,0-8.25-8.26A8.25,8.25,0,0,0,194.28,320.15Zm45.91,0a8.26,8.26,0,1,0-8.26-8.26A8.26,8.26,0,0,0,240.19,320.15Zm43.94,0a8.26,8.26,0,1,0-8.26-8.26A8.26,8.26,0,0,0,284.13,320.15Z" transform="translate(0.72)"/><path class="cls-13" d="M170.36,336V281.1a53.12,53.12,0,0,0,24.11,11.27l.6.1.59-.1a107.56,107.56,0,0,0,45.9-20.27A124.6,124.6,0,0,0,290.47,293l.64.13.65-.14a30.84,30.84,0,0,0,15.54-8.4V336Zm113.77-35.64a11.52,11.52,0,1,0,11.51,11.51A11.53,11.53,0,0,0,284.13,300.38Zm-43.94,0a11.52,11.52,0,1,0,11.51,11.51A11.52,11.52,0,0,0,240.19,300.38Zm-45.91,0a11.52,11.52,0,1,0,11.51,11.51A11.53,11.53,0,0,0,194.28,300.38Z" transform="translate(0.72)"/><path class="cls-14" d="M237.59,349.84H174a2.33,2.33,0,0,1-2.33-2.34V325.74a2.33,2.33,0,0,1,2.33-2.33h63.59a2.33,2.33,0,0,1,2.33,2.33V347.5A2.33,2.33,0,0,1,237.59,349.84Z" transform="translate(0.72)"/><path class="cls-14" d="M253.22,358h51.35a10.26,10.26,0,0,0,10.26-10.26V330.82a10.26,10.26,0,0,0-10.26-10.27H253.22A10.26,10.26,0,0,0,243,330.82v16.91A10.26,10.26,0,0,0,253.22,358Z" transform="translate(0.72)"/><path class="cls-15" d="M193.14,347.32l111.14-8.05s12.07,6.44,5.63,26.57c0,0-.4,2.81-2.42,4s-114.35,5.23-114.35,5.23" transform="translate(0.72)"/><path class="cls-13" d="M193.14,375.1c4.45,0,8.05-6.22,8.05-13.88s-3.6-13.89-8.05-13.89-8.06,6.22-8.06,13.89S188.69,375.1,193.14,375.1Z" transform="translate(0.72)"/><path class="cls-13" d="M302.87,371.22c4.94,0,8.94-7.15,8.94-16s-4-16-8.94-16-8.93,7.15-8.93,16S297.94,371.22,302.87,371.22Z" transform="translate(0.72)"/><path class="cls-15" d="M192.76,347.9c-2.45,0-6,5.19-6,13.32s3.55,13.31,6,13.31,6-5.19,6-13.31S195.2,347.9,192.76,347.9Z" transform="translate(0.72)"/><path class="cls-14" d="M282.73,346h-3.64l-40,1.35a7.2,7.2,0,0,0-7,7.45l1.16,34.59a7.22,7.22,0,0,0,7.45,7L283,395a7.18,7.18,0,0,0,5.65-3.06V351.69A7.19,7.19,0,0,0,282.73,346Z" transform="translate(0.72)"/><path class="cls-16" d="M232.81,354,260,395.86" transform="translate(0.72)"/><path class="cls-17" d="M232.86,364.55c6.7,10.47,14,20.53,20.49,31.16" transform="translate(0.72)"/><path class="cls-17" d="M233,374.64q6.78,10.44,13.55,20.87" transform="translate(0.72)"/><path class="cls-17" d="M233,382.24c2.81,4.61,5.55,9.27,8.51,13.79" transform="translate(0.72)"/><path class="cls-17" d="M244.21,347.51c-4.11,3.5-8.28,6.94-12.28,10.57" transform="translate(0.72)"/><path class="cls-18" d="M255.3,346.85c-7.47,6.27-15,12.42-22.29,18.92" transform="translate(0.72)"/><path class="cls-19" d="M270.48,346.91c-12.55,9.76-25.28,19.32-37.48,29.44" transform="translate(0.72)"/><path class="cls-19" d="M239,362.87c14.28,7,28.47,14.22,42.92,20.72" transform="translate(0.72)"/><path class="cls-19" d="M233.45,373.63c14.28,7,28.47,14.22,42.92,20.72" transform="translate(0.72)"/><path class="cls-19" d="M244.82,349.22c14.28,7,28.47,14.21,42.92,20.72" transform="translate(0.72)"/><path class="cls-17" d="M263.48,371.06c-4.12,3.5-8.28,6.94-12.28,10.57" transform="translate(0.72)"/><path class="cls-17" d="M278.56,357c-4.12,3.5-8.29,6.94-12.28,10.57" transform="translate(0.72)"/><path class="cls-17" d="M247.81,379.79c-4.11,3.5-8.28,6.94-12.27,10.57" transform="translate(0.72)"/><path class="cls-17" d="M271.55,380.6c-4.11,3.5-8.28,6.94-12.28,10.57" transform="translate(0.72)"/><path class="cls-17" d="M283.82,375.77c-4.12,3.5-8.28,6.94-12.28,10.57" transform="translate(0.72)"/><path class="cls-17" d="M267.18,379.22c-4.11,3.5-8.28,6.94-12.27,10.57" transform="translate(0.72)"/><path class="cls-17" d="M255.38,382.24c-4.11,3.5-8.28,6.94-12.28,10.57" transform="translate(0.72)"/><path class="cls-17" d="M289,385.08c-4.12,3.5-8.28,6.94-12.28,10.57" transform="translate(0.72)"/><path class="cls-17" d="M284,379.79c-4.12,3.5-8.29,6.94-12.28,10.57" transform="translate(0.72)"/><path class="cls-17" d="M273.33,385.21c-4.12,3.5-8.28,6.94-12.28,10.57" transform="translate(0.72)"/><path class="cls-17" d="M274.84,369.36c-4.11,3.5-8.28,6.94-12.28,10.57" transform="translate(0.72)"/><path class="cls-17" d="M286.6,360.49c-4.11,3.5-8.28,6.94-12.28,10.57" transform="translate(0.72)"/><path class="cls-17" d="M267.18,359.59c-4.11,3.49-8.28,6.93-12.27,10.57" transform="translate(0.72)"/><path class="cls-17" d="M246.52,374.64c-4.11,3.5-8.28,6.94-12.28,10.57" transform="translate(0.72)"/><path class="cls-17" d="M257.88,365.94c-4.11,3.49-8.28,6.93-12.28,10.57" transform="translate(0.72)"/><path class="cls-20" d="M235.54,347.51,267.94,396" transform="translate(0.72)"/><path class="cls-21" d="M244.21,346.58c11.58,16.36,22.45,32.66,33.69,49" transform="translate(0.72)"/><path class="cls-22" d="M255.32,346.61q14.46,20.91,28.89,41.83c1.18,1.72,2.37,3.45,3.56,5.16" transform="translate(0.72)"/><path class="cls-23" d="M265.54,347c7,11.21,15.39,21.51,22.44,32.71" transform="translate(0.72)"/><path class="cls-23" d="M275.25,346.79A171.21,171.21,0,0,0,288,364.87" transform="translate(0.72)"/><path class="cls-23" d="M282.62,346.91q2.63,3.87,5.26,7.73" transform="translate(0.72)"/></svg>