<?xml version="1.0" encoding="utf-8"?>
<!-- Generator: Adobe Illustrator 25.0.1, SVG Export Plug-In . SVG Version: 6.00 Build 0)  -->
<svg version="1.1" id="Layer_1" xmlns="http://www.w3.org/2000/svg" xmlns:xlink="http://www.w3.org/1999/xlink" x="0px" y="0px"
	 viewBox="0 0 308.83 514.59" style="enable-background:new 0 0 308.83 514.59;" xml:space="preserve">
<style type="text/css">
	.st0{stroke:#000000;stroke-miterlimit:10;}
	.st1{fill:#F2EDE7;stroke:#AFAFAF;stroke-width:2.4518;stroke-miterlimit:10;}
	.st2{fill:#F2EDE7;stroke:#5B4320;stroke-width:1.836;stroke-miterlimit:10;}
	.st3{fill:url(#SVGID_1_);}
	.st4{fill:#C9C6C3;stroke:#5B4320;stroke-width:1.2511;stroke-miterlimit:10;}
	.st5{fill:#C9C6C3;stroke:#5B4320;stroke-width:1.2419;stroke-miterlimit:10;}
</style>
<rect x="10.59" y="10.32" class="st0" width="291.74" height="492.56"/>
<g id="Door_Aesthetics">
	<path id="Frame" class="st1" d="M1.23,1.23v512.14H307.6V1.23H1.23z M293.91,494.75H14.92V19.5h278.99V494.75z"/>
	<polygon class="st2" points="163.55,424.1 14.92,495.09 14.92,19.5 163.55,90.49 	"/>
	
		<radialGradient id="SVGID_1_" cx="-254.0674" cy="298.8195" r="7.7805" gradientTransform="matrix(0.5607 0 0 1 298.3847 0)" gradientUnits="userSpaceOnUse">
		<stop  offset="0" style="stop-color:#F7941D"/>
		<stop  offset="1" style="stop-color:#F9ED32"/>
	</radialGradient>
	<path class="st3" d="M160.33,298.31c0,4.19-1.93,7.86-4.35,8.19c-2.45,0.34-4.46-2.87-4.46-7.17c0-4.3,2.01-7.97,4.46-8.21
		C158.39,290.9,160.33,294.11,160.33,298.31z"/>
	<polygon class="st4" points="98.05,289.2 38.66,293.77 38.66,60.53 98.05,85.18 	"/>
	<polygon class="st5" points="150.25,285.18 106.4,288.56 106.4,88.64 150.25,106.84 	"/>
	<polygon class="st4" points="98.05,424.04 38.66,447.92 38.66,329.6 98.05,320.54 	"/>
	<polygon class="st4" points="150.83,402.82 106.4,420.68 106.4,319.27 150.83,312.49 	"/>
</g>
</svg>
