<svg id="Layer_1" data-name="Layer 1" xmlns="http://www.w3.org/2000/svg" xmlns:xlink="http://www.w3.org/1999/xlink" viewBox="0 0 502.86 617.9"><defs><style>.cls-1{fill:#684821;stroke:#4c3312;}.cls-1,.cls-10,.cls-12,.cls-13,.cls-14,.cls-15,.cls-16,.cls-18,.cls-2,.cls-21,.cls-22,.cls-23,.cls-24,.cls-3,.cls-6,.cls-8,.cls-9{stroke-miterlimit:10;}.cls-1,.cls-21,.cls-23{stroke-width:0.18px;}.cls-2{fill:#a8a8a8;stroke:#6d6d6d;}.cls-10,.cls-12,.cls-13,.cls-14,.cls-15,.cls-16,.cls-18,.cls-2,.cls-3,.cls-6,.cls-8,.cls-9{stroke-width:0.11px;}.cls-3{fill:#74995c;stroke:#4c6b38;}.cls-10,.cls-4{fill:#d6b47f;}.cls-5{fill:#bc9653;}.cls-6,.cls-7{fill:#936f27;}.cls-6,.cls-8{stroke:#5e4211;}.cls-18,.cls-8{fill:none;}.cls-9{fill:#c6c6c6;stroke:#878787;}.cls-10{stroke:#9b8054;}.cls-11{fill:#a3d8e8;}.cls-12{fill:#d3a9c3;stroke:#7e5d8c;}.cls-13{fill:#85d685;stroke:#597541;}.cls-14{fill:#85a1d3;stroke:#4a6396;}.cls-15{fill:#db91cc;stroke:#a8699c;}.cls-16,.cls-17{fill:#eff4c6;}.cls-16,.cls-18{stroke:#4c4c4c;}.cls-19{fill:url(#radial-gradient);}.cls-20{fill:url(#radial-gradient-2);}.cls-21,.cls-22{fill:#e5e5e5;}.cls-21,.cls-22,.cls-23{stroke:#aaa;}.cls-22{stroke-width:0.21px;}.cls-23{fill:#ef0a46;}.cls-24{fill:#20305e;stroke:#c6c6c6;stroke-width:0.2px;}</style><radialGradient id="radial-gradient" cx="3.86" cy="3046.63" r="0.1" gradientTransform="matrix(59.64, 0, 0, -56.35, 229.1, 171981.53)" gradientUnits="userSpaceOnUse"><stop offset="0" stop-color="#f9ed32"/><stop offset="1" stop-color="#f15a29"/></radialGradient><radialGradient id="radial-gradient-2" cx="38" cy="3026.34" r="0.1" gradientTransform="matrix(410.24, 0, 0, -387.61, -12659.63, 1175903.48)" xlink:href="#radial-gradient"/></defs><polygon class="cls-1" points="72.09 386.41 0.1 413.61 0.1 617.79 502.32 617.79 502.32 468.53 72.09 386.41"/><polygon class="cls-1" points="502.77 468.61 502.32 468.53 502.32 617.79 502.77 617.79 502.77 468.61"/><polygon class="cls-2" points="502.77 0.05 502.32 0.05 502.32 8.05 502.77 7.94 502.77 0.05"/><polygon class="cls-2" points="0.1 0.05 0.1 103.87 67.54 116.56 502.32 8.05 502.32 0.05 0.1 0.05"/><polygon class="cls-3" points="493.04 0.05 67.54 103.35 69.28 398.69 502.32 506.33 502.32 0.05 493.04 0.05"/><polygon class="cls-3" points="67.54 103.35 0.1 90.81 0.1 451.93 69.28 436.09 67.54 103.35"/><path class="cls-4" d="M382.81,468.55l88.88,22.25,7.75,31.62.86,3.06v7.7l11.07,3,1.29,21.93L382.81,526Z" transform="translate(0.77 1.21)"/><path class="cls-5" d="M92.88,402.35q5-1,10-1.9l-30-7.52v13.76C79.52,405.27,86.15,403.65,92.88,402.35Z" transform="translate(0.77 1.21)"/><path class="cls-6" d="M380.12,525.81l112.54,34.47-.77-4L384,524.71l.4-26.76,94.68,25.66-.38-4L384,494.27l-.38-24.93,88.09,22.73-1.17-4-89.25-21.63Z" transform="translate(0.77 1.21)"/><path class="cls-6" d="M73.86,406.48l-.21-12.76L101,400.78l6.57-1.2-36.32-8.79L71,407.07Z" transform="translate(0.77 1.21)"/><path class="cls-6" d="M381.32,466.41,470.58,488l-3.45-17.28c-7,1.52-34.05-4.81-38.46-12v-7.43L426.79,450Z" transform="translate(0.77 1.21)"/><path class="cls-7" d="M122.16,397.54S104,396.79,105,385.24l-33.68,5.59,37.92,9.09,12.92-2.35" transform="translate(0.77 1.21)"/><path class="cls-8" d="M122.16,397.54S104,396.79,105,385.24l-33.68,5.59,37.92,9.09,12.92-2.35" transform="translate(0.77 1.21)"/><path class="cls-9" d="M396.28,264h9.61a6.5,6.5,0,0,1,4.26,1.62,5.79,5.79,0,0,1,2,3.92L407.22,457.1l-10.5,3.26Z" transform="translate(0.77 1.21)"/><path class="cls-9" d="M176.39,321.22V268.79c.78-5.88,4.08-7.34,10.29-7.34S399.48,264,399.48,264c4.08,0,5.44,1.84,5.44,9.54s-4.66,185.34-4.66,185.34l-18.94,7.52V446.23L362.7,442Z" transform="translate(0.77 1.21)"/><path class="cls-10" d="M334.09,462.1v-6.18l27.36-14.44,19.21,4.77Z" transform="translate(0.77 1.21)"/><path class="cls-11" d="M335.38,418.38c19.23,4.13,27.06,2.2,27.06,13.47s7.67,15.68-29.05,26.95S335.38,418.38,335.38,418.38Z" transform="translate(0.77 1.21)"/><polygon class="cls-9" points="88.63 609.61 0.1 559.54 0.1 568.63 84.42 617.79 97.22 617.79 380.89 498.51 380.89 487.79 88.63 609.61"/><polygon class="cls-10" points="90.08 545.54 0.1 504.13 0.1 559.55 88.63 609.61 380.89 487.79 382.06 447.46 90.08 545.54"/><path class="cls-12" d="M320.36,437.35a239,239,0,0,0-23.67-4.12L147.23,392.94-.67,419.82V545.38L87.85,590S303.38,505.27,322,498.13c10.19,3.57,13.69,1.37,13.69-2.2V489.6C336,455.77,331.77,440.05,320.36,437.35Z" transform="translate(0.77 1.21)"/><path class="cls-13" d="M154.28,358.07c.57-15.95,5.42-23.65,11.64-29.15s3.69-5,4.07-8.25,3.49-4.4,6.79.36,15.13,9,20.57,8.81,9.32,12.64,9.32,12.64l-17.1,36.85Z" transform="translate(0.77 1.21)"/><path class="cls-14" d="M285.25,350.37c8.73,0,20-1.29,15.71,3.66,8.73,3.12,21.37,1.46,21.37,1.46,10.08,2.4,40.36,2.16,44.87.45-1.74,9.27-7.18,12.76-7.57,17.16-1.16,2.74-2.33,1.28-2.33,1.28s-3.3,14.85-6,19.8-.38,3.48-3.49,6.23c.19,6.06-10.09,21.82-10.09,21.82-3.69,5.31-5.63,11.91-5.44,13.93s.58,7.33-6,3.48-16.52-3.48-16.52-3.48l-36.08-44.55Z" transform="translate(0.77 1.21)"/><path class="cls-13" d="M265.7,433.37l10.62.41c4.94,3,15.57,5.36,17.75,5.22s10.48,1,10.48,1l3.78,2.74c3.35,1.79,5.83,2.35,5.68-1.23a19.77,19.77,0,0,0-.73-5.23s6.08-7.46,6.55-9.47,8-23,12.95-27.37c2.62-1.23-3.78-3-3.78-3s-16.16-2.34-20.09-1c-5.52-1.64-21.1-4.11-21.1-2.33-2.47-3.44-10.33-3.44-10.33-3.44L252.6,431C259,430.07,265.7,433.37,265.7,433.37Z" transform="translate(0.77 1.21)"/><path class="cls-14" d="M175.72,414.53l-9.87-2.09c-5.87-.6-15.68-5.12-17.28-6.53s-8.77-5.49-8.77-5.49L135,400.3c-3.79-.61-6.07-1.66-3.58-4.34a21.6,21.6,0,0,1,4.06-3.62s.2-9.41,1.25-11.27,9.11-22.59,8.2-28.95c-1.21-2.52,5-.1,5-.1s14.09,7.81,16.22,11.23c5.4,2,19.14,9.36,17.94,10.75,4.21-1.2,10.32,3.49,10.32,3.49l-7.72,32.17C182.35,405.12,175.72,414.53,175.72,414.53Z" transform="translate(0.77 1.21)"/><path class="cls-15" d="M177.36,396.38c4.37-15.67,30.84-69.27,36.68-80.3,4.07-7.69,10.48-12.37,11.64-6.06s8.15,13.48,28.85,10.45c22.11-3.85,10.47-5,35.25-11.82,12.82-.95,13.1,1.64,13.1,1.64-7.86,10.18-19.5,52.8-21.24,61.88s-5.82,30-15.73,41.52-6.11,10.18-6.11,10.18l-.57,4.67c-3.5,2.76-11.06,15.14-11.36,17s-1.45,5-4.66,1.66-9-6.06-9-6.06-4.95-5.91-5.25-9.76c-2.76.83-5.34-.55-10-4.68-1.9-2.88-9.47-2-9.47-2l-8.29-5.92-9,.27c-1.75-2.2-6.7-3.71-6.7-3.71l-10,.28c-3.21,2-11.51,2-3.65-5.91C176.06,405.62,177.36,396.38,177.36,396.38Z" transform="translate(0.77 1.21)"/><path class="cls-16" d="M428.44,317.37,487.81,321l.39,147.52c-15.13,4.65-46.47,1.35-59.52-9.75C428.68,439.46,428.44,317.37,428.44,317.37Z" transform="translate(0.77 1.21)"/><path class="cls-16" d="M499.26,326.16v-7L487.81,321v8.07Z" transform="translate(0.77 1.21)"/><path class="cls-16" d="M499.26,326.16l-11.45,2.94.39,103.21,10.47-4.39Z" transform="translate(0.77 1.21)"/><path class="cls-17" d="M488.15,458.53c-8.71,3.66-42.39,5-59.5-10.45Z" transform="translate(0.77 1.21)"/><path class="cls-18" d="M488.15,458.53c-8.71,3.66-42.39,5-59.5-10.45" transform="translate(0.77 1.21)"/><path class="cls-16" d="M428.44,317.37l9.12-2.39,61.7,4.22L487.81,321Z" transform="translate(0.77 1.21)"/><path class="cls-19" d="M459.15,318a5.74,5.74,0,1,0-6.07-5.74A5.9,5.9,0,0,0,459.15,318Z" transform="translate(0.77 1.21)"/><path class="cls-16" d="M105,293.17v92c3.29,6.6,1.88,12.91,26.45,10.76l10-6.32,1.35-91.15-6.59,2.56-.19-4.77Z" transform="translate(0.77 1.21)"/><path class="cls-18" d="M136.23,301.05v91.29" transform="translate(0.77 1.21)"/><path class="cls-16" d="M136,296.28l5.43-1.83,1.35,4-5.88,2.3Z" transform="translate(0.77 1.21)"/><path class="cls-16" d="M105,293.17l4.31-1.92,32.16,3.2L136,296.28Z" transform="translate(0.77 1.21)"/><path class="cls-17" d="M105,379.37c3,3.3,18.16,14.85,31.23,6.6Z" transform="translate(0.77 1.21)"/><path class="cls-18" d="M105,379.37c3,3.3,18.16,14.85,31.23,6.6" transform="translate(0.77 1.21)"/><path class="cls-20" d="M123.56,294.05a4.47,4.47,0,1,0-4.72-4.46A4.6,4.6,0,0,0,123.56,294.05Z" transform="translate(0.77 1.21)"/><polygon class="cls-21" points="480.23 514.55 502.32 520.91 502.32 502.39 480.23 514.55"/><path class="cls-21" d="M479.46,513.36l2,19.44L501.56,538V519.72Z" transform="translate(0.77 1.21)"/><polygon class="cls-22" points="500.03 538.6 500.03 617.79 502.32 617.79 502.32 539.14 500.03 538.6"/><path class="cls-23" d="M466.55,440.56c-5.34,2.39-6.22,6.5-4.56,11.55l18.16,67.71s9.91-15.33,21.41-34.11V426.8C486.06,432.8,469.32,439.33,466.55,440.56Z" transform="translate(0.77 1.21)"/><path class="cls-23" d="M474.82,441c-6.7,2.28-6.12,7.06-4.28,13.12l14.28,56.27,16.74-9.21V430.56C489.67,435.31,477.88,440,474.82,441Z" transform="translate(0.77 1.21)"/><polygon class="cls-24" points="44.22 150.75 0.1 144.93 0.1 342.3 44.22 336.47 44.22 150.75"/></svg>