<?xml version="1.0" encoding="utf-8"?>
<!-- Generator: Adobe Illustrator 25.2.0, SVG Export Plug-In . SVG Version: 6.00 Build 0)  -->
<svg version="1.1" id="Layer_1" xmlns="http://www.w3.org/2000/svg" xmlns:xlink="http://www.w3.org/1999/xlink" x="0px" y="0px"
	 viewBox="0 0 194.4 226.6" style="enable-background:new 0 0 194.4 226.6;" xml:space="preserve">
<style type="text/css">
	.st0{display:none;}
	.st1{stroke:#000000;stroke-width:0.4826;stroke-miterlimit:10;}
	.st2{fill:#CCBEA3;stroke:#60584B;stroke-width:0.4887;stroke-miterlimit:10;}
	.st3{fill:#C9A977;}
	.st4{fill:#282321;}
	.st5{fill:#60584B;}
	.st6{fill:#CCBEA3;}
	.st7{fill:#303030;stroke:#141414;stroke-width:0.5387;stroke-miterlimit:10;}
	.st8{fill:#161616;}
	.st9{fill:#161616;stroke:#141414;stroke-width:0.5532;stroke-miterlimit:10;}
	.st10{fill:#4C4C4C;stroke:#141414;stroke-width:0.5532;stroke-miterlimit:10;}
	.st11{fill:#303030;}
	.st12{fill:#6E8277;stroke:#141414;stroke-width:0.4439;stroke-miterlimit:10;}
	.st13{fill:#A0BAAB;}
	.st14{opacity:0.82;fill:#6E8277;enable-background:new    ;}
	.st15{fill:#4C4C4C;}
	.st16{fill:#5B4B45;stroke:#1E1B1A;stroke-width:0.5387;stroke-miterlimit:10;}
	.st17{fill:#262626;}
	.st18{fill:#CCBEA3;stroke:#60584B;stroke-width:0.4278;stroke-miterlimit:10;}
	.st19{fill:url(#SVGID_1_);}
	.st20{fill:#D9D9D9;}
	.st21{stroke:#000000;stroke-width:0.75;stroke-miterlimit:10;}
</style>
<g id="Layer_1_1_" class="st0">
	
		<image style="display:inline;overflow:visible;enable-background:new    ;" width="3024" height="4032" xlink:href="35766944.jpeg"  transform="matrix(0.2503 0 0 0.2503 -292.7 -414.18)">
	</image>
</g>
<g id="Layer_2_1_">
	<path class="st1" d="M123.1,128.1c0,2.7-11.2,4.9-25.1,4.9s-25.1-1.4-25.1-4.1c0-2.7,11.2-5.7,25.1-5.7S123.1,125.4,123.1,128.1z"
		/>
	<g id="neck">
		<rect x="76.1" y="102.2" class="st2" width="43.7" height="35.9"/>
		<path class="st3" d="M119.8,102.2v12c-2.3,1.6-4,3.2-5.3,4.7c-3,2.8-10.7,4.8-18.5,6.7c-6-1.2-11.2-2.7-14-5.1l-1.3,17.5h-4.5
			v-35.9L119.8,102.2L119.8,102.2z"/>
		<g id="necbear">
			<g>
				<path class="st4" d="M79,118.2c0,0.3,0,0.5,0,0.7c0,0.2-0.1,0.4-0.2,0.6c-0.2-0.2-0.2-0.5-0.2-0.7
					C78.7,118.6,78.8,118.4,79,118.2z"/>
			</g>
			<g>
				<path class="st4" d="M80.4,118.9c0,0.2,0.1,0.2,0.2,0.3c0.1,0.1,0.2,0.2,0.2,0.4c0.1,0.3,0.2,0.6,0.1,0.9l0,0.1l0,0
					c-0.1,0-0.2,0-0.3-0.1c0.1,0,0.2-0.1,0.2-0.1l-0.1,0.1l-0.2-0.7l-0.1-0.4C80.3,119.2,80.3,119,80.4,118.9z"/>
			</g>
			<g>
				<path class="st4" d="M81.1,119.8c0.2,0.2,0.4,0.4,0.4,0.7c0.1,0.3,0.1,0.5-0.1,0.8c-0.2-0.2-0.3-0.5-0.3-0.7
					C81.1,120.3,81.1,120.1,81.1,119.8z"/>
			</g>
			<g>
				<path class="st4" d="M83.6,120.5c0.1-0.1,0.2,0.1,0.3,0.2c0,0.1,0.1,0.2,0.1,0.3c0.1,0.2,0.1,0.4,0.1,0.6c0,0.4-0.1,0.8-0.3,1.1
					c-0.1-0.4,0-0.8-0.1-1.1V121l0-0.3C83.7,120.6,83.7,120.5,83.6,120.5z"/>
			</g>
			<g>
				<path class="st4" d="M84.2,121.1c0.1,0.4,0.1,0.9,0.1,1.3c0,0.4-0.1,0.8-0.2,1.3l-0.2-0.1c0.1-0.1,0.3-0.2,0.4-0.2
					c-0.1,0.1-0.2,0.3-0.2,0.4l-0.2,0.2l0-0.3c-0.1-0.4-0.1-0.8,0-1.3C83.9,121.9,84,121.5,84.2,121.1z"/>
			</g>
			<g>
				<path class="st4" d="M85.5,121.8C85.5,121.8,85.5,121.9,85.5,121.8c0,0.1,0,0.1,0.1,0.2c0,0.1,0.1,0.1,0.1,0.2
					c0.1,0.1,0.1,0.3,0.2,0.4c0.1,0.3,0.2,0.5,0.3,0.8c-0.3-0.1-0.5-0.4-0.6-0.7c-0.1-0.1-0.1-0.3-0.1-0.4c0-0.1,0-0.2,0-0.2
					c0,0,0-0.1,0-0.1C85.4,121.8,85.5,121.8,85.5,121.8z"/>
			</g>
			<g>
				<path class="st4" d="M86.5,121.7c0.1,0.3,0.1,0.6,0.1,1c0,0.3,0,0.6-0.1,1c-0.2-0.3-0.3-0.6-0.3-1
					C86.3,122.3,86.3,122,86.5,121.7z"/>
			</g>
			<g>
				<path class="st4" d="M87.3,123.1c0.3,0.4,0.6,0.7,0.9,1c0.3,0.3,0.6,0.6,0.9,1c-0.5-0.1-0.9-0.3-1.2-0.7
					C87.5,124.1,87.3,123.6,87.3,123.1z"/>
			</g>
			<g>
				<path class="st4" d="M90.7,123.1l0.1,0.5c0.1,0.1,0.1,0.2,0.2,0.4c0.2,0.2,0.4,0.5,0.4,0.9c-0.2-0.1-0.3-0.2-0.4-0.3
					c-0.1-0.1-0.2-0.2-0.3-0.4c-0.1-0.1-0.2-0.3-0.2-0.5C90.5,123.5,90.6,123.3,90.7,123.1z"/>
			</g>
			<g>
				<path class="st4" d="M91.5,123.5c0.2,0.4,0.3,0.7,0.4,1.1c0.1,0.4,0.1,0.8,0,1.2c-0.2-0.3-0.3-0.7-0.4-1.1
					C91.5,124.3,91.5,123.9,91.5,123.5z"/>
			</g>
			<g>
				<path class="st4" d="M92,124.3c0.4,0.3,0.7,0.7,0.9,1.1c0.2,0.4,0.3,0.9,0.3,1.4c-0.3-0.4-0.5-0.8-0.7-1.2
					C92.3,125.2,92.1,124.8,92,124.3z"/>
			</g>
			<g>
				<path class="st4" d="M93.9,124.5c0.2,0.2,0.4,0.5,0.4,0.8c0.1,0.3,0.1,0.6-0.1,0.9c-0.2-0.3-0.3-0.5-0.3-0.8
					C93.9,125.1,93.8,124.8,93.9,124.5z"/>
			</g>
			<g>
				<path class="st4" d="M96.6,125.2c-0.1,0.4-0.1,0.8-0.3,1.1c-0.1,0.2-0.2,0.4-0.3,0.5c-0.1,0.2-0.3,0.3-0.5,0.4l0,0l-0.2,0l0-0.2
					c-0.2-0.7-0.4-1.5-0.5-2.2c0.2,0.7,0.5,1.4,0.9,2.1l-0.2-0.1l0,0c0.3,0,0.5-0.3,0.8-0.6C96.4,126,96.5,125.6,96.6,125.2z"/>
			</g>
			<g>
				<path class="st4" d="M97.5,125.4c0.2,0.2,0.3,0.5,0.2,0.8c-0.1,0.3-0.3,0.5-0.6,0.6c0.1-0.3,0.1-0.5,0.2-0.7
					C97.5,125.9,97.5,125.7,97.5,125.4z"/>
			</g>
			<g>
				<path class="st4" d="M99.5,124.4c0.1,0.3,0.1,0.7,0,1c-0.1,0.3-0.3,0.6-0.6,0.8c0-0.3,0.1-0.6,0.2-0.9
					C99.2,124.9,99.3,124.7,99.5,124.4z"/>
			</g>
			<g>
				<path class="st4" d="M100.9,124.2c0.2,0.2,0.3,0.5,0.3,0.8c0,0.3-0.1,0.6-0.4,0.8c0-0.3,0-0.6,0-0.8
					C100.8,124.8,100.8,124.5,100.9,124.2z"/>
			</g>
			<g>
				<path class="st4" d="M102.5,122.3c0.2,0.2,0.2,0.5,0.3,0.8c0,0.3,0,0.5-0.1,0.8c-0.2-0.2-0.2-0.5-0.3-0.8
					C102.4,122.9,102.4,122.6,102.5,122.3z"/>
			</g>
			<g>
				<path class="st4" d="M104.2,122.1c0.3,0.3,0.5,0.7,0.5,1.1c0.1,0.4,0.1,0.8-0.1,1.2c-0.2-0.4-0.2-0.8-0.3-1.1
					C104.3,122.8,104.2,122.5,104.2,122.1z"/>
			</g>
			<g>
				<path class="st4" d="M106.5,121.5c0.2,0.3,0.3,0.6,0.3,0.9c0,0.3,0,0.6-0.1,0.9c-0.2-0.3-0.3-0.6-0.3-0.9
					C106.3,122.1,106.3,121.8,106.5,121.5z"/>
			</g>
			<g>
				<path class="st4" d="M107.5,121.9c0.2,0.1,0.3,0.3,0.4,0.4c0,0.2,0,0.4-0.2,0.6c-0.1-0.2-0.2-0.3-0.2-0.5
					C107.4,122.2,107.4,122.1,107.5,121.9z"/>
			</g>
			<g>
				<path class="st4" d="M109,120.7c0,0,0.1,0,0.1,0c0,0,0.1,0.1,0.1,0.1c0,0.1,0.1,0.1,0.1,0.2c0.1,0.1,0.1,0.3,0.2,0.4
					c0.1,0.3,0.1,0.6,0.1,1c-0.2-0.3-0.4-0.6-0.5-0.9c0-0.2-0.1-0.3-0.1-0.5c0-0.1,0-0.2,0-0.2C109,120.8,109.1,120.8,109,120.7z"/>
			</g>
			<g>
				<path class="st4" d="M110.4,119.8c0.1,0.4,0.2,0.8,0.2,1.2c0,0.4,0,0.8-0.1,1.2c-0.2-0.4-0.3-0.8-0.3-1.2
					C110.2,120.7,110.3,120.3,110.4,119.8z"/>
			</g>
			<g>
				<path class="st4" d="M111.2,119.5c0.2,0.2,0.4,0.5,0.4,0.7c0.1,0.3,0.1,0.6-0.1,0.8c-0.2-0.3-0.3-0.5-0.3-0.8
					C111.2,120.1,111.2,119.8,111.2,119.5z"/>
			</g>
			<g>
				<path class="st4" d="M112.6,118.6c0.2,0.3,0.3,0.6,0.4,0.9c0.1,0.3,0.2,0.6,0.4,0.9c-0.2,0-0.4-0.1-0.5-0.3
					c-0.1-0.1-0.2-0.3-0.3-0.5C112.5,119.4,112.5,119,112.6,118.6z"/>
			</g>
			<g>
				<path class="st4" d="M113.8,117.7c0.2,0.3,0.3,0.7,0.4,1c0.1,0.3,0.2,0.7,0.2,1.1c-0.3-0.3-0.5-0.6-0.6-1
					C113.8,118.4,113.7,118.1,113.8,117.7z"/>
			</g>
			<g>
				<path class="st4" d="M115.1,116.4c0.2,0.2,0.3,0.4,0.4,0.6c0.1,0.2,0.2,0.4,0.2,0.6c0.1,0.4,0.2,0.8,0.2,1.3
					c-0.3-0.4-0.5-0.8-0.6-1.2c-0.1-0.2-0.1-0.4-0.2-0.6C115.2,116.9,115.1,116.7,115.1,116.4z"/>
			</g>
			<g>
				<path class="st4" d="M116.6,115.9c0.2,0.2,0.3,0.5,0.3,0.7c0,0.3,0,0.5-0.1,0.8c-0.2-0.2-0.2-0.5-0.3-0.7
					C116.5,116.4,116.5,116.2,116.6,115.9z"/>
			</g>
			<g>
				<path class="st4" d="M110.6,116.4c0.1,0.1,0.2,0.3,0.3,0.4c0.1,0.2,0.1,0.3,0.1,0.5c0,0.3,0,0.6,0,1c-0.2-0.1-0.2-0.3-0.3-0.4
					c-0.1-0.2-0.1-0.3-0.1-0.5C110.5,117.1,110.6,116.8,110.6,116.4z"/>
			</g>
			<g>
				<path class="st4" d="M112.2,114.5c-0.1,0.6-0.2,1.1-0.4,1.6c-0.2,0.5-0.4,1-0.7,1.5c0-0.6,0.1-1.1,0.3-1.7
					C111.6,115.5,111.9,115,112.2,114.5z"/>
			</g>
			<g>
				<path class="st4" d="M113.5,114.3c0.1,0.3,0.2,0.6,0.1,0.9c0,0.3-0.1,0.6-0.3,0.9c-0.1-0.3-0.2-0.6-0.1-0.9
					C113.2,114.9,113.3,114.6,113.5,114.3z"/>
			</g>
			<g>
				<path class="st4" d="M115.5,114.1c0.2,0.3,0.2,0.6,0.1,1c-0.1,0.3-0.2,0.6-0.4,0.9c0-0.3,0-0.6,0.1-0.9
					C115.3,114.7,115.4,114.4,115.5,114.1z"/>
			</g>
			<g>
				<path class="st4" d="M116.5,113.7c0.2,0.1,0.3,0.3,0.4,0.4c0.1,0.2,0.1,0.3,0,0.6c-0.2-0.1-0.3-0.3-0.4-0.4
					C116.5,114.1,116.4,113.9,116.5,113.7z"/>
			</g>
			<g>
				<path class="st4" d="M118,113.4c-0.1-0.3-0.2-0.6-0.3-0.9l0-0.1l0.3,0c0,0,0,0,0,0c0,0-0.1,0-0.1,0c0,0,0,0,0,0l0,0c0,0,0,0,0,0
					c0,0,0,0,0,0c0,0,0,0,0,0c0-0.1,0.2,0,0.2,0c0,0,0,0,0,0c0,0,0,0,0,0l0,0l0,0.1l0.1,0.1c0.1,0.1,0.1,0.2,0.1,0.3
					c0.1,0.2,0.2,0.4,0.2,0.6c0.1,0.4,0.2,0.8,0.2,1.3c-0.2-0.4-0.4-0.8-0.5-1.2c-0.1-0.2-0.2-0.4-0.2-0.6l-0.1-0.3l-0.1-0.1l0-0.1
					c0,0,0,0,0,0c0,0,0,0,0,0c0,0,0,0,0,0c0,0,0.2,0,0.2,0c0.1-0.1,0,0,0,0c0,0,0,0,0,0c0,0,0,0,0,0l0,0c0,0,0,0,0,0
					c-0.1,0.1-0.1,0.1-0.2,0.1c-0.1,0-0.1,0-0.1,0l0.2-0.2C118.1,112.8,118.1,113.1,118,113.4z"/>
			</g>
			<g>
				<path class="st4" d="M118.6,112.6c0.2,0.4,0.3,0.8,0.2,1.3c-0.1,0.4-0.3,0.8-0.7,1.1c0.1-0.4,0.2-0.8,0.3-1.1
					C118.5,113.4,118.5,113,118.6,112.6z"/>
			</g>
			<g>
				<path class="st4" d="M79.4,116.5c0.1-0.1,0.2,0,0.3,0.1c0.1,0.1,0.1,0.2,0.1,0.2c0.1,0.1,0.1,0.3,0.2,0.4
					c0.1,0.3,0.2,0.5,0.3,0.9c-0.3-0.1-0.5-0.4-0.7-0.7c-0.1-0.2-0.1-0.3-0.1-0.5c0-0.1,0-0.1,0-0.2
					C79.5,116.5,79.5,116.5,79.4,116.5z"/>
			</g>
			<g>
				<path class="st4" d="M80.9,116.2c0.4,0.3,0.6,0.6,0.9,1c0.2,0.4,0.4,0.7,0.5,1.2c-0.4-0.3-0.6-0.6-0.9-1
					C81.2,117,81,116.6,80.9,116.2z"/>
			</g>
			<g>
				<path class="st4" d="M82.2,117.1c0.1,0,0.2,0,0.2,0.1c0.1,0.1,0.1,0.1,0.1,0.2c0.1,0.1,0.1,0.2,0.2,0.3c0.1,0.1,0.1,0.2,0.2,0.3
					c0.1,0.1,0.1,0.2,0.2,0.3c0.1,0.2,0.4,0.3,0.6,0.4c0.2,0.1,0.5,0.3,0.6,0.5c-0.2-0.1-0.5-0.2-0.7-0.3c-0.2-0.1-0.5-0.2-0.7-0.4
					c-0.2-0.3-0.3-0.5-0.4-0.8c0-0.1-0.1-0.3-0.1-0.4c0-0.1,0-0.1,0-0.2C82.3,117.2,82.3,117.1,82.2,117.1z"/>
			</g>
			<g>
				<path class="st4" d="M84.8,119.1c0.1-0.1,0.3-0.1,0.4,0c0.1,0.1,0.2,0.2,0.2,0.3c0.1,0.2,0.1,0.4-0.1,0.6
					c-0.2-0.2-0.2-0.3-0.3-0.5c0-0.1-0.1-0.2-0.1-0.2C84.9,119.2,84.9,119.1,84.8,119.1z"/>
			</g>
			<g>
				<path class="st4" d="M85.7,120c0.4,0.2,0.7,0.5,1,0.9c0.2,0.4,0.4,0.8,0.4,1.2c-0.3-0.3-0.5-0.7-0.8-1
					C86.1,120.7,85.9,120.4,85.7,120z"/>
			</g>
			<g>
				<path class="st4" d="M89.4,122.3c-0.3-0.1-0.5-0.3-0.6-0.5c-0.1-0.2-0.2-0.5-0.2-0.8c0.3,0.2,0.4,0.3,0.6,0.5
					C89.2,121.8,89.4,122,89.4,122.3z"/>
			</g>
			<g>
				<path class="st4" d="M89.7,121.8c0.3,0.2,0.6,0.5,0.8,0.8c0.2,0.3,0.4,0.6,0.4,1c-0.3-0.2-0.6-0.5-0.8-0.8
					C89.9,122.5,89.8,122.2,89.7,121.8z"/>
			</g>
			<g>
				<path class="st4" d="M77.7,114.2C77.7,114.1,77.7,114.2,77.7,114.2c0.1,0,0.2,0,0.2,0.1l0.1,0.2c0,0.1,0.1,0.2,0.1,0.4
					c0.1,0.2,0.1,0.5,0.1,0.7c0,0.5,0,1-0.2,1.5c-0.1-0.5-0.1-1-0.2-1.5c0-0.2,0-0.5,0-0.7c0-0.1,0-0.2,0-0.4
					C77.7,114.3,77.8,114.2,77.7,114.2z"/>
			</g>
			<g>
				<path class="st4" d="M79.8,113.8c0.1,0.5,0.1,0.9,0.2,1.4c0,0.5,0,0.9,0,1.4c-0.3-0.4-0.4-0.9-0.4-1.4
					C79.6,114.8,79.6,114.3,79.8,113.8z"/>
			</g>
			<g>
				<path class="st4" d="M80.3,115.8c0.3,0.7,0.4,1.4,0.3,2.1c-0.1,0.7-0.3,1.4-0.8,2c0.1-0.7,0.3-1.4,0.4-2.1
					C80.3,117.2,80.3,116.5,80.3,115.8z"/>
			</g>
			<g>
				<path class="st4" d="M78,120.5c0.3,0.3,0.5,0.7,0.6,1.1c0.1,0.4,0.1,0.8,0,1.2c-0.2-0.4-0.3-0.8-0.4-1.2
					C78.1,121.3,78,120.9,78,120.5z"/>
			</g>
			<g>
				<path class="st4" d="M78,122.1c0.2,0.5,0.3,1,0.4,1.6c0,0.5,0,1.1-0.2,1.6c-0.2-0.5-0.2-1.1-0.2-1.6
					C77.9,123.2,77.9,122.6,78,122.1z"/>
			</g>
			<g>
				<path class="st4" d="M79.9,122.9c0.1,0.5,0,1,0.1,1.5c0,0.5,0.1,0.9,0.3,1.4c-0.4-0.3-0.6-0.9-0.7-1.4
					C79.5,123.8,79.6,123.3,79.9,122.9z"/>
			</g>
			<g>
				<path class="st4" d="M81.1,124.3c0.2,0.4,0.2,0.8,0.2,1.2c0,0.4-0.1,0.8-0.3,1.2c-0.1-0.4-0.1-0.8-0.1-1.2
					C80.9,125.1,81,124.7,81.1,124.3z"/>
			</g>
			<g>
				<path class="st4" d="M81.8,125.4c0.2,0.3,0.3,0.6,0.4,1c0.1,0.3,0.1,0.7,0,1.1c-0.2-0.3-0.3-0.6-0.4-1
					C81.8,126.1,81.7,125.8,81.8,125.4z"/>
			</g>
			<g>
				<path class="st4" d="M83.9,124.5c0.2,0.5,0.3,1,0.3,1.5c0,0.5,0,1-0.1,1.5c-0.2-0.5-0.3-1-0.3-1.5
					C83.8,125.5,83.8,125,83.9,124.5z"/>
			</g>
			<g>
				<path class="st4" d="M85,126c0.3,0.4,0.4,0.8,0.5,1.3c0.1,0.4,0.1,0.9,0,1.4c-0.2-0.4-0.3-0.9-0.4-1.3
					C85,126.9,84.9,126.5,85,126z"/>
			</g>
			<g>
				<path class="st4" d="M86.6,126.7c0.3,0.3,0.5,0.6,0.7,0.9c0.2,0.3,0.3,0.7,0.4,1.1c-0.3-0.3-0.5-0.6-0.7-0.9
					C86.8,127.5,86.7,127.1,86.6,126.7z"/>
			</g>
			<g>
				<path class="st4" d="M89,126.9C89,126.9,89,126.9,89,126.9c0.1,0,0.1,0,0.2,0c0,0.1,0.1,0.1,0.1,0.1c0,0.1,0.1,0.2,0.1,0.3
					c0.1,0.2,0.1,0.4,0.1,0.6c0,0.4-0.1,0.8-0.3,1.1c-0.1-0.4-0.1-0.8-0.1-1.1c0-0.2,0-0.4,0-0.5c0-0.1,0-0.2,0-0.3
					C89,127.1,89,127,89,126.9C89,127,89,126.9,89,126.9z"/>
			</g>
			<g>
				<path class="st4" d="M90.6,126.3c0.3,0.4,0.5,0.8,0.5,1.3c0,0.5-0.1,1-0.4,1.4c0-0.5,0-0.9,0-1.3
					C90.7,127.2,90.6,126.8,90.6,126.3z"/>
			</g>
			<g>
				<path class="st4" d="M91.6,126.9c0-0.1,0.2,0,0.2,0.1l0.1,0.2c0.1,0.1,0.1,0.2,0.1,0.4c0.1,0.2,0.1,0.5,0.2,0.8
					c0.1,0.5,0.1,1.1-0.1,1.6c-0.2-0.5-0.2-1-0.3-1.5c0-0.3-0.1-0.5-0.1-0.8l0-0.4C91.7,127.1,91.8,126.9,91.6,126.9z"/>
			</g>
			<g>
				<path class="st4" d="M93.7,126.6c0.3,0.4,0.5,0.9,0.5,1.4c0.1,0.5,0.1,1-0.1,1.5c-0.1-0.5-0.2-1-0.3-1.4
					C93.8,127.6,93.7,127.1,93.7,126.6z"/>
			</g>
			<g>
				<path class="st4" d="M92.1,126.9c-0.3,0.5-0.7,0.9-1.1,1.2c-0.5,0.3-1,0.5-1.6,0.6c0.5-0.3,0.9-0.6,1.3-0.9
					C91.2,127.5,91.7,127.2,92.1,126.9z"/>
			</g>
			<g>
				<path class="st4" d="M88.3,126.3c-0.1-0.1-0.2,0-0.2,0c0,0.1-0.1,0.1-0.1,0.2c-0.1,0.2-0.2,0.4-0.3,0.6c-0.2,0.4-0.4,0.7-0.7,1
					c0-0.4,0.1-0.9,0.3-1.2c0.1-0.2,0.2-0.4,0.3-0.5c0.1-0.1,0.1-0.2,0.3-0.2C88.1,126.1,88.3,126.1,88.3,126.3z"/>
			</g>
			<g>
				<path class="st4" d="M87.1,125.4c-0.1,0.1-0.1,0.1-0.1,0.2c0,0.1-0.1,0.2-0.1,0.2c-0.1,0.2-0.2,0.3-0.3,0.4
					c-0.2,0.3-0.5,0.5-0.8,0.7c0.1-0.4,0.3-0.7,0.5-1c0.1-0.1,0.2-0.3,0.4-0.4c0.1-0.1,0.1-0.1,0.2-0.2
					C86.9,125.5,87,125.4,87.1,125.4z"/>
			</g>
			<g>
				<path class="st4" d="M84.4,124.6c-0.2,0.1-0.2,0.2-0.3,0.3c-0.1,0.1-0.1,0.2-0.2,0.3c-0.1,0.2-0.2,0.5-0.3,0.8
					c-0.2-0.3-0.2-0.6-0.1-0.9c0.1-0.1,0.2-0.3,0.3-0.4C84,124.5,84.3,124.5,84.4,124.6z"/>
			</g>
			<g>
				<path class="st4" d="M83.6,122.9c0.1,0.4,0.1,0.8,0.1,1.2c0,0.4-0.1,0.8-0.3,1.2c-0.1-0.4-0.1-0.8-0.1-1.2
					C83.3,123.7,83.4,123.3,83.6,122.9z"/>
			</g>
			<g>
				<path class="st4" d="M96,124.9c0,0.4-0.2,0.8-0.4,1.1c-0.2,0.3-0.5,0.6-0.8,0.8c0.1-0.4,0.3-0.7,0.5-1.1
					C95.4,125.5,95.7,125.2,96,124.9z"/>
			</g>
			<g>
				<path class="st4" d="M96.3,125.7c0.1,0,0.1-0.1,0.2-0.1l0,0l0,0.1c0.1,0.3,0.1,0.6,0.1,0.9c0,0.3-0.1,0.6-0.3,0.9
					c-0.1-0.3-0.1-0.6-0.1-0.9c0-0.3,0.1-0.6,0.2-0.9l0,0.1C96.5,125.8,96.4,125.7,96.3,125.7z"/>
			</g>
			<g>
				<path class="st4" d="M98.9,126.3c0.1,0.4,0,0.7-0.1,1.1c-0.1,0.3-0.3,0.7-0.6,0.9c0-0.4,0.1-0.7,0.2-1
					C98.6,126.9,98.7,126.6,98.9,126.3z"/>
			</g>
			<g>
				<path class="st4" d="M102.1,126.1c0.1,0,0.2,0.2,0.2,0.3c0,0.1,0,0.2,0,0.4c0,0.2-0.1,0.5-0.2,0.7c-0.2,0.5-0.4,0.9-0.8,1.2
					c0.1-0.5,0.3-0.9,0.4-1.3l0.2-0.6l0.1-0.3C102.1,126.3,102.1,126.2,102.1,126.1z"/>
			</g>
			<g>
				<path class="st4" d="M104.2,125.9c0.2,0.3,0.3,0.5,0.3,0.8c0,0.3,0,0.6-0.2,0.9c-0.1-0.3-0.2-0.6-0.2-0.8
					C104.1,126.4,104.1,126.2,104.2,125.9z"/>
			</g>
			<g>
				<path class="st4" d="M106.2,124.8c0.2,0.2,0.3,0.4,0.3,0.6c0,0.2,0,0.4-0.1,0.7c-0.2-0.2-0.3-0.4-0.3-0.6
					C106.1,125.3,106.1,125.1,106.2,124.8z"/>
			</g>
			<g>
				<path class="st4" d="M108.2,124.4c0.2,0.2,0.3,0.5,0.3,0.7c0,0.2,0,0.5-0.1,0.8c-0.2-0.2-0.3-0.5-0.3-0.7
					C108.1,125,108.1,124.7,108.2,124.4z"/>
			</g>
			<g>
				<path class="st4" d="M106.3,124.8c-0.2,0.4-0.5,0.7-0.8,1.1c-0.3,0.3-0.6,0.7-1,1c0.1-0.5,0.4-0.9,0.7-1.2
					C105.5,125.3,105.8,125,106.3,124.8z"/>
			</g>
			<g>
				<path class="st4" d="M110.1,123.2c0.4,0.5,0.6,1.1,0.8,1.8c0.2,0.6,0.3,1.3,0.2,1.9c-0.3-0.6-0.4-1.2-0.6-1.8
					C110.4,124.4,110.2,123.8,110.1,123.2z"/>
			</g>
			<g>
				<path class="st4" d="M112.4,122.8c0.5,0.4,0.8,1,1,1.6c0.2,0.6,0.3,1.2,0.2,1.8c-0.2-0.6-0.4-1.1-0.6-1.7
					C112.8,123.9,112.6,123.4,112.4,122.8z"/>
			</g>
			<g>
				<path class="st4" d="M114.1,121.9c0.4,0.4,0.6,0.8,0.8,1.2c0.2,0.4,0.3,0.9,0.3,1.4c-0.3-0.4-0.5-0.8-0.6-1.3
					C114.3,122.9,114.2,122.4,114.1,121.9z"/>
			</g>
			<g>
				<path class="st4" d="M115.8,121c0.3,0.2,0.6,0.5,0.8,0.9c0.2,0.3,0.3,0.7,0.3,1.1c-0.3-0.3-0.5-0.6-0.7-0.9
					C116,121.7,115.9,121.4,115.8,121z"/>
			</g>
			<g>
				<path class="st4" d="M117.8,121.9c-0.2-0.3-0.4-0.6-0.6-0.9l-0.3-0.4l-0.1-0.2c0-0.1-0.1,0,0,0l0.1-0.3c0.4,0.9,0.6,1.9,0.4,2.9
					c-0.1-0.5-0.2-0.9-0.3-1.4c-0.1-0.5-0.3-0.9-0.5-1.3l-0.1-0.2l0.2,0c0.1,0,0.2,0,0.3,0.1c0.1,0,0.1,0.1,0.1,0.1l0.1,0.2
					c0.1,0.2,0.2,0.3,0.2,0.5C117.7,121.3,117.8,121.6,117.8,121.9z"/>
			</g>
			<g>
				<path class="st4" d="M116.8,123.4c0.1,0.3,0.2,0.6,0.1,0.9c0,0.3-0.1,0.6-0.2,0.8c-0.3,0.5-0.6,1-1.1,1.3c0.2-0.5,0.5-1,0.7-1.5
					C116.6,124.4,116.8,123.9,116.8,123.4z"/>
			</g>
			<g>
				<path class="st4" d="M113.8,127c0.3,0.4,0.4,0.9,0.4,1.3c0,0.5,0,0.9-0.2,1.4c-0.1-0.5-0.2-0.9-0.2-1.3
					C113.8,127.9,113.8,127.5,113.8,127z"/>
			</g>
			<g>
				<path class="st4" d="M112.9,127.9c0.2,0.3,0.3,0.7,0.3,1c0,0.4-0.1,0.7-0.3,1c-0.1-0.4-0.1-0.7-0.1-1
					C112.9,128.6,112.9,128.3,112.9,127.9z"/>
			</g>
			<g>
				<path class="st4" d="M110.8,129.3c-0.1,0.4-0.3,0.8-0.6,1.1c-0.3,0.3-0.7,0.6-1.1,0.7c0.3-0.4,0.5-0.6,0.8-0.9
					C110.2,129.8,110.4,129.6,110.8,129.3z"/>
			</g>
			<g>
				<path class="st4" d="M104.8,130c-0.1,0.1-0.2,0.2-0.3,0.4c-0.1,0.1-0.2,0.2-0.3,0.4c-0.2,0.2-0.5,0.4-0.7,0.6
					c-0.5,0.3-1.1,0.6-1.7,0.7c0.5-0.4,1-0.7,1.5-1c0.2-0.2,0.5-0.3,0.7-0.5l0.4-0.3C104.5,130.1,104.6,130,104.8,130z"/>
			</g>
			<g>
				<path class="st4" d="M100.6,130c0.1,0.5-0.1,1-0.3,1.4c-0.3,0.4-0.7,0.8-1.2,0.9c0.3-0.4,0.6-0.7,0.9-1.1
					C100.2,130.9,100.4,130.5,100.6,130z"/>
			</g>
			<g>
				<path class="st4" d="M97.7,130.4c-0.1,0.1-0.2,0.2-0.2,0.3c-0.1,0.1-0.1,0.3-0.2,0.4c-0.2,0.3-0.4,0.5-0.6,0.7
					c-0.5,0.4-1.1,0.6-1.7,0.5c0.5-0.3,1-0.5,1.4-0.9c0.2-0.2,0.4-0.3,0.6-0.5c0.1-0.1,0.2-0.2,0.3-0.3
					C97.4,130.5,97.5,130.4,97.7,130.4z"/>
			</g>
			<g>
				<path class="st4" d="M93.2,131c-0.6,0-1.1,0.3-1.6,0.6c-0.5,0.3-1.1,0.5-1.6,0.7c-1.1,0.4-2.3,0.7-3.4,0.8
					c1.1-0.4,2.2-0.8,3.3-1.2l1.6-0.6C92,131,92.7,130.8,93.2,131z"/>
			</g>
			<g>
				<path class="st4" d="M84.5,130.9c0.1,0.4-0.1,0.8-0.3,1.1c-0.2,0.3-0.5,0.6-0.9,0.6c0.2-0.3,0.4-0.6,0.6-0.9
					C84.1,131.5,84.3,131.2,84.5,130.9z"/>
			</g>
			<g>
				<path class="st4" d="M83.2,129.9c-0.1,0.5-0.4,1-0.7,1.4c-0.3,0.4-0.7,0.8-1.2,1c0.3-0.5,0.6-0.9,0.9-1.3
					C82.5,130.7,82.8,130.3,83.2,129.9z"/>
			</g>
			<g>
				<path class="st4" d="M81.9,128.3c-0.4,0.7-0.9,1.4-1.5,2c-0.6,0.6-1.3,1.1-2.1,1.4c0.6-0.6,1.2-1.1,1.8-1.7
					C80.7,129.5,81.2,128.9,81.9,128.3z"/>
			</g>
			<g>
				<path class="st4" d="M78.5,128.6c-0.2-0.4-0.2-0.8-0.2-1.2c0-0.2,0.1-0.4,0.1-0.6c0-0.1,0.1-0.2,0.1-0.3c0-0.1,0.1-0.2,0.3-0.2
					c-0.1,0.1-0.1,0.2-0.1,0.3l0,0.3c0,0.2,0,0.4-0.1,0.6C78.6,127.8,78.6,128.2,78.5,128.6z"/>
			</g>
			<g>
				<path class="st4" d="M86.6,126.6c0.2,0.7,0.3,1.3,0.3,2c0,0.7,0,1.4-0.2,2c-0.1-0.7-0.2-1.3-0.2-2
					C86.5,128,86.4,127.3,86.6,126.6z"/>
			</g>
			<g>
				<path class="st4" d="M88.1,128.6c0.3,0.1,0.5,0.4,0.7,0.7c0.1,0.3,0.2,0.6,0.1,1c-0.2-0.3-0.3-0.5-0.5-0.8
					C88.3,129.2,88.2,128.9,88.1,128.6z"/>
			</g>
		</g>
	</g>
	<g id="face">
		<g>
			<path class="st3" d="M52.9,48.7c-2.5,0-4.8,1.3-6.4,3.4c-1.2,2.2-1.7,4.5-0.3,6.7c0.9,3.8-0.6,8.5,6.9,12.9
				C58,71.5,62,66.4,62,60.1C62,53.8,57.9,48.7,52.9,48.7z"/>
			<path class="st5" d="M52.9,48.7c-1.3,0-2.5,0.4-3.6,1c-1.1,0.6-2,1.5-2.8,2.5l0,0c-0.6,1-1,2.1-1.1,3.3c-0.1,1.2,0.2,2.3,0.9,3.3
				l0,0l0,0c0.3,1.3,0.4,2.6,0.6,3.8s0.5,2.5,1,3.6c0.5,1.1,1.3,2.1,2.3,3c0.9,0.9,2,1.6,3.1,2.2l-0.1,0c1.3,0,2.6-0.4,3.7-1.1
				c1.1-0.7,2.1-1.6,2.8-2.7c1.5-2.2,2.3-4.8,2.3-7.5c0-2.7-0.7-5.4-2.2-7.6c-0.8-1.1-1.7-2.1-2.9-2.7
				C55.5,49.1,54.2,48.7,52.9,48.7z M52.9,48.7c1.3,0,2.7,0.4,3.8,1.1c1.2,0.7,2.2,1.6,2.9,2.7c1.6,2.2,2.4,4.9,2.4,7.6
				c0,2.7-0.6,5.5-2.2,7.7c-0.8,1.1-1.8,2.1-2.9,2.9c-1.2,0.7-2.5,1.2-3.9,1.2H53l-0.1,0c-1.1-0.7-2.2-1.4-3.1-2.3
				c-0.9-0.9-1.8-2-2.3-3.2c-0.6-1.2-0.8-2.5-1-3.8c-0.1-1.3-0.2-2.6-0.5-3.8l0,0c-0.6-1-0.9-2.2-0.8-3.4c0.1-1.2,0.6-2.3,1.2-3.3v0
				l0,0c0.8-1,1.7-1.8,2.9-2.4C50.4,49,51.6,48.6,52.9,48.7z"/>
		</g>
		<g>
			<path class="st3" d="M155.1,54c1.9,0.3,3.3,1.5,4.2,3.3c0.5,1.8,0.4,3.6-1,5.1c-1.4,2.8-1,6.5-7.4,9.1c-3.6-0.6-5.7-4.9-4.5-9.7
				C147.4,56.9,151.4,53.5,155.1,54z"/>
			<path class="st5" d="M155.1,54c0.9,0.1,1.8,0.5,2.5,1.1c0.7,0.6,1.3,1.3,1.7,2.2l0,0l0,0c0.3,0.9,0.4,1.8,0.2,2.7
				c-0.1,0.9-0.6,1.8-1.2,2.5l0,0c-0.4,0.9-0.7,1.9-1,2.9c-0.3,1-0.8,1.9-1.4,2.8c-0.6,0.8-1.4,1.6-2.3,2.1c-0.8,0.6-1.8,1-2.7,1.4
				l0,0l-0.1,0c-1.1-0.2-2.1-0.7-2.8-1.4c-0.8-0.7-1.3-1.7-1.7-2.7c-0.7-2-0.6-4.2,0-6.2c0.6-2,1.6-3.9,3.2-5.3
				c0.8-0.7,1.6-1.3,2.6-1.7C153,54,154,53.8,155.1,54z M155.1,54c-1-0.1-2.1,0-3,0.4c-1,0.4-1.8,1-2.6,1.7c-1.5,1.4-2.5,3.3-3,5.3
				c-0.5,2-0.5,4.1,0.1,6c0.3,1,0.9,1.8,1.6,2.5c0.7,0.7,1.6,1.2,2.6,1.3l-0.1,0c0.9-0.4,1.9-0.8,2.7-1.4c0.8-0.6,1.6-1.2,2.2-2
				c0.6-0.8,1.1-1.7,1.4-2.7c0.4-1,0.6-1.9,1.1-2.9l0,0l0,0c0.6-0.7,1.1-1.5,1.2-2.4c0.2-0.9,0.1-1.8-0.2-2.7v0
				c-0.4-0.8-0.9-1.6-1.7-2.2C156.9,54.5,156,54.1,155.1,54z"/>
		</g>
		<g>
			<path class="st6" d="M109.9,123.4c10-3.2,20.8-11.1,20.5-17.1c2.4-0.8,20.4-29.5,18.3-40.8c6.3-6.8,6.3-16.2,4.8-26.4
				c-39.6-7.8-76.4-12.1-98.1,2.1c-3.5,25.3-4.4,48.9,11.9,62c3.8,11.1,11.4,19.3,23.6,21.1"/>
			<path class="st5" d="M109.9,123.4c2.2-0.7,4.4-1.6,6.5-2.7c2.1-1.1,4.1-2.3,6-3.6c1.9-1.4,3.7-2.9,5.2-4.6c0.8-0.9,1.4-1.8,2-2.9
				c0.3-0.5,0.5-1.1,0.6-1.6c0.1-0.6,0.2-1.1,0.2-1.7v-0.1l0.1,0c0.4-0.2,0.7-0.6,1-0.9c0.3-0.4,0.6-0.7,0.9-1.1
				c0.6-0.8,1.1-1.5,1.7-2.3c1.1-1.6,2.1-3.2,3.1-4.8c2-3.3,3.8-6.6,5.5-10s3.2-6.9,4.4-10.5c0.6-1.8,1.1-3.6,1.4-5.5
				c0.3-1.9,0.5-3.8,0.2-5.6l0-0.1l0.1-0.1c1.6-1.7,2.8-3.7,3.7-5.8c0.9-2.1,1.4-4.4,1.6-6.7c0.3-2.3,0.3-4.6,0.2-6.9
				c-0.1-2.3-0.4-4.6-0.7-6.9l0.2,0.2c-8.2-1.6-16.4-3.1-24.7-4.3c-8.3-1.2-16.6-2.2-24.9-2.6c-8.3-0.4-16.7-0.4-25,0.9
				c-4.1,0.6-8.2,1.5-12.2,2.8c-3.9,1.3-7.7,3.1-11.2,5.4l0.1-0.1c-0.8,5.5-1.4,10.9-1.8,16.4c-0.4,5.5-0.5,11,0,16.5
				c0.5,5.5,1.6,10.9,3.8,16c1.1,2.5,2.5,4.9,4.1,7.1c1.6,2.2,3.6,4.2,5.7,5.9l0,0l0,0c0.9,2.6,2,5.2,3.4,7.6
				c1.4,2.4,3.1,4.6,5.2,6.5c2,1.9,4.4,3.5,6.9,4.6c2.5,1.2,5.2,1.9,8,2.4c-2.8-0.4-5.5-1.2-8-2.3c-2.5-1.2-4.9-2.7-6.9-4.6
				c-2.1-1.9-3.8-4.1-5.2-6.5c-1.4-2.4-2.6-4.9-3.5-7.6l0,0.1c-4.3-3.4-7.7-8-9.9-13.1c-2.2-5.1-3.3-10.6-3.8-16.1
				c-0.5-5.5-0.4-11-0.1-16.5c0.4-5.5,1-11,1.8-16.4l0-0.1l0.1-0.1c3.5-2.3,7.4-4.1,11.3-5.4c4-1.3,8.1-2.3,12.2-2.9
				c8.3-1.2,16.7-1.3,25.1-0.9c8.4,0.4,16.7,1.4,24.9,2.7c8.3,1.2,16.5,2.8,24.7,4.4l0.1,0l0,0.1c0.3,2.3,0.6,4.6,0.7,6.9
				c0.1,2.3,0.1,4.6-0.2,7c-0.3,2.3-0.8,4.6-1.7,6.8c-0.9,2.2-2.2,4.2-3.7,5.9l0-0.2c0.3,1.9,0.1,3.9-0.2,5.7
				c-0.3,1.9-0.9,3.7-1.5,5.5c-1.2,3.6-2.8,7.1-4.4,10.5c-1.7,3.4-3.5,6.7-5.5,10c-1,1.6-2,3.2-3.1,4.8c-0.5,0.8-1.1,1.6-1.7,2.3
				c-0.3,0.4-0.6,0.7-0.9,1.1c-0.3,0.3-0.6,0.7-1.1,1l0.1-0.1c0,0.6-0.1,1.2-0.2,1.8c-0.2,0.6-0.4,1.1-0.7,1.6c-0.5,1.1-1.2,2-2,2.9
				c-1.5,1.8-3.3,3.3-5.3,4.6s-3.9,2.5-6,3.6C114.3,121.8,112.1,122.7,109.9,123.4z"/>
		</g>
		<g>
			<path class="st6" d="M102.1,77.3c-0.3,4.2-1.7,7-4,8.2"/>
			<path class="st5" d="M102.1,77.3c0.1,1.6-0.1,3.2-0.7,4.7c-0.3,0.8-0.7,1.5-1.3,2.1c-0.5,0.6-1.2,1.1-2,1.4
				c1.3-0.9,2.2-2.2,2.8-3.7C101.5,80.4,101.8,78.9,102.1,77.3z"/>
		</g>
		<g>
			<path class="st6" d="M83.6,104.6c9.8-2.1,19.8-4.4,24.4,0.8"/>
			<path class="st5" d="M83.6,104.6c1-0.3,2.1-0.5,3.1-0.8c1-0.2,2.1-0.5,3.1-0.7c2.1-0.4,4.2-0.8,6.3-1c2.1-0.2,4.3-0.2,6.4,0.2
				c1.1,0.2,2.1,0.6,3,1.1c0.9,0.5,1.8,1.2,2.5,2c-1.5-1.5-3.5-2.4-5.6-2.7c-2.1-0.3-4.2-0.3-6.3-0.1c-2.1,0.2-4.2,0.5-6.3,0.9
				c-1,0.2-2.1,0.4-3.1,0.6C85.7,104.3,84.7,104.5,83.6,104.6z"/>
		</g>
		<g>
			<path class="st5" d="M87.5,114.9c0.6,0.6,1.3,1,2.1,1.3c0.8,0.3,1.6,0.5,2.4,0.6c1.6,0.2,3.3,0.1,4.9-0.3
				c1.6-0.4,3.2-0.9,4.7-1.5c0.8-0.3,1.6-0.6,2.3-1c0.8-0.3,1.5-0.7,2.2-1.2c-1.3,1.1-2.9,1.8-4.4,2.5c-1.5,0.7-3.1,1.3-4.8,1.7
				c-0.8,0.2-1.7,0.3-2.5,0.3c-0.9,0-1.7,0-2.5-0.2c-0.8-0.2-1.7-0.4-2.4-0.8C88.7,116.1,88,115.6,87.5,114.9z"/>
		</g>
		<g>
			<path class="st5" d="M87.6,118.9l0,0.3l0,0c1,0.3,2.1,0.5,3.2,0.6c1.1,0.1,2.2,0.2,3.3,0.2l1.6,0c0.6,0,1.1,0,1.5-0.2
				c0.5-0.2,0.9-0.5,1.4-0.8c0.5-0.3,1-0.6,1.5-0.6c-1.1,0.3-1.7,1.3-2.7,1.8c-0.5,0.3-1.2,0.3-1.7,0.3c-0.6,0-1.1,0-1.7,0
				c-1.1,0-2.2-0.1-3.3-0.3c-1.1-0.2-2.2-0.5-3.2-1l0,0v0L87.6,118.9z"/>
		</g>
	</g>
	<g>
		<g>
			<path class="st4" d="M68.7,97.8c-0.3,1.4-0.7,2.9-1,4.3c-0.3,1.4-0.5,2.9-0.8,4.3c-0.1-1.5,0.1-3,0.4-4.4
				C67.6,100.6,68.1,99.2,68.7,97.8z"/>
		</g>
		<g>
			<path class="st4" d="M71.2,97.7l-0.5,3.2c-0.1,1-0.3,2.1-0.4,3.1c-0.1,1-0.2,2.1-0.3,3.2c0,0.5-0.1,1.1,0,1.6
				c0,0.3,0.1,0.5,0.2,0.7c0.1,0.2,0.4,0.4,0.6,0.4c-0.3,0-0.5-0.1-0.7-0.4c-0.2-0.2-0.3-0.5-0.4-0.7c-0.1-0.5-0.1-1.1-0.1-1.6
				c0-1.1,0.1-2.1,0.2-3.2c0.1-1.1,0.3-2.1,0.5-3.2C70.6,99.7,70.9,98.7,71.2,97.7z"/>
		</g>
		<g>
			<path class="st4" d="M73.4,96l-0.8,3.8c-0.3,1.3-0.5,2.5-0.8,3.8c-0.2,1.3-0.5,2.5-0.7,3.8l-0.6,3.8c0-1.3,0.1-2.6,0.3-3.9
				c0.1-1.3,0.4-2.5,0.6-3.8c0.2-1.3,0.5-2.5,0.9-3.8C72.6,98.4,73,97.2,73.4,96z"/>
		</g>
		<g>
			<path class="st4" d="M76,97.9c-0.5,1.7-1.2,3.3-1.9,4.9l-0.5,1.2c-0.2,0.4-0.4,0.8-0.4,1.2c-0.1,0.4,0,0.8,0.2,1.1
				c0.2,0.3,0.7,0.6,1.1,0.5c-0.4,0.2-0.9,0-1.2-0.3c-0.2-0.2-0.3-0.4-0.3-0.6c-0.1-0.2-0.1-0.5,0-0.7c0.1-0.5,0.2-0.9,0.4-1.3
				l0.5-1.2C74.4,101,75.1,99.4,76,97.9z"/>
		</g>
		<g>
			<path class="st4" d="M80.6,97.2c-0.6,1.2-1.4,2.2-2.1,3.3c-0.8,1-1.6,2.1-2.5,3c0.6-1.2,1.4-2.2,2.1-3.3
				C78.9,99.2,79.7,98.1,80.6,97.2z"/>
		</g>
		<g>
			<path class="st4" d="M81.2,95.5c0,1.3-0.3,2.5-0.7,3.7c-0.4,1.2-0.8,2.4-1.5,3.4c0.3-1.2,0.7-2.4,1.1-3.6
				C80.5,97.9,80.8,96.7,81.2,95.5z"/>
		</g>
		<g>
			<path class="st4" d="M83.7,103.3c0.3-0.8,0.6-1.6,0.8-2.4c0.2-0.8,0.4-1.6,0.5-2.4c0.1-0.8,0.2-1.6,0.2-2.5c0-0.4,0-0.8,0-1.2
				c0-0.2,0-0.4-0.1-0.5c0-0.1-0.1-0.1-0.1-0.2c0,0,0,0-0.1,0l0.1-0.2c-0.1,0.8-0.1,1.6-0.1,2.4c0,0.8,0,1.6,0,2.4
				c0,0.8-0.1,1.6-0.3,2.4C84.5,101.9,84.2,102.6,83.7,103.3z M83.7,103.3c0.4-0.7,0.6-1.5,0.8-2.3c0.2-0.8,0.2-1.6,0.2-2.4
				c0-1.6-0.2-3.2,0-4.8l0-0.1l0.1-0.1c0.1-0.1,0.4-0.1,0.5,0c0.1,0.1,0.2,0.2,0.3,0.3c0.1,0.2,0.1,0.5,0.1,0.7c0,0.4,0,0.8,0,1.3
				c0,0.8-0.1,1.7-0.3,2.5c-0.2,0.8-0.4,1.6-0.7,2.4C84.5,101.8,84.1,102.6,83.7,103.3z"/>
		</g>
		<g>
			<path class="st4" d="M83,93.3c-0.7,1.5-1.4,3-2.2,4.5c-0.8,1.5-1.7,2.9-2.6,4.3c0.7-1.5,1.4-3,2.2-4.5C81.2,96.1,82,94.6,83,93.3
				z"/>
		</g>
		<g>
			<path class="st4" d="M86.6,94c0.5,1.7,0.3,3.6-0.3,5.3c-0.7,1.7-1.8,3.2-3.3,4.2c1.3-1.2,2.3-2.7,2.9-4.3
				C86.5,97.6,86.7,95.8,86.6,94z"/>
		</g>
		<g>
			<path class="st4" d="M89.9,92.6c0.3,1.8,0.1,3.6-0.3,5.3c-0.4,1.7-1.2,3.4-2.3,4.8c0.8-1.6,1.4-3.2,1.8-4.9
				C89.6,96.1,89.9,94.4,89.9,92.6z"/>
		</g>
		<g>
			<path class="st4" d="M90.8,100.8c1.2-2.5,1.6-5.3,1.3-8l0,0l0.4,0c0,0.7,0,1.4-0.1,2.1c-0.1,0.7-0.2,1.4-0.3,2
				c-0.1,0.7-0.3,1.3-0.5,2C91.4,99.5,91.2,100.2,90.8,100.8z M90.8,100.8c0.3-0.6,0.5-1.3,0.7-1.9c0.2-0.7,0.3-1.3,0.4-2
				c0.2-1.3,0.3-2.7,0.3-4l0.4,0l0,0C92.8,95.6,92.1,98.4,90.8,100.8z"/>
		</g>
		<g>
			<path class="st4" d="M94.4,91.9c0.5,1.2,0.7,2.5,0.8,3.9c0.1,1.3,0,2.6-0.2,3.9c-0.1-1.3-0.1-2.6-0.2-3.9
				C94.7,94.5,94.6,93.3,94.4,91.9z"/>
		</g>
		<g>
			<path class="st4" d="M96.7,100.6c0.8-1.5,1.4-3.1,1.8-4.7c0.2-0.8,0.4-1.6,0.5-2.5c0.1-0.8,0.2-1.7,0.3-2.5l0.4,0
				c0.1,1.5,0.3,3,0.3,4.5c0.1,1.5,0.1,3-0.1,4.5c0-1.5-0.1-3-0.2-4.5l-0.5-4.5l0.4,0c0,0.9-0.1,1.7-0.3,2.6
				c-0.2,0.8-0.3,1.7-0.6,2.5C98.3,97.6,97.6,99.2,96.7,100.6z"/>
		</g>
		<g>
			<path class="st4" d="M103.2,94.1c0,1.2-0.1,2.4-0.2,3.6c-0.2,1.2-0.3,2.4-0.7,3.5c0-1.2,0.1-2.4,0.2-3.6
				C102.7,96.4,102.9,95.2,103.2,94.1z"/>
		</g>
		<g>
			<path class="st4" d="M105.4,90.5c0.1,1.5,0,3-0.2,4.5c-0.2,1.5-0.6,3-1.2,4.3c0.2-1.5,0.5-2.9,0.7-4.4
				C105.1,93.4,105.2,92,105.4,90.5z"/>
		</g>
		<g>
			<path class="st4" d="M108.1,91.3c0.2,1.6,0.2,3.2,0,4.8c-0.2,1.6-0.5,3.2-1.1,4.7c0.2-1.6,0.5-3.1,0.7-4.7
				C107.8,94.5,107.9,92.9,108.1,91.3z"/>
		</g>
		<g>
			<path class="st4" d="M109.8,92c0.3,1.4,0.3,2.9,0.1,4.3c-0.2,1.4-0.7,2.8-1.4,4.1c0.4-1.4,0.7-2.8,0.9-4.2
				C109.7,94.8,109.8,93.4,109.8,92z"/>
		</g>
		<g>
			<path class="st4" d="M112.1,92.6c0.1,1.5-0.1,3.1-0.4,4.6c-0.3,1.5-0.9,2.9-1.6,4.3c0.4-1.5,0.9-2.9,1.2-4.4
				C111.6,95.6,111.8,94.1,112.1,92.6z"/>
		</g>
		<g>
			<path class="st4" d="M113.6,92.8c0,1.4-0.1,2.9-0.3,4.3c-0.2,1.4-0.6,2.8-1.1,4.2c0.2-1.4,0.4-2.8,0.7-4.2
				C113.1,95.6,113.3,94.2,113.6,92.8z"/>
		</g>
		<g>
			<path class="st4" d="M116.4,92.6c0.4,1.7,0.4,3.5,0.2,5.3c-0.2,1.8-0.8,3.5-1.6,5c0.5-1.7,0.9-3.4,1.2-5.1
				C116.4,96.1,116.5,94.4,116.4,92.6z"/>
		</g>
		<g>
			<path class="st4" d="M118.5,94.1c0,1,0,2-0.1,3.1c-0.1,1-0.3,2-0.4,3c-0.2,1-0.4,2-0.7,3c-0.3,1-0.6,1.9-1,2.9c0.2-1,0.5-2,0.7-3
				c0.2-1,0.4-2,0.6-3c0.2-1,0.4-2,0.5-3C118.2,96.1,118.4,95.1,118.5,94.1z"/>
		</g>
		<g>
			<path class="st4" d="M118.2,107.7c0.7-1.8,1.3-3.6,1.7-5.4c0.5-1.8,0.8-3.7,1-5.6l0.4,0.1c-0.2,1.4-0.2,2.8-0.2,4.2
				c0,1.4-0.1,2.8-0.5,4.2c0.1-0.7,0.2-1.4,0.2-2.1c0-0.7,0-1.4,0-2.1c0-1.4-0.1-2.8,0.1-4.2l0.4,0.1c-0.2,1.9-0.6,3.8-1.1,5.6
				C119.8,104.3,119.1,106,118.2,107.7z"/>
		</g>
		<g>
			<path class="st4" d="M124.9,97c0.1,1.5,0,3-0.3,4.4c-0.3,1.5-0.8,2.9-1.5,4.2c0.4-1.4,0.8-2.8,1-4.3
				C124.5,99.9,124.7,98.5,124.9,97z"/>
		</g>
		<g>
			<path class="st4" d="M127.7,108.2c0.5-1.7,0.8-3.3,1-5c0.2-1.7,0.2-3.4,0.1-5.1c0.5,1.7,0.5,3.4,0.4,5.2
				C128.9,105,128.5,106.7,127.7,108.2z"/>
		</g>
		<g>
			<path class="st4" d="M132,97c0,1.2,0.2,2.4,0.3,3.7c0.1,0.6,0.1,1.2,0,1.9c-0.1,0.6-0.2,1.2-0.4,1.8c-0.4,1.2-0.8,2.3-1.5,3.4
				c-0.6,1.1-1.4,2.1-2.3,2.9c0.7-1,1.4-2,2-3.1c0.6-1.1,1-2.2,1.3-3.4c0.2-0.6,0.3-1.2,0.4-1.8c0.1-0.6,0.1-1.2,0.1-1.8l-0.1-1.8
				C131.9,98.2,131.9,97.6,132,97z"/>
		</g>
		<g>
			<path class="st4" d="M120.2,108.2c0.4,1.7,0.4,3.5,0.3,5.2c-0.1,1.7-0.4,3.5-1,5.1c0.3-1.7,0.5-3.4,0.6-5.1
				C120.2,111.6,120.2,109.9,120.2,108.2z"/>
		</g>
		<g>
			<path class="st4" d="M117.8,118.1c0.2-1.3,0.3-2.6,0.3-3.9c0-1.3-0.2-2.6-0.4-3.9l0.4-0.1c0.1,1,0.2,2,0.1,3c0,1-0.2,2-0.3,3
				c-0.3,2-0.8,3.9-1.5,5.7c0.4-1.9,0.8-3.8,1.1-5.8c0.1-1,0.2-1.9,0.3-2.9c0-1,0-1.9-0.1-2.9l0.4-0.1c0.3,1.3,0.4,2.6,0.3,4
				C118.4,115.5,118.2,116.8,117.8,118.1z"/>
		</g>
		<g>
			<path class="st4" d="M111.3,113.6c0.1,1.6,0,3.2-0.2,4.8c-0.1,0.8-0.3,1.6-0.5,2.3c-0.2,0.8-0.6,1.5-1.1,2.1
				c0.3-0.7,0.6-1.5,0.7-2.2c0.2-0.8,0.3-1.5,0.4-2.3C110.9,116.8,111.1,115.2,111.3,113.6z"/>
		</g>
		<g>
			<path class="st4" d="M107.8,115.7c0.5,1.4,0.6,3,0.4,4.5c-0.2,1.5-0.6,3-1.4,4.3c0.5-1.4,0.8-2.9,1-4.4
				C108,118.7,108,117.2,107.8,115.7z"/>
		</g>
		<g>
			<path class="st4" d="M104.8,118.1c-0.1,1.3-0.4,2.6-0.9,3.9c-0.4,1.2-1,2.5-1.7,3.6l-0.5,0.9l0.2-1c0.4-1.6,0.4-3.3,0.3-5
				c-0.1-1.7-0.4-3.3-0.7-5l0.4,0c-0.6,2-1.1,3.9-1.6,5.9c-0.2,1-0.5,2-0.7,3c-0.2,1-0.4,2-0.6,3c0.1-1,0.3-2,0.4-3
				c0.2-1,0.4-2,0.6-3c0.4-2,0.9-4,1.5-6l0.2-0.8l0.2,0.8c0.3,1.7,0.6,3.3,0.7,5.1c0.1,1.7,0,3.4-0.4,5.1l-0.3-0.1
				c0.7-1.1,1.3-2.3,1.8-3.5C104.2,120.6,104.6,119.3,104.8,118.1z"/>
		</g>
		<g>
			<path class="st4" d="M100.4,114.1c-0.3,1-0.6,2-1,3c-0.3,1-0.7,2-1.1,3c-0.4,1-0.8,2-1.2,3c-0.4,1-0.8,2-1.3,2.9c0.3-1,0.6-2,1-3
				c0.3-1,0.7-2,1.1-3c0.4-1,0.8-2,1.2-3C99.5,116,99.9,115,100.4,114.1z"/>
		</g>
		<g>
			<path class="st4" d="M96.9,117.2l-0.8,2.9c-0.3,1-0.5,1.9-0.8,2.9c-0.3,1-0.5,1.9-0.7,2.9l-0.7,2.9c0.1-1,0.2-2,0.4-3
				c0.2-1,0.4-2,0.6-2.9c0.3-1,0.5-1.9,0.9-2.9C96.1,119,96.5,118.1,96.9,117.2z"/>
		</g>
		<g>
			<path class="st4" d="M93.6,116.3l-0.6,4.8l-0.6,4.8c-0.1-1.6,0-3.3,0.2-4.9C92.8,119.5,93.1,117.9,93.6,116.3z"/>
		</g>
		<g>
			<path class="st4" d="M88,125.8c-0.3-1.9-0.5-3.9-0.5-5.9c-0.1-2-0.1-3.9,0.1-5.9c0.2,2,0.3,3.9,0.3,5.9
				C88,121.9,88,123.9,88,125.8z"/>
		</g>
		<g>
			<path class="st4" d="M85.4,114.9c0.1,1.5,0.1,3,0.1,4.4c0,1.5,0.1,2.9,0.1,4.4c-0.3-1.4-0.5-2.9-0.5-4.4
				C85,117.8,85.1,116.4,85.4,114.9z"/>
		</g>
		<g>
			<path class="st4" d="M81.1,123.1c-0.3-0.3-0.5-0.8-0.6-1.2c-0.1-0.5-0.1-0.9-0.1-1.4c0-0.9,0.1-1.8,0.2-2.7
				c0.1-0.9,0.1-1.8,0.3-2.7c0.1-0.9,0.3-1.8,0.4-2.7l0.4,0c0,1.8-0.2,3.6-0.5,5.4c-0.3,1.8-0.5,3.6-0.5,5.4h-0.4
				c0-1.6,0-3.1,0.2-4.6c0.1-0.8,0.2-1.5,0.3-2.3c0.1-0.8,0.2-1.5,0.4-2.3c-0.1,0.8-0.2,1.5-0.3,2.3c-0.1,0.8-0.1,1.5-0.2,2.3
				c-0.1,1.5-0.1,3.1,0,4.6h-0.4c0-1.8,0.2-3.6,0.5-5.4c0.1-0.9,0.2-1.8,0.3-2.7c0.1-0.9,0.1-1.8,0.2-2.7l0.4,0
				c-0.4,1.8-0.6,3.6-0.8,5.4l-0.3,2.7C80.5,121.4,80.5,122.4,81.1,123.1z"/>
		</g>
		<g>
			<path class="st4" d="M78,110c0.1,1,0.2,2,0.2,3c0,1,0,2,0,3c0,1,0,2-0.1,3c-0.1,1-0.2,2-0.3,3c0-1,0-2,0-3l0-3l0.1-3
				C77.9,112,78,111.1,78,110z"/>
		</g>
		<g>
			<path class="st4" d="M76.1,108.7c-0.5,1.2-1,2.5-1.2,3.8c-0.2,1.3-0.3,2.6-0.2,4c-0.4-1.3-0.5-2.7-0.2-4.1
				C74.8,111.1,75.3,109.8,76.1,108.7z"/>
		</g>
		<g>
			<path class="st4" d="M74.4,108.4c0.3,0.7,0.3,1.5,0.3,2.2c0,0.7-0.1,1.5,0,2.2c0,0.7,0.2,1.4,0.5,2c0.3,0.6,0.8,1.2,1.5,1.4
				c-0.7-0.1-1.4-0.6-1.8-1.2c-0.4-0.7-0.6-1.4-0.7-2.2C74.2,111.3,74.6,109.8,74.4,108.4z"/>
		</g>
		<g>
			<path class="st4" d="M72.1,117.8c-0.5,0-1-0.2-1.5-0.6c-0.4-0.3-0.8-0.8-1-1.2c-0.5-1-0.6-2.1-0.6-3.2c0-1.1,0.1-2.1,0.3-3.2
				c0.2-1,0.5-2.1,1-3c-0.3,1-0.5,2-0.6,3.1c-0.1,1-0.2,2.1-0.2,3.1c0,1,0.1,2.1,0.5,3c0.2,0.5,0.5,0.9,0.9,1.2
				C71.1,117.5,71.6,117.7,72.1,117.8z"/>
		</g>
		<g>
			<path class="st4" d="M71.6,106.5c-0.2,1.3-0.3,2.5-0.3,3.8c0,1.3,0,2.5,0.1,3.8c0.2,1.2,0.5,2.5,1.4,3.3c0.4,0.4,1,0.7,1.6,0.8
				c0.6,0.1,1.2,0.1,1.9,0.2l-0.2,0.2c0-1.7-0.2-3.5-0.3-5.3c-0.1-1.8-0.1-3.6,0.2-5.3l0.3,0c0,1.5,0.2,3,0.5,4.4
				c0.3,1.5,0.6,2.9,0.7,4.4c-0.2-1.5-0.5-2.9-0.9-4.4c-0.3-1.5-0.6-3-0.6-4.5l0.3,0c-0.3,1.7-0.3,3.5-0.2,5.2
				c0.1,1.8,0.3,3.5,0.3,5.3v0.2l-0.2,0c-0.6,0-1.3,0-1.9-0.2c-0.6-0.1-1.3-0.4-1.8-0.9c-0.5-0.5-0.8-1-1-1.7
				c-0.2-0.6-0.3-1.3-0.4-1.9C70.9,111.5,71.1,109,71.6,106.5z"/>
		</g>
		<g>
			<path class="st4" d="M82.7,109.6c-0.1,0.9-0.1,1.9,0.1,2.8c0.2,0.9,0.5,1.8,0.8,2.6c0.3,0.9,0.7,1.7,1,2.6
				c0.3,0.9,0.6,1.8,0.7,2.7c-0.6-1.8-1.4-3.4-2.1-5.2c-0.3-0.9-0.6-1.8-0.8-2.7C82.3,111.5,82.4,110.5,82.7,109.6z"/>
		</g>
		<g>
			<path class="st4" d="M88.5,114c0.3,1.9,0.4,3.8,0.5,5.7c0.1,1.9,0.2,3.8,0.1,5.7c-0.3-1.9-0.4-3.8-0.5-5.7
				C88.6,117.8,88.5,115.9,88.5,114z"/>
		</g>
		<g>
			<path class="st4" d="M92.3,117.2c0,1.4-0.2,2.7-0.3,4c-0.2,1.3-0.4,2.7-0.8,4c0-1.4,0.2-2.7,0.3-4
				C91.8,119.8,92,118.5,92.3,117.2z"/>
		</g>
		<g>
			<path class="st4" d="M92,113.8c0.3,1.1,0.6,2.3,0.8,3.5c0.2,1.2,0.4,2.3,0.5,3.5c0.1,1.2,0.2,2.4,0.2,3.6c0,1.2,0,2.4,0,3.6
				l-0.3-3.5c-0.1-1.2-0.2-2.4-0.3-3.5c-0.1-1.2-0.3-2.3-0.4-3.5L92,113.8z"/>
		</g>
		<g>
			<path class="st4" d="M95.8,118.2c0.7,1.3,1.2,2.8,1.5,4.3c0.2,1.5,0.3,3,0,4.5c-0.1-1.5-0.2-3-0.5-4.5
				C96.6,121.1,96.2,119.7,95.8,118.2z"/>
		</g>
		<g>
			<path class="st4" d="M99,116.4c0.3,1.5,0.4,3,0.5,4.5c0,1.5,0,3-0.2,4.5c-0.1-1.5-0.2-3-0.2-4.5C99,119.4,99,117.9,99,116.4z"/>
		</g>
		<g>
			<path class="st4" d="M101.4,115.5c0.4,1.5,0.6,2.9,0.8,4.4c0.2,1.5,0.3,3,0.3,4.5c-0.4-1.5-0.6-2.9-0.8-4.4
				C101.5,118.5,101.4,117,101.4,115.5z"/>
		</g>
		<g>
			<path class="st4" d="M103,115.1c0.7,1.1,1.1,2.2,1.5,3.4c0.3,1.2,0.6,2.4,0.6,3.7c-0.4-1.2-0.7-2.4-1-3.6
				C103.7,117.5,103.3,116.3,103,115.1z"/>
		</g>
		<g>
			<path class="st4" d="M106.6,110.9c0.5,1,0.9,1.9,1.3,2.9c0.4,1,0.8,2,1.1,3c0.3,1,0.7,2,0.9,3c0.3,1,0.5,2.1,0.7,3.1
				c-0.4-1-0.7-2-1.1-3l-1-3l-1-3C107.2,112.9,106.9,111.9,106.6,110.9z"/>
		</g>
		<g>
			<path class="st4" d="M81.8,110.3c0.4,1.5,0.7,3.1,0.8,4.7c0.1,1.6,0.2,3.2,0.1,4.8c-0.2-1.6-0.4-3.1-0.5-4.7
				C82,113.4,81.8,111.9,81.8,110.3z"/>
		</g>
		<g>
			<path class="st4" d="M80.2,107.3c0.5-1.4,1.1-2.8,1.8-4.1c0.7-1.3,1.5-2.6,2.3-3.8l2.5-3.7c0.8-1.2,1.6-2.5,2.4-3.8
				c-0.6,1.4-1.3,2.7-2.1,3.9c-0.8,1.3-1.6,2.5-2.4,3.8c-0.8,1.2-1.6,2.5-2.4,3.8C81.5,104.7,80.8,106,80.2,107.3z"/>
		</g>
		<g>
			<path class="st4" d="M77.6,96c-0.6,1.7-1.4,3.4-2.3,5c-0.9,1.6-1.9,3.1-3.1,4.5l2.7-4.7L77.6,96z"/>
		</g>
		<g>
			<path class="st4" d="M74.6,94.9c0,1.5-0.3,3.1-0.8,4.5c-0.5,1.4-1.3,2.8-2.3,3.9c0.7-1.3,1.4-2.7,1.9-4.1
				C73.9,97.9,74.3,96.4,74.6,94.9z"/>
		</g>
		<g>
			<path class="st4" d="M88.4,92.8c-0.5,1.5-1,3-1.5,4.5c-0.5,1.5-0.9,3-1.4,4.5c0.2-1.6,0.5-3.1,1-4.7C87,95.7,87.6,94.2,88.4,92.8
				z"/>
		</g>
		<g>
			<path class="st4" d="M94.2,94.5c0.2,1.6,0.1,3.2-0.3,4.7c-0.4,1.5-1,3-1.9,4.3c0.6-1.5,1.1-2.9,1.5-4.4
				C93.8,97.6,94,96.1,94.2,94.5z"/>
		</g>
		<g>
			<path class="st4" d="M105,94.9c0,1.8-0.4,3.5-1,5.2c-0.7,1.6-1.6,3.2-2.8,4.5c0.9-1.5,1.8-3,2.4-4.6
				C104.3,98.3,104.7,96.6,105,94.9z"/>
		</g>
		<g>
			<path class="st4" d="M110.5,94.4c0.9,1.4,1.4,2.9,1.7,4.5c0.3,1.6,0.2,3.2-0.1,4.8c0-1.6,0-3.2-0.3-4.7
				C111.5,97.4,111,95.9,110.5,94.4z"/>
		</g>
		<g>
			<path class="st4" d="M123.1,96.4c0,0.7,0,1.5-0.2,2.2c-0.1,0.7-0.4,1.4-0.6,2.1c-0.5,1.4-1.1,2.7-1.5,4.1l-0.2,0.7l-0.2-0.7
				c-0.6-1.8-1-3.7-1.3-5.7c-0.3-1.9-0.5-3.8-0.5-5.8c0.2,1.9,0.5,3.8,0.8,5.7c0.3,1.9,0.8,3.8,1.3,5.6l-0.4,0
				c0.2-0.7,0.5-1.4,0.8-2.1c0.3-0.7,0.6-1.4,0.9-2c0.3-0.7,0.5-1.4,0.7-2.1C123,97.8,123.1,97.1,123.1,96.4z"/>
		</g>
		<g>
			<path class="st4" d="M123.2,93.6c0.2,1.2,0.4,2.5,0.5,3.7c0.2,1.2,0.3,2.5,0.4,3.7c0.1,1.2,0.2,2.5,0.2,3.7
				c0.1,1.2,0.1,2.5,0.1,3.7c-0.2-1.2-0.3-2.5-0.4-3.7c-0.1-1.2-0.2-2.5-0.3-3.7c-0.1-1.2-0.2-2.5-0.3-3.7
				C123.4,96.1,123.3,94.9,123.2,93.6z"/>
		</g>
		<g>
			<path class="st4" d="M107,94.7c0.2,1.3,0.4,2.7,0.4,4c0.1,1.3,0.1,2.7,0,4c-0.2-1.3-0.4-2.7-0.4-4C106.9,97.4,106.9,96,107,94.7z
				"/>
		</g>
		<g>
			<path class="st4" d="M115.3,107.6c0,1,0,2-0.1,3.1c-0.1,1-0.3,2-0.4,3c-0.2,1-0.4,2-0.7,3c-0.3,1-0.6,1.9-1,2.9
				c0.2-1,0.5-2,0.7-3c0.2-1,0.4-2,0.6-3c0.2-1,0.4-2,0.5-3C115,109.6,115.2,108.6,115.3,107.6z"/>
		</g>
		<g>
			<path class="st4" d="M115,121.3c0.7-1.8,1.3-3.6,1.7-5.4c0.5-1.8,0.8-3.7,1-5.6l0.4,0.1c-0.2,1.4-0.2,2.8-0.2,4.2
				c0,1.4-0.1,2.8-0.5,4.2c0.1-0.7,0.2-1.4,0.2-2.1c0-0.7,0-1.4,0-2.1c0-1.4-0.1-2.8,0.1-4.2l0.4,0.1c-0.2,1.9-0.6,3.8-1.1,5.6
				C116.6,117.8,115.9,119.6,115,121.3z"/>
		</g>
		<g>
			<path class="st4" d="M121.7,110.6c0.1,1.5,0,3-0.3,4.4c-0.3,1.5-0.8,2.9-1.5,4.2c0.4-1.4,0.8-2.8,1-4.3
				C121.3,113.5,121.5,112,121.7,110.6z"/>
		</g>
		<g>
			<path class="st4" d="M122.8,119.4c0.5-1.7,0.8-3.3,1-5c0.2-1.7,0.2-3.4,0.1-5.1c0.5,1.7,0.5,3.4,0.4,5.2
				C124.1,116.1,123.6,117.8,122.8,119.4z"/>
		</g>
		<g>
			<path class="st4" d="M119.9,109.9c0,0.7,0,1.5-0.2,2.2c-0.1,0.7-0.4,1.4-0.6,2.1c-0.5,1.4-1.1,2.7-1.5,4.1l-0.2,0.7l-0.2-0.7
				c-0.6-1.8-1-3.7-1.3-5.7c-0.3-1.9-0.5-3.8-0.5-5.8c0.2,1.9,0.5,3.8,0.8,5.7c0.3,1.9,0.8,3.8,1.3,5.6l-0.4,0
				c0.2-0.7,0.5-1.4,0.8-2.1c0.3-0.7,0.6-1.4,0.9-2c0.3-0.7,0.5-1.4,0.7-2.1C119.8,111.4,119.9,110.7,119.9,109.9z"/>
		</g>
		<g>
			<path class="st4" d="M120,107.2c0.2,1.2,0.4,2.5,0.5,3.7c0.2,1.2,0.3,2.5,0.4,3.7c0.1,1.2,0.2,2.5,0.2,3.7
				c0.1,1.2,0.1,2.5,0.1,3.7c-0.2-1.2-0.3-2.5-0.4-3.7c-0.1-1.2-0.2-2.5-0.3-3.7c-0.1-1.2-0.2-2.5-0.3-3.7
				C120.2,109.7,120.1,108.4,120,107.2z"/>
		</g>
	</g>
	<g id="shades">
		<polygon class="st7" points="61,56.5 53.3,47.3 53.3,48.4 58.4,61.1 		"/>
		<polygon class="st7" points="148.4,61.1 154.7,51.5 155.4,52.1 150.5,63.4 		"/>
		<path class="st7" d="M113.6,60.4v6.9c-0.1-0.1-0.2-0.1-0.3-0.2c-5.9-2.8-12-2.7-18.1,0.2v-6.9c0.9-0.3,1.9-0.6,2.8-0.9
			c0,0,0,0,0,0c4.6-1.3,9.2-1.6,13.7,0c0.1,0,0.1,0.1,0.2,0.1C112.4,59.9,113,60.1,113.6,60.4z"/>
		<path class="st8" d="M113.6,60.4v6l-0.3,0.8c-5.9-2.8-12-2.7-18.1,0.2v-6.9c0.9-0.3,1.9-0.6,2.8-0.9c1.1,1.4,1.7,2.8,1.8,4.2
			c3.1-0.6,6.1-1.5,9.1-0.2c0.6-1,1.6-2.4,2.9-3.9C112.3,59.8,112.9,60.1,113.6,60.4z"/>
		<g>
			<path class="st9" d="M96.9,66.7c0,4.7-2.4,9-6.2,12c-3.7,2.9-8.6,4.6-14.1,4.6c-11.2,0-20.3-7.5-20.3-16.6
				c0-5.5,3.3-10.4,8.3-13.4c3.4-2,7.5-3.2,12-3.2C87.8,50,96.9,57.5,96.9,66.7z"/>
			<path class="st10" d="M96.9,66.7c0,4.7-2.4,9-6.2,12c-0.4,0.2-0.7,0.4-1.1,0.6c-3.1,1.6-6.9,2.6-10.9,2.6
				c-11.2,0-20.3-7.5-20.3-16.6c0-4.3,2-8.3,5.3-11.2c0.3-0.3,0.6-0.5,0.9-0.8c3.4-2,7.5-3.2,12-3.2C87.8,50,96.9,57.5,96.9,66.7z"
				/>
			<path class="st11" d="M94.9,68.1c0,4.3-2,8.2-5.3,11.2c-3.1,1.6-6.9,2.6-10.9,2.6c-11.2,0-20.3-7.5-20.3-16.6
				c0-4.3,2-8.3,5.3-11.2c3.1-1.6,6.9-2.6,10.9-2.6C85.8,51.5,94.9,58.9,94.9,68.1z"/>
		</g>
		<path class="st12" d="M92.9,66.7c0,6.1-5,11.3-11.9,12.9c-0.5,0.1-1.1,0.2-1.6,0.3c-0.5,0.1-1,0.1-1.5,0.2c-0.4,0-0.8,0-1.3,0
			c-1.9,0-3.8-0.3-5.5-0.8c-1.7-0.5-3.3-1.2-4.7-2.1c-1-0.7-2-1.5-2.8-2.4c-2.1-2.2-3.3-5.1-3.3-8.1c0-5.1,3.5-9.5,8.6-11.8
			c1.2-0.5,2.4-0.9,3.7-1.2c1.3-0.3,2.6-0.4,4-0.4c0.4,0,0.9,0,1.3,0c2.4,0.2,4.6,0.7,6.5,1.6c0.4,0.2,0.9,0.4,1.3,0.6
			c0.5,0.3,0.9,0.5,1.3,0.8C90.6,58.9,92.9,62.6,92.9,66.7z"/>
		<path class="st13" d="M72.6,53.7l-6.2,23.4c-1-0.7-2-1.5-2.8-2.4l5.2-19.9C70,54.4,71.3,54,72.6,53.7z"/>
		<path class="st13" d="M84.4,55l-6.6,25c-0.4,0-0.8,0-1.3,0c-1.9,0-3.8-0.3-5.5-0.8l6.8-25.9C80.3,53.5,82.5,54.1,84.4,55z"/>
		<path class="st13" d="M87.1,56.4L81,79.6c-0.5,0.1-1.1,0.2-1.6,0.3l6.4-24.2C86.2,55.9,86.6,56.1,87.1,56.4z"/>
		<path class="st14" d="M87.6,55.7c-0.4-0.3-0.9-0.6-1.4-0.9c-0.4-0.2-0.9-0.5-1.3-0.7c-2.1-0.9-4.4-1.5-6.9-1.7
			c-0.5,0-0.9-0.1-1.4-0.1c-1.5,0-2.9,0.2-4.2,0.4c-1.4,0.3-2.7,0.7-3.9,1.3c-5.4,2.4-9,7-9,12.4c0,3.2,1.3,6.2,3.5,8.5
			c0.9,0.9,1.9,1.8,3,2.5c1.5,1,3.1,1.7,4.9,2.2c1.8,0.5,3.7,0.8,5.8,0.8c0.4,0,0.9,0,1.3-0.1c0.5,0,1.1-0.1,1.6-0.2
			c0.6-0.1,1.1-0.2,1.7-0.3c7.2-1.6,12.5-7.1,12.5-13.5C93.8,62.1,91.4,58.2,87.6,55.7z M80.5,78c-0.5,0.1-1,0.2-1.4,0.3
			c-0.4,0.1-0.9,0.1-1.4,0.1c-0.4,0-0.8,0-1.1,0c-1.7,0-3.4-0.2-4.9-0.7c-1.5-0.5-3-1.1-4.2-1.9c-0.9-0.6-1.8-1.3-2.5-2.1
			c-1.9-2-3-4.5-3-7.3c0-4.6,3.1-8.5,7.7-10.6c1-0.5,2.2-0.8,3.4-1.1c1.2-0.2,2.4-0.4,3.6-0.4c0.4,0,0.8,0,1.2,0
			c2.1,0.1,4.1,0.6,5.9,1.4c0.4,0.2,0.8,0.4,1.2,0.6c0.4,0.2,0.8,0.5,1.2,0.7c3.2,2.2,5.3,5.5,5.3,9.2C91.3,72,86.7,76.6,80.5,78z"
			/>
		<g>
			<path class="st9" d="M151.6,68.7c0,4.7-2.4,9-6.2,12c-3.7,2.9-8.6,4.6-14.1,4.6c-11.2,0-20.3-7.5-20.3-16.6
				c0-5.5,3.3-10.4,8.3-13.4c3.4-2,7.5-3.2,12-3.2C142.5,52.1,151.6,59.5,151.6,68.7z"/>
			<path class="st10" d="M151.6,68.7c0,4.7-2.4,9-6.2,12c-0.4,0.2-0.7,0.4-1.1,0.6c-3.1,1.6-6.9,2.6-10.9,2.6
				c-11.2,0-20.3-7.5-20.3-16.6c0-4.3,2-8.3,5.3-11.2c0.3-0.3,0.6-0.5,0.9-0.8c3.4-2,7.5-3.2,12-3.2
				C142.5,52.1,151.6,59.5,151.6,68.7z"/>
			<path class="st11" d="M149.5,70.1c0,4.3-2,8.2-5.3,11.2c-3.1,1.6-6.9,2.6-10.9,2.6c-11.2,0-20.3-7.5-20.3-16.6
				c0-4.3,2-8.3,5.3-11.2c3.1-1.6,6.9-2.6,10.9-2.6C140.4,53.5,149.5,60.9,149.5,70.1z"/>
		</g>
		<path class="st12" d="M147.6,68.7c0,5.5-4,10.2-9.8,12.2c-0.7,0.3-1.4,0.5-2.1,0.6c-0.5,0.1-1.1,0.2-1.6,0.3
			c-0.5,0.1-1,0.1-1.5,0.2c-0.4,0-0.8,0-1.3,0c-0.3,0-0.7,0-1,0c-1,0-1.9-0.2-2.8-0.3c-0.6-0.1-1.1-0.3-1.7-0.4
			c-0.8-0.2-1.5-0.5-2.3-0.8c-0.8-0.4-1.7-0.8-2.4-1.3c-0.9-0.6-1.7-1.2-2.4-1.9c-0.2-0.2-0.3-0.3-0.5-0.5c-0.5-0.5-0.9-1.1-1.3-1.7
			c-1.3-1.9-2-4.1-2-6.4c0-4.9,3.2-9.1,7.9-11.5c0.2-0.1,0.4-0.2,0.6-0.3c0.7-0.3,1.5-0.6,2.3-0.8c0.5-0.1,1-0.3,1.5-0.4
			c1.3-0.3,2.6-0.4,4-0.4c0.4,0,0.8,0,1.2,0c0,0,0.1,0,0.1,0c1.4,0.1,2.8,0.3,4.1,0.7c0.6,0.2,1.2,0.4,1.8,0.6
			c0.2,0.1,0.5,0.2,0.7,0.3c0.4,0.2,0.9,0.4,1.3,0.6c0.5,0.3,0.9,0.5,1.3,0.8c1,0.7,1.8,1.4,2.6,2.2
			C146.4,62.9,147.6,65.7,147.6,68.7z"/>
		<path class="st13" d="M136.7,56.1l-9.2,25.6c-0.6-0.1-1.1-0.3-1.7-0.4c-0.8-0.2-1.5-0.5-2.3-0.8l9-25.1c0,0,0.1,0,0.1,0
			C134,55.5,135.4,55.7,136.7,56.1z"/>
		<path class="st13" d="M125.8,56.1l-7,21.1c-0.2-0.2-0.3-0.3-0.5-0.5c-0.5-0.5-0.9-1.1-1.3-1.7l5.9-17.9c0.2-0.1,0.4-0.2,0.6-0.3
			C124.2,56.6,125,56.4,125.8,56.1z"/>
		<path class="st13" d="M144.3,60.7L137.8,81c-0.7,0.3-1.4,0.5-2.1,0.6c-0.5,0.1-1.1,0.2-1.6,0.3c-0.5,0.1-1,0.1-1.5,0.2
			c-0.4,0-0.8,0-1.3,0c-0.3,0-0.7,0-1,0l8.1-25.3c0.2,0.1,0.5,0.2,0.7,0.3c0.4,0.2,0.9,0.4,1.3,0.6c0.5,0.3,0.9,0.5,1.3,0.8
			C142.7,59.1,143.6,59.9,144.3,60.7z"/>
		<path class="st14" d="M142.3,57.7c-0.4-0.3-0.9-0.6-1.4-0.9c-0.4-0.2-0.9-0.5-1.3-0.7c-2.1-0.9-4.4-1.5-6.9-1.7
			c-0.5,0-0.9-0.1-1.4-0.1c-1.5,0-2.9,0.2-4.2,0.4c-1.4,0.3-2.7,0.7-3.9,1.3c-5.4,2.4-9,7-9,12.4c0,3.2,1.3,6.2,3.5,8.5
			c0.9,0.9,1.9,1.8,3,2.5c1.5,1,3.1,1.7,4.9,2.2c1.8,0.5,3.7,0.8,5.8,0.8c0.4,0,0.9,0,1.3-0.1c0.5,0,1.1-0.1,1.6-0.2
			c0.6-0.1,1.1-0.2,1.7-0.3c7.2-1.6,12.5-7.1,12.5-13.5C148.4,64.1,146,60.3,142.3,57.7z M135.2,80c-0.5,0.1-1,0.2-1.4,0.3
			c-0.4,0.1-0.9,0.1-1.4,0.1c-0.4,0-0.8,0-1.1,0c-1.7,0-3.4-0.2-4.9-0.7c-1.5-0.5-3-1.1-4.2-1.9c-0.9-0.6-1.8-1.3-2.5-2.1
			c-1.9-2-3-4.5-3-7.3c0-4.6,3.1-8.5,7.7-10.6c1-0.5,2.2-0.8,3.4-1.1c1.2-0.2,2.4-0.4,3.6-0.4c0.4,0,0.8,0,1.2,0
			c2.1,0.1,4.1,0.6,5.9,1.4c0.4,0.2,0.8,0.4,1.2,0.6c0.4,0.2,0.8,0.5,1.2,0.7c3.2,2.2,5.3,5.5,5.3,9.2C145.9,74,141.4,78.6,135.2,80
			z"/>
		<path class="st15" d="M111.9,59.7l-0.3,1.5c-4.6-1.2-8.9-1.4-12.8-0.3l-0.9-1.2c0,0,0,0,0,0c4.6-1.3,9.2-1.6,13.7,0
			C111.7,59.6,111.8,59.6,111.9,59.7z"/>
	</g>
	<g id="hair">
		<path class="st16" d="M157.6,39.9c-0.3,5.7-7.1,7.9-13.8,10.2c3.5-3.6,4.7-8.2,3.9-13.7c-1,2.5-2.6,3.7-5,3.4
			c-3.1,2.6-5.5,4.9-7,6.8c-0.5-6.2-5.4-8.4-10.7-10.2c-0.1,1.9-0.2,3.8-0.2,5.7c-2.4-2-5.1-3.3-8.2-3.6c1.5,3.1,1.5,6,0.2,8.7
			c-1.3-3.9-4-6.2-7.6-7.5c1.5,3.9,1.7,8.4,1.2,13.2c-2.3-3.5-5.3-6.7-9.4-9.3c1,1.7,0.6,2.8-0.7,3.6c-2.5-3-7.1-4.8-12.6-6.1
			c1.6,1.8,3.2,3.6,2.5,4.6c-3.8-2.9-9.8-3.9-16-4.6l1.8,6.6c-6.9-5-15.2-3.8-24.1-0.7c-1.1-5.5-1.2-10.7-0.1-15.5
			c3.2-14.3,17.1-24.8,48-29.2c5.1-1.1,10.2,0.7,15.4,3.6c-5.6,0.6-9.3,2.5-11.9,5.2c10.9-5.7,19.3-2.4,26.8,4.3
			c-0.3-5.5,5.9-3,13.1,0.7c7.2,4.5,9.7,8.9,10.5,13.4v0l2.3,7.1L157.6,39.9z"/>
		<path class="st4" d="M153.7,29.4L153.7,29.4c-2,1.2-4.3,1.9-7.4,1.7c-4.7-3.2-9.9-4.4-17.3,0.4c-3.1-4.6-5.9-7.5-7.5-4.4
			c-5.1-4-7.7-3-8.1,2.1c-0.1-3.8-1.6-1.8-3.5,1.8L105,20c-2.6,3.2-5.3,5.7-8.4,5.8C95,24.4,94.2,22.4,94,20
			c-2.2-1.2-4.2,0.4-6.3,2.7c-7.7-4.1-8.6,0.6-7,8.4c-3.4-2.4-6.3-4.8-7.8-7.1c-2.4-2.9-1.8,0.3-2.2,3.5c-0.1,1.2-1.7,1-1.8,2.5
			c-7-4.1-12.3-5-11.9,4.3l-5.2-2.7c3.2-14.3,17.1-24.8,48-29.2c5.1-1.1,10.2,0.7,15.4,3.6c-5.6,0.6-2.5,0-5.1,2.7
			c10-3.2,12,1.7,20,6.8c-0.3-5.5,5.9-3,13.1,0.7C150.4,20.5,152.8,25,153.7,29.4z"/>
	</g>
	<g>
		<path class="st17" d="M42.4,162.6C2,186.5-0.4,257,7.4,328.3l37.9,5.9c9.8-57,14.9-112.9,30.1-147L42.4,162.6z"/>
		<path d="M42.4,162.6c-6.3,3.8-11.9,8.9-16.4,14.7c-4.5,5.9-8,12.5-10.8,19.3c-2.8,6.8-4.8,14-6.4,21.2c-1.6,7.2-2.6,14.6-3.4,21.9
			c-0.8,7.4-1.1,14.7-1.3,22.1C4,269.2,4,276.6,4.3,284c0.2,7.4,0.7,14.8,1.3,22.2c0.6,7.4,1.3,14.7,2.1,22.1l-0.2-0.2l37.9,5.9
			l-0.3,0.2c2.1-12.3,4.1-24.7,5.9-37.1c1.9-12.4,3.8-24.8,5.8-37.1c2.1-12.4,4.3-24.7,7.1-36.9l1.1-4.6c0.2-0.8,0.4-1.5,0.6-2.3
			l0.6-2.3l1.2-4.5c0.2-0.8,0.4-1.5,0.7-2.3l0.7-2.2c1.8-6,4-11.9,6.5-17.6l0,0.1L42.4,162.6z M42.4,162.6l33,24.6l0.1,0l0,0.1
			c-4.9,11.5-8.4,23.6-11.2,35.8c-2.8,12.2-5,24.5-7.1,36.9c-2,12.4-3.9,24.7-5.8,37.1c-1.9,12.4-3.8,24.8-5.9,37.1l0,0.2l-0.2,0
			l-37.9-5.9l-0.2,0l0-0.2c-0.8-7.4-1.5-14.7-2-22.1c-0.6-7.4-1-14.8-1.2-22.2c-0.2-7.4-0.3-14.8-0.1-22.2
			c0.2-7.4,0.6-14.8,1.3-22.2S7,225,8.5,217.8c1.6-7.2,3.6-14.4,6.5-21.2c2.8-6.8,6.4-13.4,10.9-19.3
			C30.5,171.4,36.1,166.4,42.4,162.6z"/>
	</g>
	<g>
		<path class="st17" d="M153.5,159.4c40.4,24.4,37.3,94,29.5,166.9l-37.9,6.1c-9.8-58.2-14.9-115.3-30.1-150.1L153.5,159.4z"/>
		<path d="M153.5,159.4c3.2,1.9,6.1,4.1,8.9,6.7c2.7,2.5,5.2,5.3,7.4,8.3c4.4,6,7.6,12.7,10.1,19.7c2.5,7,4.2,14.2,5.4,21.5
			c1.2,7.3,1.9,14.7,2.3,22.1c0.8,14.8,0.4,29.6-0.5,44.4c-0.9,14.8-2.3,29.5-3.9,44.2l0,0.2l-0.2,0l-37.9,6.1l-0.2,0l0-0.2
			c-2.1-12.6-4-25.3-5.9-37.9c-1.9-12.7-3.7-25.3-5.8-37.9c-2-12.6-4.2-25.2-7.1-37.7c-2.8-12.5-6.3-24.8-11.2-36.6l0-0.1l0.1,0
			L153.5,159.4z M153.5,159.4l-38.4,22.9l0-0.1c2.5,5.9,4.7,11.9,6.5,18.1l0.7,2.3c0.2,0.8,0.5,1.5,0.7,2.3l1.2,4.6l0.6,2.3
			c0.2,0.8,0.4,1.6,0.6,2.3l1.1,4.7c2.8,12.5,5.1,25.1,7.1,37.7c2.1,12.6,3.9,25.3,5.8,37.9c1.9,12.6,3.8,25.3,5.9,37.9l-0.3-0.2
			l37.9-6l-0.2,0.2c1.6-14.7,3-29.4,3.9-44.2c0.9-14.8,1.3-29.6,0.5-44.4c-0.4-7.4-1.1-14.8-2.3-22.1c-1.2-7.3-2.9-14.5-5.3-21.5
			c-2.4-7-5.7-13.7-10-19.7c-2.2-3-4.6-5.8-7.3-8.3C159.7,163.6,156.7,161.3,153.5,159.4z"/>
	</g>
	<path class="st18" d="M148.3,312.3c6.9,18.3-17.7,27.6-48.7,27.8c-28.9,0.2-53.4-7.1-48.7-27.8c3.4-14.9,21.8-27.8,48.7-27.8
		S142.9,297.9,148.3,312.3z"/>
	<g>
		<path class="st17" d="M72.8,129.3l-0.4,20.5c-0.3,8.2-18.9,3.7-31,13.6l-5.6,32.9c-10.3,17.4,5.3,19.8,6.4,39.3
			c-20.7,22.8-4.1,63.2,8.1,81.3c34-5.9,71.9,9.4,99,3.7c4.8-26,16.2-63.1,1.4-80.6c6.9-12.7,14.6-23,9-48.7l-2.3-29.2
			c-6.1-4.7-12.4-7.8-19-7.1c-9.1,0.3-13.9-1.2-13.7-4.8l-1.8-22C104,135.1,87.9,133.5,72.8,129.3z"/>
		<path d="M72.8,129.3l-0.2,13.9l-0.1,3.5l0,1.7l0,0.9l0,0.4l0,0.4c-0.1,0.6-0.3,1.1-0.6,1.7c-0.2,0.2-0.3,0.5-0.5,0.7
			c-0.1,0.1-0.2,0.2-0.3,0.3l-0.3,0.3c-0.9,0.7-2,1.1-3.1,1.5c-2.2,0.7-4.5,1.1-6.8,1.5c-2.3,0.4-4.6,0.9-6.8,1.4
			c-2.2,0.6-4.5,1.3-6.6,2.3c-2.1,1-4.1,2.2-5.9,3.6l0-0.1L36,196.3l0,0l0,0c-0.9,1.5-1.7,3.1-2.3,4.7c-0.6,1.6-1.1,3.3-1.1,5.1
			c-0.1,1.7,0.2,3.5,0.7,5.1c0.6,1.6,1.3,3.2,2.2,4.7c1.7,3,3.5,6.1,4.8,9.3c0.6,1.6,1.2,3.3,1.5,5c0.4,1.7,0.6,3.5,0.7,5.2l0,0.1
			l0,0c-2.4,2.7-4.4,5.8-5.9,9c-1.5,3.3-2.5,6.8-3.1,10.4c-1.2,7.2-0.7,14.5,0.6,21.6c1.4,7.1,3.6,14.1,6.4,20.8
			c2.8,6.7,6.2,13.2,10.2,19.2l-0.2-0.1c8.2-1.4,16.6-1.6,24.8-1.2c8.3,0.4,16.5,1.5,24.8,2.6c8.2,1.1,16.4,2.4,24.7,3.1
			c4.1,0.3,8.3,0.6,12.4,0.5c4.1-0.1,8.3-0.4,12.3-1.3l-0.2,0.2c1.3-6.8,2.8-13.5,4.2-20.3c1.4-6.8,2.7-13.6,3.6-20.4
			c0.9-6.8,1.3-13.8,0.7-20.6c-0.3-3.4-0.9-6.8-2-10.1c-1.1-3.2-2.7-6.3-4.9-9l-0.1-0.1l0.1-0.1c2.1-3.7,4.2-7.4,6.1-11.2
			c1.9-3.8,3.2-7.9,4-12c0.8-4.2,1-8.4,0.7-12.7c-0.2-4.2-1-8.5-1.8-12.6l0,0v0l-2.3-29.2l0.1,0.1c-2.7-2.1-5.7-4-8.8-5.3
			c-1.6-0.7-3.2-1.2-4.9-1.5c-1.7-0.3-3.4-0.4-5.1-0.2h0h0c-1.3,0-2.7,0.1-4,0c-1.3,0-2.7-0.1-4-0.4c-1.3-0.2-2.6-0.6-3.8-1.2
			c-0.6-0.4-1.1-0.8-1.5-1.4c-0.4-0.6-0.5-1.3-0.5-2v0l-1.8-22l0.1,0.1c-4,1.4-8.1,2.6-12.3,3.4c-4.2,0.8-8.5,1.3-12.7,1.3
			c-4.3,0.1-8.5-0.3-12.8-0.9C81,131.4,76.9,130.5,72.8,129.3z M72.8,129.3c4.1,1.1,8.3,2.1,12.5,2.7c4.2,0.6,8.5,0.9,12.8,0.8
			c4.3-0.1,8.5-0.5,12.7-1.4c4.2-0.8,8.3-2,12.3-3.5l0.1,0l0,0.1l1.8,22v0v0c0,0.6,0.1,1.3,0.4,1.8c0.3,0.6,0.9,1,1.4,1.3
			c1.1,0.6,2.4,1,3.7,1.2c1.3,0.2,2.6,0.3,4,0.4c1.3,0.1,2.7,0,4,0h0c1.7-0.2,3.5-0.1,5.2,0.2c1.7,0.3,3.4,0.8,5,1.5
			c3.2,1.4,6.1,3.3,8.9,5.4l0.1,0l0,0.1l2.3,29.2l0,0c0.8,4.2,1.6,8.4,1.8,12.7c0.2,4.3,0.1,8.6-0.7,12.8c-0.8,4.2-2.2,8.3-4,12.1
			c-1.8,3.9-4,7.5-6,11.3l0-0.2c2.2,2.7,3.9,5.8,5,9.1c1.1,3.3,1.7,6.7,2.1,10.2c0.6,6.9,0.2,13.9-0.7,20.7
			c-0.9,6.9-2.2,13.7-3.5,20.4s-2.9,13.5-4.2,20.3l0,0.2l-0.2,0c-4.1,0.8-8.2,1.2-12.4,1.3c-4.2,0.1-8.3-0.1-12.5-0.5
			c-8.3-0.7-16.5-2-24.7-3.1c-8.2-1.1-16.4-2.2-24.7-2.6c-8.3-0.4-16.6-0.3-24.8,1.2l-0.1,0l-0.1-0.1c-4-6.1-7.4-12.6-10.2-19.3
			c-2.8-6.7-5-13.7-6.4-20.9c-1.3-7.2-1.8-14.5-0.6-21.8c0.6-3.6,1.6-7.1,3.2-10.5c1.5-3.3,3.6-6.4,6-9.1l0,0.1
			c-0.1-1.7-0.3-3.5-0.7-5.2c-0.4-1.7-0.9-3.4-1.5-5c-1.2-3.3-3.1-6.3-4.8-9.3c-0.8-1.5-1.6-3.1-2.2-4.8c-0.5-1.7-0.8-3.5-0.7-5.2
			c0.1-1.8,0.5-3.5,1.2-5.1c0.6-1.6,1.4-3.2,2.3-4.7l0,0l5.6-32.9l0,0l0,0c1.8-1.5,3.8-2.7,6-3.6c2.1-1,4.3-1.7,6.6-2.3
			c2.3-0.6,4.5-1,6.8-1.4c2.3-0.4,4.6-0.8,6.8-1.5c1.1-0.3,2.2-0.8,3.1-1.5l0.3-0.3c0.1-0.1,0.2-0.2,0.3-0.3
			c0.2-0.2,0.4-0.4,0.5-0.7c0.3-0.5,0.5-1,0.5-1.6l0-0.4l0-0.4l0-0.9l0-1.7l0.1-3.5L72.8,129.3z"/>
	</g>
</g>
<linearGradient id="SVGID_1_" gradientUnits="userSpaceOnUse" x1="11.9657" y1="213.6352" x2="184.3195" y2="153.3815">
	<stop  offset="0" style="stop-color:#00550A"/>
	<stop  offset="1" style="stop-color:#0049E9"/>
</linearGradient>
<rect x="11" y="151.4" class="st19" width="173" height="64.7"/>
<rect x="17.5" y="156.2" class="st20" width="160" height="55.1"/>
<g>
	<path class="st21" d="M37,165.5h2.2c0.2,0,0.3,0.1,0.5,0.2c0.1,0.1,0.2,0.3,0.2,0.5c0,0.2-0.1,0.4-0.2,0.5s-0.3,0.2-0.4,0.2h-2.1
		c-0.2,0-0.4,0.1-0.5,0.3l-1.8,2.4c-0.2,0.2-0.2,0.4-0.2,0.8v3.6c0,0.2,0.1,0.3,0.2,0.5c0.1,0.1,0.3,0.2,0.5,0.2h2.7
		c0.2,0,0.3-0.1,0.5-0.2c0.1-0.1,0.2-0.3,0.2-0.5v-1.4h-1.4c-0.2,0-0.3-0.1-0.5-0.2s-0.2-0.3-0.2-0.5s0.1-0.3,0.2-0.5
		s0.3-0.2,0.5-0.2h2.7v2.7c0,0.5-0.2,1-0.6,1.4c-0.4,0.4-0.8,0.6-1.4,0.6h-2.7c-0.5,0-1-0.2-1.4-0.6c-0.4-0.4-0.6-0.8-0.6-1.4v-3.6
		c0-0.7,0.2-1.2,0.5-1.6l1.9-2.5c0.1-0.2,0.3-0.3,0.6-0.5C36.5,165.6,36.7,165.5,37,165.5z"/>
	<path class="st21" d="M42.9,175.2V169c0-0.2,0.1-0.3,0.2-0.5c0.1-0.1,0.3-0.2,0.5-0.2c0.2,0,0.3,0.1,0.5,0.2
		c0.1,0.1,0.2,0.3,0.2,0.5v0.8l1.1-0.9c0.4-0.4,0.9-0.6,1.3-0.6h1c0.5,0,1,0.2,1.4,0.6c0.4,0.4,0.6,0.8,0.6,1.4v0.4
		c0,0.2-0.1,0.3-0.2,0.5c-0.1,0.1-0.3,0.2-0.5,0.2c-0.2,0-0.3-0.1-0.5-0.2c-0.1-0.1-0.2-0.3-0.2-0.5v-0.4c0-0.2-0.1-0.3-0.2-0.5
		c-0.1-0.1-0.3-0.2-0.5-0.2h-0.9c-0.2,0-0.4,0.1-0.6,0.3l-1.9,1.6v3.7c0,0.2-0.1,0.3-0.2,0.5c-0.1,0.1-0.3,0.2-0.5,0.2
		c-0.2,0-0.3-0.1-0.5-0.2C42.9,175.6,42.9,175.4,42.9,175.2z"/>
	<path class="st21" d="M59.1,170.8v1.6c0,0.2-0.1,0.3-0.2,0.5c-0.1,0.1-0.3,0.2-0.5,0.2h-4.6v0.4c0,0.2,0.1,0.4,0.3,0.6l0.4,0.3
		c0.2,0.2,0.4,0.2,0.6,0.2h3.4c0.2,0,0.3,0.1,0.5,0.2c0.1,0.1,0.2,0.3,0.2,0.5c0,0.2-0.1,0.3-0.2,0.5s-0.3,0.2-0.5,0.2H55
		c-0.2,0-0.5,0-0.7-0.1c-0.3-0.1-0.4-0.2-0.6-0.3l-0.6-0.5c-0.2-0.1-0.3-0.3-0.5-0.6c-0.1-0.3-0.2-0.5-0.2-0.7v-3
		c0-0.2,0.1-0.4,0.2-0.7s0.3-0.5,0.5-0.7l0.5-0.4c0.4-0.3,0.8-0.4,1.2-0.4h1.8c0.5,0,0.9,0.2,1.3,0.6l0.5,0.5
		C59,169.7,59.1,170.2,59.1,170.8z M53.9,170.7v1h4v-0.9c0-0.2-0.1-0.4-0.2-0.6l-0.4-0.3c-0.2-0.2-0.4-0.2-0.5-0.2h-1.6
		c-0.2,0-0.4,0.1-0.6,0.2l-0.4,0.3C54,170.3,53.9,170.5,53.9,170.7z"/>
	<path class="st21" d="M66.3,178.7h-2.8c-0.2,0-0.3-0.1-0.5-0.2c-0.1-0.1-0.2-0.3-0.2-0.5c0-0.2,0.1-0.3,0.2-0.5
		c0.1-0.1,0.3-0.2,0.5-0.2h2.8c0.2,0,0.3-0.1,0.5-0.2l0.4-0.4c0.2-0.1,0.2-0.3,0.2-0.5v-2c-0.6,0.6-1.2,0.9-1.8,0.9h-1
		c-0.5,0-1-0.2-1.4-0.5l-0.5-0.4c-0.2-0.1-0.3-0.3-0.4-0.6s-0.2-0.5-0.2-0.8v-2.2c0-0.3,0.1-0.6,0.2-0.9s0.3-0.5,0.4-0.6l0.5-0.5
		c0.4-0.3,0.8-0.5,1.4-0.5h0.9c0.5,0,1,0.2,1.4,0.5l0.5,0.4l0-0.3c0-0.2,0.1-0.3,0.2-0.5c0.1-0.1,0.3-0.2,0.5-0.2
		c0.2,0,0.3,0.1,0.5,0.2s0.2,0.3,0.2,0.5v7.4c0,0.6-0.2,1-0.7,1.4l-0.5,0.5c-0.1,0.1-0.3,0.2-0.6,0.3
		C66.8,178.6,66.5,178.7,66.3,178.7z M65.6,169.6h-0.9c-0.2,0-0.4,0.1-0.6,0.2l-0.4,0.3c-0.2,0.1-0.2,0.3-0.2,0.5v2.2
		c0,0.2,0.1,0.3,0.3,0.5l0.4,0.4c0.1,0.1,0.3,0.2,0.4,0.2h1.1c0.2,0,0.3-0.1,0.5-0.2l1-0.9c0.2-0.1,0.2-0.3,0.2-0.5v-1
		c0-0.2-0.1-0.4-0.3-0.6l-1.1-0.9C66,169.7,65.8,169.6,65.6,169.6z"/>
	<path class="st21" d="M82.2,173.9v-2.1c0-0.2,0.1-0.3,0.2-0.5c0.1-0.1,0.3-0.2,0.5-0.2c0.2,0,0.3,0.1,0.5,0.2
		c0.1,0.1,0.2,0.3,0.2,0.5v2.1c0,0.2,0.1,0.3,0.2,0.5c0.1,0.1,0.3,0.2,0.5,0.2h1.3c0.2,0,0.3-0.1,0.5-0.2s0.2-0.3,0.2-0.5v-7.7
		c0-0.2,0.1-0.3,0.2-0.5s0.3-0.2,0.5-0.2c0.2,0,0.3,0.1,0.5,0.2c0.1,0.1,0.2,0.3,0.2,0.5v7.7c0,0.6-0.2,1-0.6,1.4
		c-0.4,0.4-0.9,0.6-1.4,0.6h-1.3c-0.5,0-1-0.2-1.4-0.6C82.4,174.9,82.2,174.4,82.2,173.9z"/>
	<path class="st21" d="M97.8,170.8v1.6c0,0.2-0.1,0.3-0.2,0.5c-0.1,0.1-0.3,0.2-0.5,0.2h-4.6v0.4c0,0.2,0.1,0.4,0.3,0.6l0.4,0.3
		c0.2,0.2,0.4,0.2,0.6,0.2h3.4c0.2,0,0.3,0.1,0.5,0.2c0.1,0.1,0.2,0.3,0.2,0.5c0,0.2-0.1,0.3-0.2,0.5s-0.3,0.2-0.5,0.2h-3.5
		c-0.2,0-0.5,0-0.7-0.1c-0.3-0.1-0.4-0.2-0.6-0.3l-0.6-0.5c-0.2-0.1-0.3-0.3-0.5-0.6c-0.1-0.3-0.2-0.5-0.2-0.7v-3
		c0-0.2,0.1-0.4,0.2-0.7s0.3-0.5,0.5-0.7l0.5-0.4c0.4-0.3,0.8-0.4,1.2-0.4h1.8c0.5,0,0.9,0.2,1.3,0.6l0.5,0.5
		C97.6,169.7,97.8,170.2,97.8,170.8z M92.5,170.7v1h4v-0.9c0-0.2-0.1-0.4-0.2-0.6l-0.4-0.3c-0.2-0.2-0.4-0.2-0.5-0.2h-1.6
		c-0.2,0-0.4,0.1-0.6,0.2l-0.4,0.3C92.6,170.3,92.5,170.5,92.5,170.7z"/>
	<path class="st21" d="M103.9,169.6v5.6c0,0.2-0.1,0.3-0.2,0.5s-0.3,0.2-0.5,0.2c-0.2,0-0.3-0.1-0.5-0.2s-0.2-0.3-0.2-0.5v-5.6h-0.7
		c-0.2,0-0.3-0.1-0.5-0.2s-0.2-0.3-0.2-0.5c0-0.2,0.1-0.3,0.2-0.5s0.3-0.2,0.5-0.2h0.7v-0.5c0-0.7,0.2-1.2,0.7-1.7s1-0.7,1.7-0.7
		h1.5c0.2,0,0.3,0.1,0.5,0.2s0.2,0.3,0.2,0.5c0,0.2-0.1,0.3-0.2,0.5s-0.3,0.2-0.5,0.2H105c-0.3,0-0.6,0.1-0.8,0.3s-0.3,0.4-0.3,0.7
		v0.5h1.3c0.2,0,0.3,0.1,0.5,0.2s0.2,0.3,0.2,0.5c0,0.2-0.1,0.3-0.2,0.5s-0.3,0.2-0.5,0.2H103.9z"/>
	<path class="st21" d="M113.5,169.6v5.6c0,0.2-0.1,0.3-0.2,0.5s-0.3,0.2-0.5,0.2c-0.2,0-0.3-0.1-0.5-0.2s-0.2-0.3-0.2-0.5v-5.6h-0.7
		c-0.2,0-0.3-0.1-0.5-0.2s-0.2-0.3-0.2-0.5c0-0.2,0.1-0.3,0.2-0.5s0.3-0.2,0.5-0.2h0.7v-0.5c0-0.7,0.2-1.2,0.7-1.7s1-0.7,1.7-0.7
		h1.5c0.2,0,0.3,0.1,0.5,0.2s0.2,0.3,0.2,0.5c0,0.2-0.1,0.3-0.2,0.5s-0.3,0.2-0.5,0.2h-1.5c-0.3,0-0.6,0.1-0.8,0.3s-0.3,0.4-0.3,0.7
		v0.5h1.3c0.2,0,0.3,0.1,0.5,0.2s0.2,0.3,0.2,0.5c0,0.2-0.1,0.3-0.2,0.5s-0.3,0.2-0.5,0.2H113.5z"/>
	<path class="st21" d="M126.8,170.8v1.6c0,0.2-0.1,0.3-0.2,0.5s-0.3,0.2-0.5,0.2h-4.6v0.4c0,0.2,0.1,0.4,0.3,0.6l0.4,0.3
		c0.2,0.2,0.4,0.2,0.6,0.2h3.4c0.2,0,0.3,0.1,0.5,0.2s0.2,0.3,0.2,0.5c0,0.2-0.1,0.3-0.2,0.5s-0.3,0.2-0.5,0.2h-3.5
		c-0.2,0-0.5,0-0.7-0.1s-0.4-0.2-0.6-0.3l-0.6-0.5c-0.2-0.1-0.3-0.3-0.5-0.6s-0.2-0.5-0.2-0.7v-3c0-0.2,0.1-0.4,0.2-0.7
		s0.3-0.5,0.5-0.7l0.5-0.4c0.4-0.3,0.8-0.4,1.2-0.4h1.8c0.5,0,0.9,0.2,1.3,0.6l0.5,0.5C126.6,169.7,126.8,170.2,126.8,170.8z
		 M121.5,170.7v1h4v-0.9c0-0.2-0.1-0.4-0.2-0.6l-0.4-0.3c-0.2-0.2-0.4-0.2-0.5-0.2h-1.6c-0.2,0-0.4,0.1-0.6,0.2l-0.4,0.3
		C121.6,170.3,121.5,170.5,121.5,170.7z"/>
	<path class="st21" d="M129.9,175.2V169c0-0.2,0.1-0.3,0.2-0.5s0.3-0.2,0.5-0.2s0.3,0.1,0.5,0.2s0.2,0.3,0.2,0.5v0.8l1.1-0.9
		c0.4-0.4,0.9-0.6,1.3-0.6h1c0.5,0,1,0.2,1.4,0.6s0.6,0.8,0.6,1.4v0.4c0,0.2-0.1,0.3-0.2,0.5s-0.3,0.2-0.5,0.2s-0.3-0.1-0.5-0.2
		s-0.2-0.3-0.2-0.5v-0.4c0-0.2-0.1-0.3-0.2-0.5s-0.3-0.2-0.5-0.2h-0.9c-0.2,0-0.4,0.1-0.6,0.3l-1.9,1.6v3.7c0,0.2-0.1,0.3-0.2,0.5
		s-0.3,0.2-0.5,0.2c-0.2,0-0.3-0.1-0.5-0.2S129.9,175.4,129.9,175.2z"/>
	<path class="st21" d="M141.4,168.3h3c0.5,0,0.9,0.1,1.2,0.4s0.5,0.6,0.5,0.8c0,0.2-0.1,0.3-0.2,0.5s-0.3,0.2-0.4,0.2
		c-0.2,0-0.4-0.1-0.6-0.3s-0.4-0.3-0.5-0.3h-3c-0.3,0-0.4,0.1-0.4,0.4c0,0.2,0.1,0.3,0.3,0.4l3.5,1.6c0.4,0.2,0.6,0.4,0.9,0.8
		s0.3,0.7,0.3,1.2c0,0.6-0.2,1-0.6,1.4s-0.9,0.6-1.4,0.6h-2.7c-0.5,0-0.9-0.1-1.3-0.4s-0.6-0.5-0.6-0.8c0-0.2,0.1-0.3,0.2-0.5
		s0.3-0.2,0.5-0.2c0.2,0,0.3,0.1,0.5,0.3s0.5,0.3,0.8,0.3h2.4c0.2,0,0.4-0.1,0.5-0.2s0.2-0.3,0.2-0.5c0-0.3-0.1-0.5-0.4-0.6
		l-3.5-1.6c-0.3-0.2-0.6-0.4-0.8-0.7s-0.3-0.6-0.3-0.9c0-0.5,0.2-0.9,0.5-1.2S140.9,168.3,141.4,168.3z"/>
	<path class="st21" d="M155.8,170.7v2.8c0,0.6-0.3,1.1-0.8,1.6s-1.1,0.8-1.7,0.8h-1.5c-0.6,0-1.2-0.3-1.7-0.8s-0.8-1-0.8-1.6v-2.8
		c0-0.6,0.3-1.1,0.8-1.6s1.1-0.8,1.7-0.8h1.5c0.6,0,1.2,0.2,1.7,0.7S155.8,170.1,155.8,170.7z M150.5,170.8v2.7
		c0,0.2,0.1,0.4,0.3,0.6l0.5,0.4c0.1,0.1,0.3,0.1,0.5,0.1h1.5c0.2,0,0.4-0.1,0.6-0.2l0.4-0.4c0.2-0.1,0.2-0.3,0.2-0.5v-2.7
		c0-0.3-0.1-0.5-0.2-0.6l-0.5-0.4c-0.2-0.1-0.3-0.2-0.5-0.2h-1.4c-0.3,0-0.5,0.1-0.7,0.2l-0.4,0.4
		C150.6,170.4,150.5,170.5,150.5,170.8z"/>
	<path class="st21" d="M161.9,169.9l-1.8,1.2v4.2c0,0.2-0.1,0.3-0.2,0.5s-0.3,0.2-0.5,0.2s-0.3-0.1-0.5-0.2s-0.2-0.3-0.2-0.5V169
		c0-0.2,0.1-0.3,0.2-0.5s0.3-0.2,0.5-0.2c0.2,0,0.3,0.1,0.5,0.2s0.2,0.3,0.2,0.5v0.4l1.2-0.7c0.4-0.3,0.9-0.4,1.4-0.4h0.6
		c0.5,0,1,0.2,1.4,0.6s0.6,0.8,0.6,1.4l0.2,5c0,0.2-0.1,0.3-0.2,0.5s-0.3,0.2-0.5,0.2c-0.2,0-0.3-0.1-0.5-0.2s-0.2-0.3-0.2-0.5
		l-0.2-4.9c0-0.5-0.3-0.7-0.7-0.7h-0.6C162.4,169.6,162.2,169.7,161.9,169.9z"/>
</g>
<g>
	<path class="st21" d="M38.7,186.2H44c0.2,0,0.3,0.1,0.5,0.2s0.2,0.3,0.2,0.5c0,0.2-0.1,0.3-0.2,0.5c-0.1,0.1-0.3,0.2-0.5,0.2h-2
		v7.7h2c0.2,0,0.3,0.1,0.5,0.2c0.1,0.1,0.2,0.3,0.2,0.5s-0.1,0.3-0.2,0.5c-0.1,0.1-0.3,0.2-0.5,0.2h-5.3c-0.2,0-0.3-0.1-0.5-0.2
		c-0.1-0.1-0.2-0.3-0.2-0.5s0.1-0.3,0.2-0.5c0.1-0.1,0.3-0.2,0.5-0.2h2v-7.7h-2c-0.2,0-0.3-0.1-0.5-0.2c-0.1-0.1-0.2-0.3-0.2-0.5
		c0-0.2,0.1-0.3,0.2-0.5C38.3,186.3,38.5,186.2,38.7,186.2z"/>
	<path class="st21" d="M50.8,190.6l-1.8,1.2v4.2c0,0.2-0.1,0.3-0.2,0.5c-0.1,0.1-0.3,0.2-0.5,0.2c-0.2,0-0.3-0.1-0.5-0.2
		c-0.1-0.1-0.2-0.3-0.2-0.5v-6.2c0-0.2,0.1-0.3,0.2-0.5c0.1-0.1,0.3-0.2,0.5-0.2c0.2,0,0.3,0.1,0.5,0.2c0.1,0.1,0.2,0.3,0.2,0.5v0.4
		l1.2-0.7c0.4-0.3,0.9-0.4,1.4-0.4h0.6c0.5,0,1,0.2,1.4,0.6s0.6,0.8,0.6,1.4l0.2,5c0,0.2-0.1,0.3-0.2,0.5c-0.1,0.1-0.3,0.2-0.5,0.2
		c-0.2,0-0.3-0.1-0.5-0.2c-0.1-0.1-0.2-0.3-0.2-0.5l-0.2-4.9c0-0.5-0.3-0.7-0.7-0.7h-0.6C51.3,190.4,51,190.4,50.8,190.6z"/>
	<path class="st21" d="M59.2,189.1h3c0.5,0,0.9,0.1,1.2,0.4s0.5,0.6,0.5,0.8c0,0.2-0.1,0.3-0.2,0.5s-0.3,0.2-0.4,0.2
		c-0.2,0-0.4-0.1-0.6-0.3s-0.4-0.3-0.5-0.3h-3c-0.3,0-0.4,0.1-0.4,0.4c0,0.2,0.1,0.3,0.3,0.4l3.5,1.6c0.4,0.2,0.6,0.4,0.9,0.8
		s0.3,0.7,0.3,1.2c0,0.6-0.2,1-0.6,1.4s-0.9,0.6-1.4,0.6h-2.7c-0.5,0-0.9-0.1-1.3-0.4c-0.4-0.3-0.6-0.5-0.6-0.8
		c0-0.2,0.1-0.3,0.2-0.5c0.1-0.1,0.3-0.2,0.5-0.2c0.2,0,0.3,0.1,0.5,0.3c0.2,0.2,0.5,0.3,0.8,0.3h2.4c0.2,0,0.4-0.1,0.5-0.2
		c0.1-0.1,0.2-0.3,0.2-0.5c0-0.3-0.1-0.5-0.4-0.6l-3.5-1.6c-0.3-0.2-0.6-0.4-0.8-0.7c-0.2-0.3-0.3-0.6-0.3-0.9
		c0-0.5,0.2-0.9,0.5-1.2C58.3,189.2,58.7,189.1,59.2,189.1z"/>
	<path class="st21" d="M72.3,196.6h-4c-0.2,0-0.3-0.1-0.5-0.2c-0.1-0.1-0.2-0.3-0.2-0.5c0-0.2,0.1-0.3,0.2-0.5
		c0.1-0.1,0.3-0.2,0.5-0.2h1.3v-4.9h-1.3c-0.2,0-0.3-0.1-0.5-0.2c-0.1-0.1-0.2-0.3-0.2-0.5c0-0.2,0.1-0.3,0.2-0.5
		c0.1-0.1,0.3-0.2,0.5-0.2h2c0.2,0,0.3,0.1,0.5,0.2c0.1,0.1,0.2,0.3,0.2,0.5v5.6h1.3c0.2,0,0.3,0.1,0.5,0.2s0.2,0.3,0.2,0.5
		s-0.1,0.3-0.2,0.5C72.7,196.5,72.5,196.6,72.3,196.6z M69.7,185.7h0.7c0.2,0,0.3,0.1,0.5,0.2c0.1,0.1,0.2,0.3,0.2,0.5v0.6
		c0,0.2-0.1,0.3-0.2,0.5c-0.1,0.1-0.3,0.2-0.5,0.2h-0.7c-0.2,0-0.3-0.1-0.5-0.2c-0.1-0.1-0.2-0.3-0.2-0.5l0-0.6
		c0-0.2,0.1-0.3,0.2-0.5C69.3,185.7,69.5,185.7,69.7,185.7z"/>
	<path class="st21" d="M82,190v-3.1c0-0.2,0.1-0.3,0.2-0.5s0.3-0.2,0.5-0.2c0.2,0,0.3,0.1,0.5,0.2s0.2,0.3,0.2,0.5v9.1
		c0,0.2-0.1,0.3-0.2,0.5c-0.1,0.1-0.3,0.2-0.5,0.2c-0.2,0-0.3-0.1-0.5-0.2S82,196.1,82,196v-0.3c-0.6,0.6-1.2,0.9-1.8,0.9h-1.1
		c-0.4,0-0.9-0.2-1.3-0.6l-0.5-0.5c-0.1-0.1-0.2-0.3-0.4-0.6c-0.1-0.3-0.2-0.5-0.2-0.8v-2.7c0-0.3,0.1-0.6,0.2-0.9s0.3-0.5,0.4-0.6
		l0.5-0.5c0.4-0.3,0.8-0.5,1.4-0.5h0.9c0.5,0,1,0.2,1.4,0.5L82,190z M80.1,190.4h-0.9c-0.2,0-0.4,0.1-0.5,0.2l-0.4,0.4
		c-0.1,0.1-0.2,0.3-0.2,0.5v2.8c0,0.2,0.1,0.3,0.3,0.5l0.4,0.4c0.1,0.1,0.3,0.2,0.4,0.2h1.1c0.1,0,0.3-0.1,0.5-0.2l1-0.9
		c0.2-0.2,0.3-0.3,0.3-0.6v-1.4c0-0.3-0.1-0.6-0.3-0.7l-1.1-0.9C80.5,190.5,80.3,190.4,80.1,190.4z"/>
	<path class="st21" d="M93,191.5v1.6c0,0.2-0.1,0.3-0.2,0.5c-0.1,0.1-0.3,0.2-0.5,0.2h-4.6v0.4c0,0.2,0.1,0.4,0.3,0.6l0.4,0.3
		c0.2,0.2,0.4,0.2,0.6,0.2h3.4c0.2,0,0.3,0.1,0.5,0.2c0.1,0.1,0.2,0.3,0.2,0.5c0,0.2-0.1,0.3-0.2,0.5s-0.3,0.2-0.5,0.2h-3.5
		c-0.2,0-0.5,0-0.7-0.1c-0.3-0.1-0.4-0.2-0.6-0.3l-0.6-0.5c-0.2-0.1-0.3-0.3-0.5-0.6c-0.1-0.3-0.2-0.5-0.2-0.7v-3
		c0-0.2,0.1-0.4,0.2-0.7s0.3-0.5,0.5-0.7l0.5-0.4c0.4-0.3,0.8-0.4,1.2-0.4h1.8c0.5,0,0.9,0.2,1.3,0.6l0.5,0.5
		C92.8,190.4,93,190.9,93,191.5z M87.7,191.4v1h4v-0.9c0-0.2-0.1-0.4-0.2-0.6l-0.4-0.3c-0.2-0.2-0.4-0.2-0.5-0.2h-1.6
		c-0.2,0-0.4,0.1-0.6,0.2l-0.4,0.3C87.8,191.1,87.7,191.2,87.7,191.4z"/>
	<path class="st21" d="M105.7,195.7l2.6-9c0.1-0.3,0.3-0.5,0.7-0.5c0.3,0,0.5,0.1,0.6,0.4l2.6,9.1c0,0.1,0,0.1,0,0.2
		c0,0.2-0.1,0.3-0.2,0.5s-0.3,0.2-0.4,0.2c-0.3,0-0.6-0.2-0.7-0.5l-0.5-1.8h-3l-0.6,1.9c0,0.1-0.1,0.2-0.2,0.2s-0.2,0.1-0.4,0.1
		c-0.2,0-0.4-0.1-0.5-0.2s-0.2-0.3-0.2-0.5C105.7,195.9,105.7,195.8,105.7,195.7z M109,189.3l-1.1,3.8h2.2L109,189.3z"/>
	<path class="st21" d="M120.7,196.6h-4c-0.2,0-0.3-0.1-0.5-0.2s-0.2-0.3-0.2-0.5c0-0.2,0.1-0.3,0.2-0.5s0.3-0.2,0.5-0.2h1.3v-7.7
		h-1.3c-0.2,0-0.3-0.1-0.5-0.2s-0.2-0.3-0.2-0.5s0.1-0.3,0.2-0.5s0.3-0.2,0.5-0.2h2c0.2,0,0.3,0.1,0.5,0.2s0.2,0.3,0.2,0.5v8.4h1.3
		c0.2,0,0.3,0.1,0.5,0.2s0.2,0.3,0.2,0.5c0,0.2-0.1,0.3-0.2,0.5S120.8,196.6,120.7,196.6z"/>
	<path class="st21" d="M129,192v1.6l0.9,1.5l0.5-1.5l0.1-3.8c0-0.2,0.1-0.3,0.2-0.5s0.3-0.2,0.4-0.2c0.2,0,0.3,0.1,0.5,0.2
		s0.2,0.3,0.2,0.5l-0.1,4.1l-0.7,2.3c-0.1,0.3-0.3,0.5-0.6,0.5h-0.7c-0.2,0-0.4-0.1-0.6-0.4l-0.7-1.2l-0.7,1.2
		c-0.2,0.3-0.4,0.4-0.6,0.4h-0.7c-0.2,0-0.3,0-0.4-0.1c-0.1-0.1-0.2-0.2-0.2-0.3l-0.7-2.4l-0.1-4c0-0.2,0.1-0.3,0.2-0.5
		s0.3-0.2,0.5-0.2c0.2,0,0.3,0.1,0.4,0.2s0.2,0.3,0.2,0.5l0.2,3.8l0.4,1.5l0.9-1.5V192c0-0.2,0.1-0.3,0.2-0.5s0.3-0.2,0.5-0.2
		c0.2,0,0.3,0.1,0.5,0.2C128.9,191.6,129,191.8,129,192z"/>
	<path class="st21" d="M136.6,191.9h2.6c0.1,0,0.3,0,0.6,0.1l0-0.9c0-0.2-0.1-0.3-0.2-0.5c-0.1-0.1-0.3-0.2-0.5-0.2h-2.5
		c-0.2,0-0.3-0.1-0.5-0.2c-0.1-0.1-0.2-0.3-0.2-0.5c0-0.2,0.1-0.3,0.2-0.5s0.3-0.2,0.5-0.2h2.5c0.5,0,1,0.2,1.4,0.6s0.6,0.8,0.6,1.4
		l0.2,4.9c0,0.2-0.1,0.3-0.2,0.5s-0.3,0.2-0.5,0.2c-0.2,0-0.3-0.1-0.5-0.2s-0.2-0.3-0.2-0.5l-1.1,0.7h-2.2c-0.6,0-1-0.2-1.4-0.6
		s-0.6-0.9-0.6-1.4v-0.8c0-0.5,0.2-1,0.6-1.4S136.1,191.9,136.6,191.9z M139.9,194.4l0-0.6c0-0.2-0.1-0.3-0.2-0.5s-0.3-0.2-0.5-0.2
		h-2.6c-0.2,0-0.3,0.1-0.5,0.2s-0.2,0.3-0.2,0.5v0.7c0,0.2,0.1,0.3,0.2,0.5c0.1,0.1,0.3,0.2,0.5,0.2h1.9L139.9,194.4z"/>
	<path class="st21" d="M151,191l-3.5,8c-0.1,0.3-0.3,0.4-0.6,0.4H145c-0.2,0-0.3-0.1-0.5-0.2s-0.2-0.3-0.2-0.5
		c0-0.2,0.1-0.3,0.2-0.5s0.3-0.2,0.5-0.2h1.4l0.9-2.1H147c-0.3,0-0.5-0.2-0.6-0.5l-2-4.6v-1.3c0-0.2,0.1-0.3,0.2-0.5
		s0.3-0.2,0.5-0.2c0.2,0,0.3,0.1,0.5,0.2s0.2,0.3,0.2,0.5v1l1.7,4h0.5l1.8-4l0-1c0-0.2,0.1-0.3,0.2-0.5s0.3-0.2,0.5-0.2
		c0.2,0,0.3,0.1,0.5,0.2s0.2,0.3,0.2,0.5V191z"/>
	<path class="st21" d="M155.8,189.1h3c0.5,0,0.9,0.1,1.2,0.4s0.5,0.6,0.5,0.8c0,0.2-0.1,0.3-0.2,0.5s-0.3,0.2-0.4,0.2
		c-0.2,0-0.4-0.1-0.6-0.3s-0.4-0.3-0.5-0.3h-3c-0.3,0-0.4,0.1-0.4,0.4c0,0.2,0.1,0.3,0.3,0.4l3.5,1.6c0.4,0.2,0.6,0.4,0.9,0.8
		s0.3,0.7,0.3,1.2c0,0.6-0.2,1-0.6,1.4s-0.9,0.6-1.4,0.6h-2.7c-0.5,0-0.9-0.1-1.3-0.4s-0.6-0.5-0.6-0.8c0-0.2,0.1-0.3,0.2-0.5
		s0.3-0.2,0.5-0.2c0.2,0,0.3,0.1,0.5,0.3s0.5,0.3,0.8,0.3h2.4c0.2,0,0.4-0.1,0.5-0.2s0.2-0.3,0.2-0.5c0-0.3-0.1-0.5-0.4-0.6
		l-3.5-1.6c-0.3-0.2-0.6-0.4-0.8-0.7s-0.3-0.6-0.3-0.9c0-0.5,0.2-0.9,0.5-1.2S155.4,189.1,155.8,189.1z"/>
</g>
</svg>
