<?xml version="1.0" encoding="utf-8"?>
<!-- Generator: Adobe Illustrator 25.2.0, SVG Export Plug-In . SVG Version: 6.00 Build 0)  -->
<svg version="1.1" id="Layer_1" xmlns="http://www.w3.org/2000/svg" xmlns:xlink="http://www.w3.org/1999/xlink" x="0px" y="0px"
	 viewBox="0 0 500 654.7" style="enable-background:new 0 0 500 654.7;" xml:space="preserve">
<style type="text/css">
	.st0{fill:#9A7541;}
	.st1{fill:#A95715;}
	.st2{fill:#D6991E;}
	.st3{fill:#89420C;}
	.st4{fill:#C4662F;}
	.st5{fill:#19070E;}
	.st6{fill:#E7D870;}
	.st7{fill:#844A1B;}
	.st8{fill:#DBB62E;}
	.st9{fill:#2F1A12;}
	.st10{fill:#F7ECE1;}
	.st11{fill:#633420;}
	.st12{fill:#653423;}
	.st13{fill:none;stroke:#2F1A12;stroke-width:0.5141;stroke-miterlimit:10;}
	.st14{fill:#2D1911;}
	.st15{fill:#703A21;}
	.st16{fill:#DECFAE;}
	.st17{fill:#975C0B;}
	.st18{fill:#AE7B1F;}
	.st19{fill:none;stroke:#F4B158;stroke-width:0.1285;stroke-miterlimit:10;}
	.st20{fill:#946827;}
</style>
<polygon class="st0" points="252.9,379 1.5,456.5 1.5,654.7 501.5,654.7 501.5,436.3 "/>
<polygon class="st1" points="275.5,340.1 1.5,402.5 1.5,470.6 286.3,404 501.5,443.9 501.5,381.8 "/>
<polygon class="st2" points="1.5,-1.5 1.5,402.5 275.5,340.1 501.5,381.8 501.5,-1.5 "/>
<path class="st3" d="M251.9,434.4l1.1-61l46.2-6.9v75L251.9,434.4z"/>
<path class="st4" d="M298.5,366.6l0.6-0.1l-1.1,0l-39.9-9.5l-31.9,7.4c18.6,7.8,26.6,9,26.6,9l44.9-6.7l1.3,0L298.5,366.6z"/>
<path class="st4" d="M226.3,364.4l0,0.8l-1.9,66.3l27.5,2.9l1.1-61"/>
<path class="st5" d="M259.4,304.5v42.6h5.1v-43.8L259.4,304.5z"/>
<path class="st6" d="M261.9,304.7c8.4,0,15.2-6,15.2-13.3c0-7.4-6.8-13.3-15.2-13.3c-8.4,0-15.2,6-15.2,13.3
	C246.7,298.7,253.5,304.7,261.9,304.7z"/>
<path class="st7" d="M261.9,365.2c8.5,0,15.4-4.1,15.4-9c0-5-6.9-9-15.4-9c-8.5,0-15.4,4.1-15.4,9
	C246.4,361.1,253.3,365.2,261.9,365.2z"/>
<path class="st8" d="M232.9,240.5l12.3,37.5c0,0,20.4-5,28.1,0l19.3-37.5H232.9L232.9,240.5z"/>
<path class="st9" d="M199.6,402l-2.2-54.9L1.5,354.8v72.8c2.4-0.1,4.9-0.1,7.7-0.1C19.9,427.5,199.6,402,199.6,402z"/>
<path class="st10" d="M286.3,393.1l-28.3-0.6l-9.7-3.3c0,0-10.6-0.5-19.8-0.5c-9.2,0-26.7-8.6-26.7-8.6l-73.2,5.4L1.7,399.2
	c0,0-0.1,0-0.2,0v71.4c31.6,19.8,103,59.6,103,59.6L286.3,393.1z"/>
<path class="st11" d="M106,420.1L354.3,383l5.1,1.9l-246.6,37.6l-2.2,163.2l-6-1.9L106,420.1z"/>
<path class="st9" d="M112.7,422.5l-2.2,163.2l13.3-2.6v-21.4l223.2-77.3l3.3,15.1l11.2-2.1V385.4L112.7,422.5z M351,475.1
	l-226.2,72.5V435.1L351,396.9V475.1L351,475.1z"/>
<path class="st12" d="M124.8,435.1L351,396.9v78.3l-226.2,72.5V435.1z"/>
<path class="st13" d="M136.8,445.1v85l201.3-64V413L136.8,445.1z"/>
<polygon class="st9" points="105.5,506.4 1.5,445.1 1.5,478 105.5,536.4 "/>
<path class="st14" d="M392.4,331l18.8,1.1l2.9,85.9h-20.3L392.4,331z"/>
<path class="st15" d="M388.1,359.8V418h5.8v-77.9l-5.8,4V359.8z"/>
<polygon class="st16" points="263,-0.7 1.5,-0.7 1.5,60.6 87.8,81.3 "/>
<polygon class="st17" points="273,-0.7 263,-0.7 87.8,81.3 1.5,60.6 1.5,70.7 90.5,93.7 "/>
<polygon class="st18" points="290.8,-1.5 274.2,8.3 89.3,97.3 1.5,75.7 1.5,80.9 89.8,102.6 296.4,8.3 307.5,-1.5 "/>
<path class="st19" d="M273,69.8l91.2-36v39.2L273,102V69.8z"/>
<path class="st20" d="M274.8,70.3l8.8-3.2l0.7,29.8l-9.5,2.8V70.3z"/>
<path class="st20" d="M286.9,66.2l8.8-3.2l0.8,29.8l-9.5,2.8V66.2z"/>
<path class="st20" d="M300.4,61.6l8.8-3.2l0.8,29.8l-9.5,2.8V61.6z"/>
<path class="st20" d="M341.8,47.8l8.8-3.2l0.8,29.8l-9.5,2.8V47.8z"/>
<path class="st20" d="M353,44.2l8.8-3.2l0.7,29.8l-9.5,2.8V44.2z"/>
<path class="st20" d="M313.8,55.2l8.8-3.5l0.8,32.6l-9.5,3V55.2z"/>
<path class="st20" d="M328.5,50.1l8.8-3.5l0.8,32.6l-9.5,3V50.1z"/>
</svg>
